<?xml version="1.0" standalone="no"?>
<!DOCTYPE svg PUBLIC "-//W3C//DTD SVG 1.1//EN" "http://www.w3.org/Graphics/SVG/1.1/DTD/svg11.dtd" >
<svg xmlns="http://www.w3.org/2000/svg" xmlns:xlink="http://www.w3.org/1999/xlink" version="1.1">
<metadata></metadata>
<defs>
<font id="fs_lolaextrabold" horiz-adv-x="590" >
<font-face units-per-em="1000" ascent="750" descent="-250" />
<missing-glyph horiz-adv-x="246" />
<glyph unicode="&#xfb01;" horiz-adv-x="692" d="M604 613q0 -38 -26.5 -64t-63.5 -26q-38 0 -63.5 25.5t-25.5 64.5q0 38 26 63.5t63 25.5t63.5 -25.5t26.5 -63.5zM667 114l-5 -92q-44 -30 -108 -30q-75 0 -102 43q-17 27 -17 81v252h-185v-368h-168v368h-78v117h78v32q0 89 36 129q44 50 140 50q60 0 109 -15l-10 -107 q-32 9 -60 9q-47 0 -47 -49v-49h353v-357q0 -27 23 -27q24 0 41 13z" />
<glyph unicode="&#xfb02;" horiz-adv-x="695" d="M675 114l-5 -92q-44 -30 -108 -30q-75 0 -102 43q-17 27 -17 81v568h168v-556q0 -27 23 -27q24 0 41 13zM380 675v-108q-46 16 -81 16q-49 0 -49 -54v-44h116v-117h-116v-368h-168v368h-78v117h78v31q0 90 37 131q44 49 144 49q62 0 117 -21z" />
<glyph horiz-adv-x="0" />
<glyph horiz-adv-x="333" />
<glyph unicode=" "  horiz-adv-x="246" />
<glyph unicode="&#x09;" horiz-adv-x="246" />
<glyph unicode="&#xa0;" horiz-adv-x="246" />
<glyph unicode="!" horiz-adv-x="300" d="M236 573q0 -1 -0.5 -4t-0.5 -5l-56 -363h-58l-56 363q0 2 -0.5 5t-0.5 4q0 32 26.5 52t59.5 20t59.5 -20t26.5 -52zM229 70q0 -33 -23 -56t-56 -23t-56 23t-23 56t23 56t56 23t56 -23t23 -56z" />
<glyph unicode="&#x22;" horiz-adv-x="350" d="M316 588q0 -10 -1 -13l-37 -175h-51l-37 175q-1 3 -1 12q0 26 18.5 42t44.5 16q27 0 45.5 -15.5t18.5 -41.5zM162 588q0 -10 -1 -13l-37 -175h-52l-37 175q-1 3 -1 12q0 26 18.5 42t45.5 16t45.5 -15.5t18.5 -41.5z" />
<glyph unicode="#" d="M552 277v-106h-105v-171h-110v171h-84v-171h-110v171h-105v106h105v80h-105v106h105v170h110v-170h84v170h110v-170h105v-106h-105v-80h105zM253 277h84v80h-84v-80z" />
<glyph unicode="$" d="M537 197q0 -101 -64 -151.5t-162 -54.5v-99h-88v102q-93 9 -157 38l8 143q42 -24 98 -38.5t102 -14.5q92 0 92 51q0 28 -32 43t-78 24.5t-92.5 26t-78.5 58.5t-32 109q0 69 34.5 116.5t85 67.5t115.5 23v98h88v-102q66 -7 112 -23l-6 -131q-78 30 -154 30 q-103 0 -103 -55q0 -19 17 -32t44.5 -20.5t61 -15t67 -20.5t61 -32.5t44.5 -55.5t17 -85z" />
<glyph unicode="%" horiz-adv-x="890" d="M834 174q0 -87 -40.5 -136.5t-117.5 -49.5t-117.5 49.5t-40.5 136.5t40.5 137t117.5 50t117.5 -50t40.5 -137zM489 642h127l-210 -651h-127zM373 458q0 -87 -40.5 -136.5t-117.5 -49.5t-117.5 49.5t-40.5 136.5t40.5 137t117.5 50t117.5 -50t40.5 -137zM719 174 q0 60 -9.5 79t-33.5 19t-33.5 -19t-9.5 -79t9.5 -79t33.5 -19t33.5 19t9.5 79zM258 458q0 60 -9.5 79t-33.5 19t-33.5 -19t-9.5 -79t9.5 -79t33.5 -19t33.5 19t9.5 79z" />
<glyph unicode="&#x26;" horiz-adv-x="715" d="M680 131l-11 -104q-54 -39 -121 -39q-42 0 -72.5 17.5t-39.5 48.5q-27 -31 -77.5 -48.5t-103.5 -17.5q-94 0 -154.5 52t-60.5 144q0 56 29 99t88 65q-33 15 -51.5 49.5t-18.5 80.5q0 57 34.5 96.5t82 55t103.5 15.5q80 0 157 -29l-7 -114q-56 25 -117 25q-85 0 -85 -67 q0 -34 28 -52q24 -15 74 -15h294v-107h-79v-143q0 -38 34 -38q28 0 74 26zM414 217v69h-95q-103 0 -103 -90q0 -39 25 -61t64 -22q55 0 84 29q25 24 25 75z" />
<glyph unicode="'" horiz-adv-x="196" d="M162 588q0 -10 -1 -13l-37 -175h-52l-37 175q-1 3 -1 12q0 26 18.5 42t45.5 16t45.5 -15.5t18.5 -41.5z" />
<glyph unicode="(" horiz-adv-x="330" d="M328 -154l-20 -39q-120 47 -189 166t-69 273t69 273t189 166l20 -39q-115 -86 -115 -400t115 -400z" />
<glyph unicode=")" horiz-adv-x="330" d="M280 246q0 -154 -69 -273t-189 -166l-20 39q115 86 115 400t-115 400l20 39q120 -47 189 -166t69 -273z" />
<glyph unicode="*" horiz-adv-x="471" d="M408 350q-11 -19 -27.5 -25.5t-38.5 3.5q-11 6 -22 16.5t-23.5 26t-18.5 21.5q-13 13 -20 19q5 -24 17 -57q13 -35 13 -56q0 -23 -15 -34t-37 -11t-37 11t-15 34q0 13 4 27.5t10.5 32.5t9.5 27q4 12 7 27q-21 -17 -43 -44q-27 -30 -43 -40q-22 -10 -38.5 -3.5t-27.5 25.5 q-25 45 14 67q11 6 26 10t34.5 7.5t28.5 5.5t27 8q-12 4 -60 14q-37 7 -56 17q-39 22 -14 67q11 19 27.5 25.5t38.5 -3.5q11 -6 22 -17t24 -26.5t19 -21.5q8 -9 21 -19q-6 28 -17 59q-14 40 -14 57q0 23 15 34t37 11t37 -11t15 -34q0 -12 -4 -27t-10.5 -33t-9.5 -27 q-1 -3 -6 -27q15 13 41 43q25 29 43 39q22 10 38.5 3.5t27.5 -25.5q25 -45 -14 -67q-11 -6 -26 -10t-34.5 -7.5t-28.5 -5.5t-27 -8q12 -4 60 -14q40 -8 56 -17q39 -22 14 -67z" />
<glyph unicode="+" horiz-adv-x="540" d="M467 378v-114h-136v-131h-120v131h-137v114h137v132h120v-132h136z" />
<glyph unicode="," horiz-adv-x="266" d="M214 50q0 -59 -38 -113.5t-99 -81.5l-41 49q63 41 75 89q-27 7 -44 26t-17 47q0 32 22 53.5t56 21.5q39 0 62.5 -24.5t23.5 -66.5z" />
<glyph unicode="-" horiz-adv-x="420" d="M354 306v-123h-287v123h287z" />
<glyph unicode="." horiz-adv-x="258" d="M208 70q0 -33 -23 -56t-56 -23t-56 23t-23 56t23 56t56 23t56 -23t23 -56z" />
<glyph unicode="/" horiz-adv-x="356" d="M213 642h139l-209 -651h-139z" />
<glyph unicode="0" d="M551 316q0 -155 -62 -241.5t-193 -86.5t-194 86.5t-63 241.5t62.5 242t193.5 87t193.5 -87t62.5 -242zM370 316q0 108 -17 153t-58 45t-58 -45t-17 -153q0 -107 17.5 -152t58.5 -45t57.5 44.5t16.5 152.5z" />
<glyph unicode="1" d="M498 109v-109h-364v109h97v348l-73 -41l-57 99l191 118h109v-524h97z" />
<glyph unicode="2" d="M251 123h283l-8 -123h-454v39q0 65 20.5 117t51.5 83.5t67 59.5t67 47.5t51.5 46t20.5 55.5q0 31 -17 49t-47 18q-29 0 -48.5 -20.5t-27.5 -52.5l-148 31q24 91 84 131.5t164 40.5q94 0 155 -49t61 -141q0 -67 -34 -110t-102 -89q-1 -1 -15 -10.5t-18 -12.5t-17.5 -12.5 t-19.5 -15t-17.5 -15t-18 -16.5t-14 -16t-12 -18t-7.5 -17z" />
<glyph unicode="3" d="M534 192q0 -92 -66.5 -148t-183.5 -56q-105 0 -212 41l9 131q92 -48 175 -48q104 0 104 82q0 40 -28.5 56.5t-88.5 17.5v103q47 3 72.5 20.5t25.5 62.5q0 27 -16.5 44.5t-43.5 17.5q-30 0 -47.5 -17t-29.5 -53l-145 29q18 84 78.5 127t150.5 43q108 0 164 -47t56 -121 q0 -96 -82 -130q108 -36 108 -155z" />
<glyph unicode="4" d="M558 234v-120h-65v-114h-158v114h-279l-30 87l233 443l130 -75l-177 -335h123v115h158v-115h65z" />
<glyph unicode="5" d="M534 213q0 -104 -66.5 -164.5t-188.5 -60.5q-105 0 -196 42l10 127q76 -46 155 -46q115 0 115 97q0 42 -23 64q-27 26 -115 26h-125v335h376v-123h-242v-98h34q151 0 212 -55q54 -49 54 -144z" />
<glyph unicode="6" d="M552 220q0 -98 -64 -165t-182 -67q-127 0 -190.5 80.5t-63.5 215.5q0 160 78.5 260.5t211.5 100.5q73 0 133 -21l-2 -110q-54 19 -110 19q-101 0 -128 -133q44 25 118 25q199 0 199 -205zM389 217q0 105 -85 105q-36 0 -79 -20q0 -6 -1.5 -22t-1.5 -23q0 -149 88 -149 q32 0 55.5 26.5t23.5 82.5z" />
<glyph unicode="7" d="M497 633l31 -81l-232 -552h-173l233 510h-290v123h431z" />
<glyph unicode="8" d="M551 191q0 -92 -64.5 -147.5t-192.5 -55.5q-113 0 -174 47t-61 133q0 100 90 151q-69 50 -69 143q0 79 58.5 131t163.5 52q95 0 152.5 -42.5t57.5 -117.5q0 -86 -79 -134q118 -53 118 -160zM369 471q0 30 -18.5 48t-49.5 18q-33 0 -51 -17.5t-18 -41.5q0 -49 84 -82 q53 30 53 75zM380 175q0 14 -7.5 26.5t-15.5 20t-28 17t-31 13.5t-38 14q-45 -31 -45 -82q0 -37 23 -58.5t59 -21.5q40 0 61.5 20.5t21.5 50.5z" />
<glyph unicode="9" d="M538 348q0 -160 -78.5 -260t-211.5 -100q-73 0 -133 21l2 110q54 -19 110 -19q101 0 128 133q-55 -25 -118 -25q-199 0 -199 204q0 98 64 165.5t182 67.5q127 0 190.5 -81t63.5 -216zM368 375q0 150 -88 150q-32 0 -55.5 -27t-23.5 -83q0 -104 85 -104q35 0 79 21 q0 6 1.5 21t1.5 22z" />
<glyph unicode=":" horiz-adv-x="258" d="M208 341q0 -33 -23 -56t-56 -23t-56 23t-23 56t23 56t56 23t56 -23t23 -56zM208 70q0 -33 -23 -56t-56 -23t-56 23t-23 56t23 56t56 23t56 -23t23 -56z" />
<glyph unicode=";" horiz-adv-x="266" d="M213 341q0 -33 -23 -56t-56 -23t-56 23t-23 56t23 56t56 23t56 -23t23 -56zM214 50q0 -59 -38 -113.5t-99 -81.5l-41 49q63 41 75 89q-27 7 -44 26t-17 47q0 32 22 53.5t56 21.5q39 0 62.5 -24.5t23.5 -66.5z" />
<glyph unicode="&#x3c;" horiz-adv-x="540" d="M469 235v-125l-398 152v116l398 154v-125l-241 -86z" />
<glyph unicode="=" horiz-adv-x="540" d="M467 495v-114h-393v114h393zM467 261v-115h-393v115h393z" />
<glyph unicode="&#x3e;" horiz-adv-x="540" d="M469 378v-116l-398 -152v125l241 86l-241 86v125z" />
<glyph unicode="?" horiz-adv-x="521" d="M469 469q0 -141 -139 -179l-40 -11l-14 -78h-72l-12 141l36 7q75 14 75 94q0 31 -15 50.5t-46 19.5q-49 0 -70 -67l-145 29q17 81 77 125.5t154 44.5q93 0 152 -48t59 -128zM320 70q0 -33 -23 -56t-56 -23t-56 23t-23 56t23 56t56 23t56 -23t23 -56z" />
<glyph unicode="@" horiz-adv-x="785" d="M741 352q0 -112 -50.5 -169t-138.5 -57q-39 0 -67.5 13.5t-37.5 36.5q-14 -19 -41.5 -31t-57.5 -12q-59 0 -94 28.5t-35 87.5q0 51 35.5 83.5t100.5 32.5q35 0 72 -11v21q0 21 -17 33t-46 12q-65 0 -115 -28v79q58 26 134 26q91 0 132 -36q35 -30 35 -94v-119 q0 -32 29 -32q45 0 45 122q0 102 -61.5 161t-168.5 59q-112 0 -173.5 -64.5t-61.5 -179.5q0 -121 66.5 -184.5t194.5 -63.5q155 0 277 54l-5 -71q-49 -25 -131 -43t-163 -18q-164 0 -260 88.5t-96 240.5q0 149 99.5 238.5t250.5 89.5q155 0 252 -82.5t97 -210.5zM427 248v48 q-19 8 -39 8q-22 0 -33 -14t-11 -36q0 -44 42 -44q41 0 41 38z" />
<glyph unicode="A" horiz-adv-x="647" d="M417 633l228 -633h-183l-38 116h-211l-34 -116h-171l166 510h-61v123h304zM246 233h139l-49 152q-23 69 -24 96h-2q-1 -30 -20 -95z" />
<glyph unicode="B" horiz-adv-x="630" d="M603 191q0 -128 -107 -170q-55 -21 -167 -21h-252v510h-64v123h316q133 0 184 -45q50 -43 50 -115q0 -93 -85 -128q125 -30 125 -154zM386 444q0 35 -21 52q-19 14 -69 14h-44v-137h57q40 0 58.5 17t18.5 54zM418 198q0 39 -25 59q-23 17 -73 17h-68v-151h66q53 0 76 15 q24 17 24 60z" />
<glyph unicode="C" horiz-adv-x="599" d="M567 452l-178 -33q-19 93 -77 93q-48 0 -73 -52.5t-25 -130.5q0 -98 37 -152.5t111 -54.5q86 0 196 65l-11 -135q-36 -26 -98.5 -45t-125.5 -19q-148 0 -221.5 90t-73.5 242q0 150 74 237q75 88 216 88q106 0 170.5 -52.5t78.5 -140.5z" />
<glyph unicode="D" horiz-adv-x="670" d="M642 310q0 -169 -93.5 -239.5t-260.5 -70.5h-211v510h-64v123h256q95 0 160 -14t115.5 -49t74 -99t23.5 -161zM458 322q0 111 -40 149.5t-128 38.5h-38v-388h53q92 0 122.5 48t30.5 152z" />
<glyph unicode="E" horiz-adv-x="553" d="M241 123h272l-8 -123h-439v633h424v-123h-249v-128h204v-122h-204v-137z" />
<glyph unicode="F" horiz-adv-x="528" d="M490 633v-123h-249v-128h205v-122h-205v-260h-175v633h424z" />
<glyph unicode="G" horiz-adv-x="652" d="M604 325v-325h-103l-21 32q-68 -44 -165 -44q-146 0 -216.5 90t-70.5 238q0 157 79.5 243t224.5 86q107 0 174 -50t86 -146l-182 -31q-10 48 -30.5 71t-57.5 23q-49 0 -78.5 -50t-29.5 -139q0 -202 143 -202q41 0 75 16v87h-68v101h240z" />
<glyph unicode="H" horiz-adv-x="670" d="M604 633v-633h-175v247h-188v-247h-175v633h175v-249h188v249h175z" />
<glyph unicode="I" horiz-adv-x="405" d="M354 91v-91h-303v91h62v447h-62v95h303v-95h-66v-447h66z" />
<glyph unicode="J" horiz-adv-x="482" d="M417 633v-421q0 -97 -27 -142q-50 -82 -188 -82q-90 0 -156 24l8 124q58 -20 111 -20q51 0 66 26q11 20 11 70v298h-155v123h330z" />
<glyph unicode="K" horiz-adv-x="648" d="M638 122l-11 -109q-42 -24 -101 -24q-60 0 -97 32t-66 91l-64 131h-58v-243h-175v633h175v-249h66l124 249h175l-161 -306l88 -168q13 -26 27 -37t38 -11q20 0 40 11z" />
<glyph unicode="L" horiz-adv-x="527" d="M241 123h266l-8 -123h-433v633h175v-510z" />
<glyph unicode="M" horiz-adv-x="812" d="M746 633v-633h-145v368q-3 -25 -33 -91l-126 -277h-73l-126 263q-26 54 -34 106v-369h-144v633h157l160 -329q25 -53 27 -75h1q3 28 24 74l149 330h163z" />
<glyph unicode="N" horiz-adv-x="669" d="M603 633v-633h-110l-256 303q-20 23 -27 42v-345h-144v633h107l258 -304q20 -24 29 -44v348h143z" />
<glyph unicode="O" horiz-adv-x="646" d="M618 316q0 -149 -77.5 -238.5t-217.5 -89.5t-217.5 89.5t-77.5 238.5t77.5 239t217.5 90t217.5 -90t77.5 -239zM432 316q0 195 -109 195t-109 -195q0 -194 109 -194t109 194z" />
<glyph unicode="P" horiz-adv-x="631" d="M609 412q0 -66 -21.5 -112.5t-61 -71.5t-87 -35.5t-109.5 -10.5h-78v-182h-175v510h-64v123h282q56 0 95.5 -3.5t84 -16.5t71.5 -36t45 -65t18 -100zM429 411q0 55 -30.5 77t-87.5 22h-59v-206h62q58 0 86.5 24t28.5 83z" />
<glyph unicode="Q" horiz-adv-x="646" d="M618 316q0 -128 -59 -214t-171 -106q-2 -12 -2 -16q0 -38 42 -38q43 0 112 33l-8 -103q-77 -57 -171 -57q-59 0 -95 32.5t-36 81.5q0 38 12 71q-105 24 -159.5 108.5t-54.5 207.5q0 146 76 237.5t219 91.5t219 -91.5t76 -237.5zM432 316q0 195 -109 195t-109 -195 q0 -191 109 -191t109 191z" />
<glyph unicode="R" horiz-adv-x="663" d="M645 127l-11 -115q-40 -23 -95 -23q-61 0 -101 28q-35 26 -69 80l-70 113h-47v-210h-175v510h-64v123h301q134 0 196 -35q93 -52 93 -171q0 -146 -119 -195l51 -81q14 -22 27 -30.5t33 -8.5q27 0 50 15zM422 417q0 47 -23 70t-97 23h-50v-191h74q51 0 73.5 23.5 t22.5 74.5z" />
<glyph unicode="S" horiz-adv-x="567" d="M534 197q0 -105 -70 -157t-175 -52q-132 0 -226 42l8 143q43 -24 99 -39t101 -15q92 0 92 54q0 28 -32 43t-78 24.5t-92.5 26t-78.5 58.5t-32 109q0 107 74 159t182 52q97 0 179 -28l-6 -131q-80 31 -154 31q-47 0 -75 -15t-28 -44q0 -19 17 -32t44.5 -20.5t61 -15 t67 -20.5t61 -32.5t44.5 -55.5t17 -85z" />
<glyph unicode="T" horiz-adv-x="563" d="M548 633v-123h-179v-510h-175v510h-179v123h533z" />
<glyph unicode="U" horiz-adv-x="653" d="M588 633v-403q0 -104 -47 -161q-66 -81 -216 -81q-152 0 -213 74q-47 54 -47 163v408h175v-400q0 -52 18 -77q21 -29 71 -29q46 0 68 25q21 25 21 79v402h170z" />
<glyph unicode="V" horiz-adv-x="601" d="M425 633h173l-210 -633h-181l-204 633h185l107 -366q8 -28 10 -82h2q2 47 12 82z" />
<glyph unicode="W" horiz-adv-x="883" d="M714 633h167l-197 -633h-155l-78 258l-85 -258h-152l-211 633h175l111 -348q16 -45 16 -82h2q2 44 14 80l64 191l-47 159h164l99 -347q12 -46 12 -83h2q2 39 13 85z" />
<glyph unicode="X" horiz-adv-x="635" d="M620 129l-8 -114q-39 -26 -94 -26q-49 0 -82 22.5t-67 75.5l-71 110l-105 -197h-181l202 328l-195 305h197l112 -180l98 180h176l-193 -310l106 -164q29 -45 62 -45q22 0 43 15z" />
<glyph unicode="Y" horiz-adv-x="638" d="M462 633h172l-229 -416v-217h-175v218l-229 415h197l109 -209q23 -43 26 -77h1q4 37 24 75z" />
<glyph unicode="Z" horiz-adv-x="569" d="M261 123h278l-8 -123h-481v98l261 412h-255v123h466v-98z" />
<glyph unicode="[" horiz-adv-x="350" d="M348 -70v-115h-272v869h272v-115h-116v-639h116z" />
<glyph unicode="\" horiz-adv-x="356" d="M143 642l209 -651h-139l-209 651h139z" />
<glyph unicode="]" horiz-adv-x="350" d="M274 684v-869h-272v115h116v639h-116v115h272z" />
<glyph unicode="^" horiz-adv-x="540" d="M332 621l148 -265h-113l-96 178l-96 -178h-114l149 265q7 13 14.5 18.5t21.5 5.5h51q21 0 35 -24z" />
<glyph unicode="_" horiz-adv-x="500" d="M510 -49v-86h-520v86h520z" />
<glyph unicode="`" horiz-adv-x="337" d="M267 563l-13 -44q-76 56 -132 56q-17 0 -37 -4q-20 27 -20 52q0 20 13.5 32t40.5 12q36 0 70 -26.5t78 -77.5z" />
<glyph unicode="a" horiz-adv-x="565" d="M552 114l-6 -92q-44 -30 -109 -30q-75 0 -95 54q-44 -55 -135 -55q-79 0 -124.5 41.5t-45.5 117.5q0 77 51 119t135 42q52 0 97 -17v14q0 43 -16 60q-20 21 -70 21q-80 0 -154 -38v110q82 33 180 33q122 0 181 -50q47 -40 47 -130v-186q0 -27 23 -27q24 0 41 13zM320 154 v63q-29 11 -52 11q-61 0 -61 -68q0 -31 15.5 -47.5t43.5 -16.5q26 0 39 15q15 15 15 43z" />
<glyph unicode="b" horiz-adv-x="571" d="M545 247q0 -128 -66 -192q-65 -64 -204 -64q-117 0 -212 28v548h-59v117h227v-244q46 54 127 54q75 0 121 -43q66 -61 66 -204zM375 245q0 61 -17 93.5t-59 32.5q-68 0 -68 -76v-191q15 -5 42 -5q45 0 68 24q34 35 34 122z" />
<glyph unicode="c" horiz-adv-x="505" d="M479 328l-152 -31q-9 45 -21 65.5t-40 20.5q-34 0 -53 -36.5t-19 -98.5q0 -143 115 -143q81 0 155 48l-5 -112q-82 -50 -186 -50q-117 0 -183 64t-66 182q0 117 63 187t178 70q90 0 146 -41q53 -39 68 -125z" />
<glyph unicode="d" horiz-adv-x="582" d="M569 114l-6 -90q-49 -32 -109 -32q-33 0 -60 15t-39 42q-21 -26 -57.5 -42t-78.5 -16q-89 0 -142 59.5t-53 166.5q0 130 77.5 203.5t195.5 73.5q14 0 40 -2v75h-59v117h227v-556q0 -27 23 -27q24 0 41 13zM337 187v204q-12 2 -27 2q-55 0 -85.5 -46t-30.5 -121 q0 -115 79 -115q33 0 51 23q13 17 13 53z" />
<glyph unicode="e" horiz-adv-x="534" d="M501 277q0 -49 -18 -68q-15 -16 -50 -16h-235q17 -90 116 -90q91 0 165 51l-6 -107q-76 -56 -197 -56q-119 0 -185.5 66.5t-66.5 182.5q0 119 67.5 186.5t174.5 67.5q105 0 170 -58.5t65 -158.5zM338 287q0 41 -18 69.5t-54 28.5q-33 0 -52 -28.5t-20 -82.5h133 q11 0 11 13z" />
<glyph unicode="f" horiz-adv-x="390" d="M391 675v-108q-46 16 -90 16q-51 0 -51 -54v-44h116v-117h-116v-368h-168v368h-78v117h78v31q0 90 37 131q44 49 145 49q68 0 127 -21z" />
<glyph unicode="g" horiz-adv-x="566" d="M511 464v-438q0 -119 -47 -173q-56 -65 -183 -65q-115 0 -210 50l12 119q84 -51 165 -51q51 0 73 23t22 74v41q-17 -21 -48 -33.5t-67 -12.5q-96 0 -149.5 58t-53.5 162q0 130 83 203t213 73q104 0 190 -30zM343 190v191q-11 3 -26 3q-58 0 -90 -43t-32 -112 q0 -56 21 -85.5t58 -29.5q35 0 54 22q15 16 15 54z" />
<glyph unicode="h" horiz-adv-x="575" d="M524 320v-320h-168v294q0 35 -9 50q-14 25 -49 25q-36 0 -54 -28q-13 -19 -13 -61v-280h-168v684h168v-238q51 48 126 48q105 0 145 -68q22 -37 22 -106z" />
<glyph unicode="i" horiz-adv-x="337" d="M249 613q0 -38 -26.5 -64t-63.5 -26q-38 0 -63.5 25.5t-25.5 64.5q0 38 26 63.5t63 25.5t63.5 -25.5t26.5 -63.5zM312 114l-5 -92q-44 -30 -108 -30q-75 0 -102 43q-17 27 -17 81v252h-59v117h227v-357q0 -27 23 -27q24 0 41 13z" />
<glyph unicode="j" horiz-adv-x="314" d="M258 613q0 -38 -26.5 -64t-63.5 -26q-38 0 -63.5 25.5t-25.5 64.5q0 38 26 63.5t63 25.5t63.5 -25.5t26.5 -63.5zM257 485v-487q0 -61 -8 -96.5t-32 -60.5q-45 -46 -146 -46q-61 0 -119 20l7 114q36 -17 76 -17q29 0 41.5 13.5t12.5 44.5v398h-64v117h232z" />
<glyph unicode="k" horiz-adv-x="583" d="M576 118l-6 -98q-38 -28 -96 -28q-50 0 -80 21q-25 19 -46 54l-82 132h-34v-199h-168v567h-59v117h227v-363h43l83 164h164l-117 -221l89 -140q14 -23 38 -23q18 0 44 17z" />
<glyph unicode="l" horiz-adv-x="317" d="M297 114l-5 -92q-44 -30 -108 -30q-75 0 -102 43q-17 27 -17 81v451h-59v117h227v-556q0 -27 23 -27q24 0 41 13z" />
<glyph unicode="m" horiz-adv-x="867" d="M816 320v-320h-168v294q0 35 -9 50q-14 25 -47 25q-34 0 -52 -28q-12 -17 -12 -62v-279h-168v294q0 35 -9 50q-14 25 -47 25q-34 0 -52 -28q-12 -17 -12 -62v-279h-168v368h-59v117h158l30 -68q54 77 161 77q96 0 141 -67q59 67 147 67q102 0 144 -72q22 -37 22 -102z " />
<glyph unicode="n" horiz-adv-x="584" d="M533 320v-320h-168v294q0 35 -9 50q-14 25 -49 25q-37 0 -54 -28q-13 -19 -13 -61v-280h-168v368h-59v117h158l30 -68q25 36 69.5 56.5t95.5 20.5q105 0 145 -68q22 -37 22 -106z" />
<glyph unicode="o" horiz-adv-x="546" d="M522 242q0 -115 -65.5 -183t-183.5 -68t-183.5 68t-65.5 183t65.5 183.5t183.5 68.5t183.5 -68.5t65.5 -183.5zM352 242q0 72 -17.5 106t-61.5 34t-61.5 -34t-17.5 -106q0 -71 17.5 -105t61.5 -34t61.5 34t17.5 105z" />
<glyph unicode="p" horiz-adv-x="580" d="M555 248q0 -144 -79 -207q-63 -50 -168 -50q-30 0 -68 5v-195h-168v567h-59v117h158l34 -68q56 77 156 77q94 0 144 -62.5t50 -183.5zM385 243q0 128 -77 128q-38 0 -55 -29q-13 -21 -13 -67v-174q32 -4 51 -4q55 0 74.5 36.5t19.5 109.5z" />
<glyph unicode="q" horiz-adv-x="561" d="M533 -176l-163 -32q-32 49 -32 135v115q-42 -51 -121 -51q-93 0 -143 59.5t-50 161.5q0 131 78 207q77 75 210 75q83 0 194 -26v-505q0 -45 4 -69q6 -38 23 -70zM338 185v196q-15 3 -32 3q-55 0 -83.5 -43t-28.5 -117q0 -50 17.5 -81.5t56.5 -31.5q31 0 50.5 20t19.5 54z " />
<glyph unicode="r" horiz-adv-x="388" d="M363 491v-129q-21 3 -44 3q-42 0 -60.5 -22t-18.5 -70v-273h-168v368h-59v117h158l30 -69q17 36 51 57t76 21q23 0 35 -3z" />
<glyph unicode="s" horiz-adv-x="483" d="M452 153q0 -83 -59.5 -122.5t-146.5 -39.5q-113 0 -192 34l8 124q32 -20 81 -33t88 -13q66 0 66 32q0 15 -18.5 24.5t-46.5 13.5t-60.5 14t-60.5 24t-46.5 45t-18.5 75q0 84 63.5 123.5t153.5 39.5q86 0 147 -22v-113q-63 26 -133 26q-75 0 -75 -36q0 -16 26 -25.5 t62.5 -17t73 -21t62.5 -47t26 -85.5z" />
<glyph unicode="t" horiz-adv-x="420" d="M388 137l-4 -107q-24 -17 -65.5 -28t-80.5 -11q-76 0 -114 36q-40 39 -40 142v199h-79v117h79v115l168 38v-153h109v-117h-109v-201q0 -29 9.5 -43.5t34.5 -14.5q43 0 92 28z" />
<glyph unicode="u" d="M577 114l-6 -90q-49 -32 -109 -32q-32 0 -58.5 14t-38.5 40q-25 -24 -65.5 -39.5t-80.5 -15.5q-105 0 -145 68q-22 37 -22 106v320h168v-294q0 -35 9 -50q14 -25 49 -25q36 0 54 28q13 19 13 61v280h168v-357q0 -27 23 -27q24 0 41 13z" />
<glyph unicode="v" horiz-adv-x="515" d="M359 485h154l-180 -485h-154l-177 485h166l77 -240q17 -53 17 -84q3 39 18 83z" />
<glyph unicode="w" horiz-adv-x="725" d="M587 485h136l-163 -485h-129l-64 207l-70 -207h-125l-170 485h163l72 -222q17 -51 17 -80q1 28 18 79l40 122l-32 101h150l60 -219q15 -56 16 -86q1 39 16 86z" />
<glyph unicode="x" horiz-adv-x="515" d="M509 116l-5 -95q-37 -29 -92 -29q-40 0 -70 19t-64 69l-43 63l-73 -143h-148l143 258l-154 227h173l95 -140l69 140h147l-141 -251l69 -102q21 -30 48 -30q25 0 46 14z" />
<glyph unicode="y" horiz-adv-x="568" d="M512 485v-459q0 -119 -47 -173q-56 -65 -183 -65q-115 0 -210 50l12 119q84 -51 165 -51q51 0 73 23t22 74v36q-50 -48 -125 -48q-106 0 -146 68q-22 37 -22 106v320h168v-294q0 -35 9 -50q14 -25 49 -25q37 0 54 28q13 19 13 61v280h168z" />
<glyph unicode="z" horiz-adv-x="478" d="M232 117h220l-8 -117h-400v85l202 283h-201v117h387v-87z" />
<glyph unicode="{" horiz-adv-x="379" d="M355 -119v-85h-76h-25.5t-26 1t-31 4t-26 7.5t-24.5 13t-15 19.5q-10 21 -10 62q0 22 3 66.5t3 67.5q0 55 -9 109q-7 39 -25 53t-59 16v50q41 2 59 16t25 53q9 54 9 109q0 23 -3 67t-3 67q0 41 10 62q6 11 15 19.5t24.5 13t26 7.5t31 4t26 1h25.5h76v-85h-37 q-29 0 -41.5 -10.5t-12.5 -33.5q0 -12 13 -74q12 -60 12 -105q0 -57 -28 -94.5t-83 -41.5q55 -4 83 -41.5t28 -94.5q0 -45 -12 -105q-13 -62 -13 -74q0 -23 12.5 -33.5t41.5 -10.5h37z" />
<glyph unicode="|" horiz-adv-x="257" d="M187 750v-1000h-117v1000h117z" />
<glyph unicode="}" horiz-adv-x="379" d="M345 265v-50q-41 -2 -59 -16t-25 -53q-9 -54 -9 -109q0 -23 3 -67.5t3 -66.5q0 -41 -10 -62q-6 -11 -15 -19.5t-24.5 -13t-26 -7.5t-31 -4t-26 -1h-25.5h-76v85h37q29 0 41.5 10.5t12.5 33.5q0 12 -13 74q-12 60 -12 105q0 57 28 94.5t83 41.5q-55 4 -83 41.5t-28 94.5 q0 45 12 105q13 62 13 74q0 23 -12.5 33.5t-41.5 10.5h-37v85h76h25.5t26 -1t31 -4t26 -7.5t24.5 -13t15 -19.5q10 -21 10 -62q0 -23 -3 -67t-3 -67q0 -55 9 -109q7 -39 25 -53t59 -16z" />
<glyph unicode="~" horiz-adv-x="540" d="M481 348l60 -51q-68 -150 -176 -150q-42 0 -105 34t-91 34q-55 0 -110 -64l-60 50q68 150 176 150q42 0 105 -34t91 -34q55 0 110 65z" />
<glyph unicode="&#xa1;" horiz-adv-x="300" d="M64 -88q0 2 0.5 5t0.5 4l56 363h58l56 -363q0 -1 0.5 -4t0.5 -5q0 -32 -26.5 -52t-59.5 -20t-59.5 20t-26.5 52zM71 415q0 33 23 56t56 23t56 -23t23 -56t-23 -56t-56 -23t-56 23t-23 56z" />
<glyph unicode="&#xa2;" d="M523 328l-152 -31q-9 45 -21 65.5t-40 20.5q-34 0 -53 -36.5t-19 -98.5q0 -143 115 -143q81 0 155 48l-5 -112q-58 -36 -138 -47v-102h-86v101q-100 10 -155.5 73t-55.5 171q0 109 54.5 177.5t156.5 78.5v100h86v-104q52 -9 90 -36q53 -39 68 -125z" />
<glyph unicode="&#xa3;" d="M275 123h282l-10 -123h-463v86q41 36 57 62.5t16 65.5q0 20 -16 59h-98v82h64q-21 54 -21 96q0 88 60 141t160 53t159.5 -43.5t83.5 -134.5l-156 -26q-20 74 -71 74q-27 0 -42 -15t-15 -42q0 -25 37 -103h126v-82h-97q3 -13 3 -27q0 -39 -12.5 -66.5t-46.5 -56.5z" />
<glyph unicode="&#xa4;" d="M472 316q0 -48 -15 -85l87 -141h-123l-34 64q-38 -20 -92 -20t-92 20l-34 -64h-123l87 141q-15 37 -15 85t15 85l-87 141h123l34 -64q38 20 92 20t92 -20l34 64h123l-87 -141q15 -38 15 -85zM349 316q0 77 -54 77t-54 -77t54 -77t54 77z" />
<glyph unicode="&#xa5;" d="M442 633h172l-190 -341h80v-85h-121v-42h121v-85h-121v-80h-175v80h-121v85h121v42h-121v85h80l-190 341h197l111 -209q23 -43 26 -77h1q4 37 24 75z" />
<glyph unicode="&#xa6;" horiz-adv-x="257" d="M187 750v-380h-117v380h117zM187 130v-380h-117v380h117z" />
<glyph unicode="&#xa7;" d="M499 -45q0 -84 -61.5 -132t-154.5 -48t-169 31l8 110q76 -29 141 -29q37 0 59 11.5t22 32.5q0 15 -16.5 28t-55.5 28q-34 13 -49 19.5t-45.5 24t-45.5 34.5t-28 46t-13 64q0 92 80 151q-80 52 -80 139q0 84 61.5 132t154.5 48t169 -31l-7 -109q-74 28 -142 28 q-37 0 -59 -11.5t-22 -32.5q0 -15 16.5 -28t55.5 -28q34 -13 49 -19.5t45.5 -24t45.5 -34.5t28 -46t13 -64q0 -92 -80 -151q80 -52 80 -139zM353 208q0 22 -20 37t-62 33q-34 -24 -34 -66q0 -22 20 -37t62 -33q34 24 34 66z" />
<glyph unicode="&#xa8;" horiz-adv-x="337" d="M327 612q0 -27 -19 -45.5t-46 -18.5t-45.5 18.5t-18.5 45.5t18.5 46t45.5 19t46 -19t19 -46zM139 612q0 -27 -18.5 -45.5t-45.5 -18.5t-46 18.5t-19 45.5t19 46t46 19t45.5 -19t18.5 -46z" />
<glyph unicode="&#xa9;" horiz-adv-x="760" d="M724 317q0 -138 -95 -233.5t-249 -95.5t-249 95.5t-95 233.5t95 233t249 95t249 -95t95 -233zM634 317q0 115 -69.5 183.5t-184.5 68.5t-184.5 -68.5t-69.5 -183.5t70 -184t184 -69t184 69t70 184zM516 379l-101 -18q-10 48 -36 48q-21 0 -32.5 -23.5t-11.5 -62.5 q0 -99 71 -99q42 0 105 37l-7 -80q-48 -33 -118 -33q-78 0 -117 46.5t-39 123.5q0 75 39 121t113 46q56 0 91 -28.5t43 -77.5z" />
<glyph unicode="&#xaa;" horiz-adv-x="410" d="M374 421l-4 -57q-28 -20 -68 -20q-44 0 -59 35q-26 -36 -83 -36q-48 0 -75 25.5t-27 70.5q0 47 30.5 71.5t81.5 24.5q32 0 58 -10v8q0 25 -10 36q-12 13 -42 13q-46 0 -92 -23v66q49 20 108 20q75 0 109 -30q28 -24 28 -78v-112q0 -16 15 -16q14 0 30 12zM228 441v38 q-16 6 -31 6q-37 0 -37 -40q0 -39 36 -39q14 0 23 9t9 26z" />
<glyph unicode="&#xab;" horiz-adv-x="555" d="M388 242l85 -108l-31 -90l-163 166q-15 15 -15 32t15 32l163 166l31 -90zM186 242l85 -108l-31 -90l-163 166q-15 15 -15 32t15 32l163 166l31 -90z" />
<glyph unicode="&#xac;" horiz-adv-x="540" d="M467 381v-215h-115v215h-278v114h393v-114z" />
<glyph unicode="&#xad;" horiz-adv-x="420" d="M354 306v-123h-287v123h287z" />
<glyph unicode="&#xae;" horiz-adv-x="760" d="M724 317q0 -138 -95 -233.5t-249 -95.5t-249 95.5t-95 233.5t95 233t249 95t249 -95t95 -233zM634 317q0 115 -69.5 183.5t-184.5 68.5t-184.5 -68.5t-69.5 -183.5t70 -184t184 -69t184 69t70 184zM552 229l-7 -69q-22 -13 -54 -13t-51.5 13.5t-38.5 42.5l-35 54h-16 v-106h-99v256h-33v72h160q66 0 101 -19q51 -28 51 -90q0 -73 -59 -100l23 -35q11 -16 26 -16q16 0 32 10zM427 365q0 22 -9 31q-13 11 -47 11h-21v-86h33q24 0 34 10t10 34z" />
<glyph unicode="&#xaf;" horiz-adv-x="337" d="M292 656v-70h-247v70h247z" />
<glyph unicode="&#xb0;" horiz-adv-x="450" d="M401 469q0 -77 -51.5 -126.5t-124.5 -49.5t-124.5 49.5t-51.5 126.5t51.5 126.5t124.5 49.5t124.5 -49.5t51.5 -126.5zM309 469q0 42 -22 70t-62 28t-62 -28t-22 -70t22 -70t62 -28t62 28t22 70z" />
<glyph unicode="&#xb1;" horiz-adv-x="540" d="M467 378v-114h-136v-131h-120v131h-137v114h137v132h120v-132h136zM467 114v-114h-393v114h393z" />
<glyph unicode="&#xb2;" horiz-adv-x="400" d="M191 339h167l-6 -84h-284v29q0 57 23.5 92.5t62.5 64.5q5 4 26 18t31 23q24 21 24 42q0 32 -32 32q-31 0 -42 -42l-100 19q16 60 53.5 86t102.5 26q58 0 97 -29.5t39 -87.5q0 -30 -14 -55t-30 -37.5t-45.5 -32t-42.5 -30.5q-21 -18 -30 -34z" />
<glyph unicode="&#xb3;" horiz-adv-x="400" d="M357 378q0 -57 -42 -90.5t-114 -33.5q-63 0 -134 26l7 90q62 -32 110 -32q57 0 57 41q0 20 -16 28t-55 9v71q31 2 45 10.5t14 31.5q0 29 -30 29q-16 0 -25.5 -9t-16.5 -32l-98 19q24 109 144 109q67 0 102.5 -28t35.5 -74q0 -51 -40 -75q56 -24 56 -90z" />
<glyph unicode="&#xb4;" horiz-adv-x="337" d="M273 623q0 -23 -21 -52q-20 4 -35 4q-57 0 -133 -56l-13 44q45 52 78 78t69 26q27 0 41 -12t14 -32z" />
<glyph unicode="&#xb5;" horiz-adv-x="601" d="M588 114l-6 -90q-49 -32 -109 -32q-32 0 -58.5 14t-38.5 40q-25 -24 -65 -39.5t-80 -15.5v-190h-168v684h168v-294q0 -35 9 -50q14 -25 49 -25q37 0 54 28q13 19 13 61v280h168v-357q0 -27 23 -27q24 0 41 13z" />
<glyph unicode="&#xb6;" horiz-adv-x="550" d="M519 633v-92h-62v-768h-98v768h-56v-768h-99v526q-71 0 -119 48t-48 119t48 119t119 48h315z" />
<glyph unicode="&#xb7;" horiz-adv-x="253" d="M203 255q0 -31 -22.5 -54t-54.5 -23q-31 0 -53.5 22.5t-22.5 54.5q0 31 22 53.5t54 22.5t54.5 -22.5t22.5 -53.5z" />
<glyph unicode="&#xb8;" horiz-adv-x="337" d="M252 -98q0 -41 -34.5 -65t-100.5 -23l-15 46q76 3 76 24q0 10 -14.5 17.5t-31.5 12t-31.5 14t-14.5 23.5q0 13 15 50l23 58l45 -32q-15 -32 -15 -45q0 -9 24.5 -17t49 -23t24.5 -40z" />
<glyph unicode="&#xb9;" horiz-adv-x="400" d="M326 337v-76h-227v76h56v189l-40 -22l-40 68l121 73h73v-308h57z" />
<glyph unicode="&#xba;" horiz-adv-x="410" d="M354 494q0 -69 -39 -110t-110 -41t-110 41t-39 110t39 110t110 41t110 -41t39 -110zM252 494q0 43 -10 63.5t-37 20.5t-37 -20.5t-10 -63.5t10 -63.5t37 -20.5t37 20.5t10 63.5z" />
<glyph unicode="&#xbb;" horiz-adv-x="555" d="M493 242q0 -17 -15 -32l-163 -166l-31 90l85 108l-85 108l31 90l163 -166q15 -15 15 -32zM291 242q0 -17 -15 -32l-163 -166l-31 90l85 108l-85 108l31 90l163 -166q15 -15 15 -32z" />
<glyph unicode="&#xbc;" horiz-adv-x="860" d="M818 147v-81h-59v-66h-107v66h-169v58l135 266l92 -50l-97 -193h39v51h107v-51h59zM480 642h119l-210 -651h-119zM317 337v-76h-227v76h56v189l-40 -22l-40 68l121 73h73v-308h57z" />
<glyph unicode="&#xbd;" horiz-adv-x="860" d="M639 84h167l-6 -84h-284v29q0 57 23.5 92.5t62.5 64.5q5 4 26 18t31 23q24 21 24 42q0 32 -32 32q-31 0 -42 -42l-100 19q16 60 53.5 86t102.5 26q58 0 97 -29.5t39 -87.5q0 -30 -14 -55t-30 -37.5t-45.5 -32t-42.5 -30.5q-21 -18 -30 -34zM468 642h119l-210 -651h-119z M305 337v-76h-227v76h56v189l-40 -22l-40 68l121 73h73v-308h57z" />
<glyph unicode="&#xbe;" horiz-adv-x="860" d="M838 147v-81h-59v-66h-107v66h-169v58l135 266l92 -50l-97 -193h39v51h107v-51h59zM490 642h119l-210 -651h-119zM351 378q0 -57 -42 -90.5t-114 -33.5q-63 0 -134 26l7 90q62 -32 110 -32q57 0 57 41q0 20 -16 28t-55 9v71q31 2 45 10.5t14 31.5q0 29 -30 29 q-16 0 -25.5 -9t-16.5 -32l-98 19q24 109 144 109q67 0 102.5 -28t35.5 -74q0 -51 -40 -75q56 -24 56 -90z" />
<glyph unicode="&#xbf;" horiz-adv-x="521" d="M52 16q0 141 139 179l40 11l14 78h72l12 -141l-36 -7q-75 -14 -75 -94q0 -31 15 -50.5t46 -19.5q49 0 70 67l145 -29q-17 -81 -77 -125.5t-154 -44.5q-93 0 -152 48t-59 128zM201 415q0 33 23 56t56 23t56 -23t23 -56t-23 -56t-56 -23t-56 23t-23 56z" />
<glyph unicode="&#xc0;" horiz-adv-x="647" d="M417 633l228 -633h-183l-38 116h-211l-34 -116h-171l166 510h-61v123h304zM246 233h139l-49 152q-23 69 -24 96h-2q-1 -30 -20 -95zM398 723l-13 -44q-76 56 -132 56q-17 0 -37 -4q-20 27 -20 52q0 20 13.5 32t40.5 12q36 0 70 -26.5t78 -77.5z" />
<glyph unicode="&#xc1;" horiz-adv-x="647" d="M417 633l228 -633h-183l-38 116h-211l-34 -116h-171l166 510h-61v123h304zM246 233h139l-49 152q-23 69 -24 96h-2q-1 -30 -20 -95zM406 783q0 -23 -21 -52q-20 4 -35 4q-57 0 -133 -56l-13 44q45 52 78 78t69 26q27 0 41 -12t14 -32z" />
<glyph unicode="&#xc2;" horiz-adv-x="647" d="M417 633l228 -633h-183l-38 116h-211l-34 -116h-171l166 510h-61v123h304zM246 233h139l-49 152q-23 69 -24 96h-2q-1 -30 -20 -95zM356 815l86 -114h-90l-50 66l-51 -66h-90l89 115q15 21 39 21h27q23 0 40 -22z" />
<glyph unicode="&#xc3;" horiz-adv-x="647" d="M417 633l228 -633h-183l-38 116h-211l-34 -116h-171l166 510h-61v123h304zM246 233h139l-49 152q-23 69 -24 96h-2q-1 -30 -20 -95zM373 813h47q0 -25 -2.5 -42t-9.5 -35t-23.5 -27t-42.5 -9q-21 0 -52.5 17.5t-45.5 17.5q-8 0 -16.5 -8.5t-11.5 -26.5h-47q0 25 2.5 42 t9.5 35t23.5 27t42.5 9q21 0 52.5 -17.5t45.5 -17.5q8 0 16.5 8.5t11.5 26.5z" />
<glyph unicode="&#xc4;" horiz-adv-x="647" d="M417 633l228 -633h-183l-38 116h-211l-34 -116h-171l166 510h-61v123h304zM246 233h139l-49 152q-23 69 -24 96h-2q-1 -30 -20 -95zM465 759q0 -27 -19 -45.5t-46 -18.5t-45.5 18.5t-18.5 45.5t18.5 46t45.5 19t46 -19t19 -46zM277 759q0 -27 -18.5 -45.5t-45.5 -18.5 t-46 18.5t-19 45.5t19 46t46 19t45.5 -19t18.5 -46z" />
<glyph unicode="&#xc5;" horiz-adv-x="647" d="M417 633l228 -633h-183l-38 116h-211l-34 -116h-171l166 510h-61v123h304zM246 233h139l-49 152q-23 69 -24 96h-2q-1 -30 -20 -95zM394 771q0 -39 -26.5 -63.5t-63.5 -24.5t-63.5 24.5t-26.5 63.5t26.5 63.5t63.5 24.5t63.5 -24.5t26.5 -63.5zM338 771q0 16 -9.5 26.5 t-24.5 10.5t-24.5 -10.5t-9.5 -26.5t9.5 -26.5t24.5 -10.5t24.5 10.5t9.5 26.5z" />
<glyph unicode="&#xc6;" horiz-adv-x="943" d="M609 123h292l-8 -123h-306h-153v116h-193l-58 -116h-181l269 510h-68v123h675v-123h-269v-127h215v-120h-215v-140zM299 233h135v270z" />
<glyph unicode="&#xc7;" horiz-adv-x="599" d="M425 -98q0 -41 -34.5 -65t-100.5 -23l-15 46q76 3 76 24q0 10 -14.5 17.5t-31.5 12t-31.5 14t-14.5 23.5t11 41q-122 16 -182 103.5t-60 224.5q0 150 74 237q75 88 216 88q106 0 170.5 -52.5t78.5 -140.5l-178 -33q-19 93 -77 93q-48 0 -73 -52.5t-25 -130.5 q0 -98 37 -152.5t111 -54.5q86 0 196 65l-11 -135q-35 -26 -96.5 -44.5t-123.5 -19.5v-6q0 -9 24.5 -17t49 -23t24.5 -40z" />
<glyph unicode="&#xc8;" horiz-adv-x="553" d="M241 123h272l-8 -123h-439v633h424v-123h-249v-128h204v-122h-204v-137zM380 723l-13 -44q-76 56 -132 56q-17 0 -37 -4q-20 27 -20 52q0 20 13.5 32t40.5 12q36 0 70 -26.5t78 -77.5z" />
<glyph unicode="&#xc9;" horiz-adv-x="553" d="M241 123h272l-8 -123h-439v633h424v-123h-249v-128h204v-122h-204v-137zM389 783q0 -23 -21 -52q-20 4 -35 4q-57 0 -133 -56l-13 44q45 52 78 78t69 26q27 0 41 -12t14 -32z" />
<glyph unicode="&#xca;" horiz-adv-x="553" d="M241 123h272l-8 -123h-439v633h424v-123h-249v-128h204v-122h-204v-137zM334 815l86 -114h-90l-50 66l-51 -66h-90l89 115q15 21 39 21h27q23 0 40 -22z" />
<glyph unicode="&#xcb;" horiz-adv-x="553" d="M241 123h272l-8 -123h-439v633h424v-123h-249v-128h204v-122h-204v-137zM439 759q0 -27 -19 -45.5t-46 -18.5t-45.5 18.5t-18.5 45.5t18.5 46t45.5 19t46 -19t19 -46zM251 759q0 -27 -18.5 -45.5t-45.5 -18.5t-46 18.5t-19 45.5t19 46t46 19t45.5 -19t18.5 -46z" />
<glyph unicode="&#xcc;" horiz-adv-x="405" d="M354 91v-91h-303v91h62v447h-62v95h303v-95h-66v-447h66zM303 723l-13 -44q-76 56 -132 56q-17 0 -37 -4q-20 27 -20 52q0 20 13.5 32t40.5 12q36 0 70 -26.5t78 -77.5z" />
<glyph unicode="&#xcd;" horiz-adv-x="405" d="M354 91v-91h-303v91h62v447h-62v95h303v-95h-66v-447h66zM303 783q0 -23 -21 -52q-20 4 -35 4q-57 0 -133 -56l-13 44q45 52 78 78t69 26q27 0 41 -12t14 -32z" />
<glyph unicode="&#xce;" horiz-adv-x="405" d="M354 91v-91h-303v91h62v447h-62v95h303v-95h-66v-447h66zM257 815l86 -114h-90l-50 66l-51 -66h-90l89 115q15 21 39 21h27q23 0 40 -22z" />
<glyph unicode="&#xcf;" horiz-adv-x="405" d="M354 91v-91h-303v91h62v447h-62v95h303v-95h-66v-447h66zM361 759q0 -27 -19 -45.5t-46 -18.5t-45.5 18.5t-18.5 45.5t18.5 46t45.5 19t46 -19t19 -46zM173 759q0 -27 -18.5 -45.5t-45.5 -18.5t-46 18.5t-19 45.5t19 46t46 19t45.5 -19t18.5 -46z" />
<glyph unicode="&#xd0;" horiz-adv-x="670" d="M642 310q0 -169 -93.5 -239.5t-260.5 -70.5h-211v256h-70v123h70v131h-64v123h256q95 0 160 -14t115.5 -49t74 -99t23.5 -161zM458 322q0 111 -40 149.5t-128 38.5h-38v-131h77v-123h-77v-134h53q92 0 122.5 48t30.5 152z" />
<glyph unicode="&#xd1;" horiz-adv-x="669" d="M603 633v-633h-110l-256 303q-20 23 -27 42v-345h-144v633h107l258 -304q20 -24 29 -44v348h143zM413 813h47q0 -25 -2.5 -42t-9.5 -35t-23.5 -27t-42.5 -9q-21 0 -52.5 17.5t-45.5 17.5q-8 0 -16.5 -8.5t-11.5 -26.5h-47q0 25 2.5 42t9.5 35t23.5 27t42.5 9 q21 0 52.5 -17.5t45.5 -17.5q8 0 16.5 8.5t11.5 26.5z" />
<glyph unicode="&#xd2;" horiz-adv-x="646" d="M618 316q0 -149 -77.5 -238.5t-217.5 -89.5t-217.5 89.5t-77.5 238.5t77.5 239t217.5 90t217.5 -90t77.5 -239zM432 316q0 195 -109 195t-109 -195q0 -194 109 -194t109 194zM424 723l-13 -44q-76 56 -132 56q-17 0 -37 -4q-20 27 -20 52q0 20 13.5 32t40.5 12 q36 0 70 -26.5t78 -77.5z" />
<glyph unicode="&#xd3;" horiz-adv-x="646" d="M618 316q0 -149 -77.5 -238.5t-217.5 -89.5t-217.5 89.5t-77.5 238.5t77.5 239t217.5 90t217.5 -90t77.5 -239zM432 316q0 195 -109 195t-109 -195q0 -194 109 -194t109 194zM422 783q0 -23 -21 -52q-20 4 -35 4q-57 0 -133 -56l-13 44q45 52 78 78t69 26q27 0 41 -12 t14 -32z" />
<glyph unicode="&#xd4;" horiz-adv-x="646" d="M618 316q0 -149 -77.5 -238.5t-217.5 -89.5t-217.5 89.5t-77.5 238.5t77.5 239t217.5 90t217.5 -90t77.5 -239zM432 316q0 195 -109 195t-109 -195q0 -194 109 -194t109 194zM377 815l86 -114h-90l-50 66l-51 -66h-90l89 115q15 21 39 21h27q23 0 40 -22z" />
<glyph unicode="&#xd5;" horiz-adv-x="646" d="M618 316q0 -149 -77.5 -238.5t-217.5 -89.5t-217.5 89.5t-77.5 238.5t77.5 239t217.5 90t217.5 -90t77.5 -239zM432 316q0 195 -109 195t-109 -195q0 -194 109 -194t109 194zM401 813h47q0 -25 -2.5 -42t-9.5 -35t-23.5 -27t-42.5 -9q-21 0 -52.5 17.5t-45.5 17.5 q-8 0 -16.5 -8.5t-11.5 -26.5h-47q0 25 2.5 42t9.5 35t23.5 27t42.5 9q21 0 52.5 -17.5t45.5 -17.5q8 0 16.5 8.5t11.5 26.5z" />
<glyph unicode="&#xd6;" horiz-adv-x="646" d="M618 316q0 -149 -77.5 -238.5t-217.5 -89.5t-217.5 89.5t-77.5 238.5t77.5 239t217.5 90t217.5 -90t77.5 -239zM432 316q0 195 -109 195t-109 -195q0 -194 109 -194t109 194zM481 759q0 -27 -19 -45.5t-46 -18.5t-45.5 18.5t-18.5 45.5t18.5 46t45.5 19t46 -19t19 -46z M293 759q0 -27 -18.5 -45.5t-45.5 -18.5t-46 18.5t-19 45.5t19 46t46 19t45.5 -19t18.5 -46z" />
<glyph unicode="&#xd7;" horiz-adv-x="540" d="M368 500l81 -80l-96 -96l93 -93l-85 -85l-93 93l-97 -97l-80 81l96 96l-93 94l85 85l93 -94z" />
<glyph unicode="&#xd8;" horiz-adv-x="646" d="M618 316q0 -149 -77.5 -238.5t-217.5 -89.5q-51 0 -98 14l-32 -71h-89l48 105q-124 86 -124 280q0 149 77.5 239t217.5 90q52 0 99 -14l32 71h89l-48 -106q123 -85 123 -280zM227 202l137 301q-19 8 -41 8q-109 0 -109 -195q0 -72 13 -114zM432 316q0 71 -13 113 l-136 -299q19 -8 40 -8q109 0 109 194z" />
<glyph unicode="&#xd9;" horiz-adv-x="653" d="M588 633v-403q0 -104 -47 -161q-66 -81 -216 -81q-152 0 -213 74q-47 54 -47 163v408h175v-400q0 -52 18 -77q21 -29 71 -29q46 0 68 25q21 25 21 79v402h170zM432 723l-13 -44q-76 56 -132 56q-17 0 -37 -4q-20 27 -20 52q0 20 13.5 32t40.5 12q36 0 70 -26.5t78 -77.5z " />
<glyph unicode="&#xda;" horiz-adv-x="653" d="M588 633v-403q0 -104 -47 -161q-66 -81 -216 -81q-152 0 -213 74q-47 54 -47 163v408h175v-400q0 -52 18 -77q21 -29 71 -29q46 0 68 25q21 25 21 79v402h170zM433 783q0 -23 -21 -52q-20 4 -35 4q-57 0 -133 -56l-13 44q45 52 78 78t69 26q27 0 41 -12t14 -32z" />
<glyph unicode="&#xdb;" horiz-adv-x="653" d="M588 633v-403q0 -104 -47 -161q-66 -81 -216 -81q-152 0 -213 74q-47 54 -47 163v408h175v-400q0 -52 18 -77q21 -29 71 -29q46 0 68 25q21 25 21 79v402h170zM383 815l86 -114h-90l-50 66l-51 -66h-90l89 115q15 21 39 21h27q23 0 40 -22z" />
<glyph unicode="&#xdc;" horiz-adv-x="653" d="M588 633v-403q0 -104 -47 -161q-66 -81 -216 -81q-152 0 -213 74q-47 54 -47 163v408h175v-400q0 -52 18 -77q21 -29 71 -29q46 0 68 25q21 25 21 79v402h170zM485 759q0 -27 -19 -45.5t-46 -18.5t-45.5 18.5t-18.5 45.5t18.5 46t45.5 19t46 -19t19 -46zM297 759 q0 -27 -18.5 -45.5t-45.5 -18.5t-46 18.5t-19 45.5t19 46t46 19t45.5 -19t18.5 -46z" />
<glyph unicode="&#xdd;" horiz-adv-x="638" d="M462 633h172l-229 -416v-217h-175v218l-229 415h197l109 -209q23 -43 26 -77h1q4 37 24 75zM439 783q0 -23 -21 -52q-20 4 -35 4q-57 0 -133 -56l-13 44q45 52 78 78t69 26q27 0 41 -12t14 -32z" />
<glyph unicode="&#xde;" horiz-adv-x="620" d="M598 309q0 -62 -21.5 -105t-61.5 -65.5t-87 -32t-109 -9.5h-78v-97h-175v633h175v-112h82q133 0 204 -49.5t71 -162.5zM417 309q0 65 -30 84t-97 19h-49v-206h49q69 0 98 19t29 84z" />
<glyph unicode="&#xdf;" horiz-adv-x="714" d="M682 151q0 -79 -55 -119.5t-150 -40.5q-108 0 -184 33v125q33 -20 81.5 -33t87.5 -13q65 0 65 32q0 15 -18 24.5t-44.5 14t-58 14.5t-58 24t-44.5 44.5t-18 74.5q0 71 50 112.5t120 41.5q-10 98 -101 98q-62 0 -87 -43q-18 -30 -18 -107v-433h-168v368h-78v117h78 q0 109 79 164q68 47 194 47q118 0 189.5 -60.5t71.5 -172.5q0 -51 -8 -85q-33 7 -93 7q-73 0 -73 -36q0 -16 24.5 -25t60 -17t71 -22t60 -48t24.5 -86z" />
<glyph unicode="&#xe0;" horiz-adv-x="565" d="M552 114l-6 -92q-44 -30 -109 -30q-75 0 -95 54q-44 -55 -135 -55q-79 0 -124.5 41.5t-45.5 117.5q0 77 51 119t135 42q52 0 97 -17v14q0 43 -16 60q-20 21 -70 21q-80 0 -154 -38v110q82 33 180 33q122 0 181 -50q47 -40 47 -130v-186q0 -27 23 -27q24 0 41 13zM320 154 v63q-29 11 -52 11q-61 0 -61 -68q0 -31 15.5 -47.5t43.5 -16.5q26 0 39 15q15 15 15 43zM380 563l-13 -44q-76 56 -132 56q-17 0 -37 -4q-20 27 -20 52q0 20 13.5 32t40.5 12q36 0 70 -26.5t78 -77.5z" />
<glyph unicode="&#xe1;" horiz-adv-x="565" d="M552 114l-6 -92q-44 -30 -109 -30q-75 0 -95 54q-44 -55 -135 -55q-79 0 -124.5 41.5t-45.5 117.5q0 77 51 119t135 42q52 0 97 -17v14q0 43 -16 60q-20 21 -70 21q-80 0 -154 -38v110q82 33 180 33q122 0 181 -50q47 -40 47 -130v-186q0 -27 23 -27q24 0 41 13zM320 154 v63q-29 11 -52 11q-61 0 -61 -68q0 -31 15.5 -47.5t43.5 -16.5q26 0 39 15q15 15 15 43zM380 623q0 -23 -21 -52q-20 4 -35 4q-57 0 -133 -56l-13 44q45 52 78 78t69 26q27 0 41 -12t14 -32z" />
<glyph unicode="&#xe2;" horiz-adv-x="565" d="M552 114l-6 -92q-44 -30 -109 -30q-75 0 -95 54q-44 -55 -135 -55q-79 0 -124.5 41.5t-45.5 117.5q0 77 51 119t135 42q52 0 97 -17v14q0 43 -16 60q-20 21 -70 21q-80 0 -154 -38v110q82 33 180 33q122 0 181 -50q47 -40 47 -130v-186q0 -27 23 -27q24 0 41 13zM320 154 v63q-29 11 -52 11q-61 0 -61 -68q0 -31 15.5 -47.5t43.5 -16.5q26 0 39 15q15 15 15 43zM329 649l86 -114h-90l-50 66l-51 -66h-90l89 115q15 21 39 21h27q23 0 40 -22z" />
<glyph unicode="&#xe3;" horiz-adv-x="565" d="M552 114l-6 -92q-44 -30 -109 -30q-75 0 -95 54q-44 -55 -135 -55q-79 0 -124.5 41.5t-45.5 117.5q0 77 51 119t135 42q52 0 97 -17v14q0 43 -16 60q-20 21 -70 21q-80 0 -154 -38v110q82 33 180 33q122 0 181 -50q47 -40 47 -130v-186q0 -27 23 -27q24 0 41 13zM320 154 v63q-29 11 -52 11q-61 0 -61 -68q0 -31 15.5 -47.5t43.5 -16.5q26 0 39 15q15 15 15 43zM358 661h47q0 -25 -2.5 -42t-9.5 -35t-23.5 -27t-42.5 -9q-21 0 -52.5 17.5t-45.5 17.5q-8 0 -16.5 -8.5t-11.5 -26.5h-47q0 25 2.5 42t9.5 35t23.5 27t42.5 9q21 0 52.5 -17.5 t45.5 -17.5q8 0 16.5 8.5t11.5 26.5z" />
<glyph unicode="&#xe4;" horiz-adv-x="565" d="M552 114l-6 -92q-44 -30 -109 -30q-75 0 -95 54q-44 -55 -135 -55q-79 0 -124.5 41.5t-45.5 117.5q0 77 51 119t135 42q52 0 97 -17v14q0 43 -16 60q-20 21 -70 21q-80 0 -154 -38v110q82 33 180 33q122 0 181 -50q47 -40 47 -130v-186q0 -27 23 -27q24 0 41 13zM320 154 v63q-29 11 -52 11q-61 0 -61 -68q0 -31 15.5 -47.5t43.5 -16.5q26 0 39 15q15 15 15 43zM436 612q0 -27 -19 -45.5t-46 -18.5t-45.5 18.5t-18.5 45.5t18.5 46t45.5 19t46 -19t19 -46zM248 612q0 -27 -18.5 -45.5t-45.5 -18.5t-46 18.5t-19 45.5t19 46t46 19t45.5 -19 t18.5 -46z" />
<glyph unicode="&#xe5;" horiz-adv-x="565" d="M552 114l-6 -92q-44 -30 -109 -30q-75 0 -95 54q-44 -55 -135 -55q-79 0 -124.5 41.5t-45.5 117.5q0 77 51 119t135 42q52 0 97 -17v14q0 43 -16 60q-20 21 -70 21q-80 0 -154 -38v110q82 33 180 33q122 0 181 -50q47 -40 47 -130v-186q0 -27 23 -27q24 0 41 13zM320 154 v63q-29 11 -52 11q-61 0 -61 -68q0 -31 15.5 -47.5t43.5 -16.5q26 0 39 15q15 15 15 43zM368 623q0 -39 -26.5 -63.5t-63.5 -24.5t-63.5 24.5t-26.5 63.5t26.5 63.5t63.5 24.5t63.5 -24.5t26.5 -63.5zM312 623q0 16 -9.5 26.5t-24.5 10.5t-24.5 -10.5t-9.5 -26.5t9.5 -26.5 t24.5 -10.5t24.5 10.5t9.5 26.5z" />
<glyph unicode="&#xe6;" horiz-adv-x="828" d="M795 277q0 -49 -18 -68q-15 -16 -50 -16h-235q17 -90 116 -90q91 0 165 51l-6 -107q-76 -56 -197 -56q-124 0 -190 71q-56 -71 -172 -71q-79 0 -125 41.5t-46 117.5q0 77 51 119t135 42q52 0 97 -17v14q0 42 -16 59q-22 22 -70 22q-78 0 -154 -38v110q82 33 180 33 q112 0 158 -58q56 58 148 58q104 0 166.5 -59t62.5 -158zM632 287q0 41 -18 69.5t-54 28.5q-32 0 -52 -26.5t-20 -77.5v-7h133q11 0 11 13zM320 154v47q-1 6 -1 17q-26 10 -51 10q-61 0 -61 -68q0 -31 15.5 -47.5t43.5 -16.5q26 0 39 15q15 15 15 43z" />
<glyph unicode="&#xe7;" horiz-adv-x="505" d="M369 -98q0 -41 -34.5 -65t-100.5 -23l-15 46q76 3 76 24q0 10 -14.5 17.5t-31.5 12t-31.5 14t-14.5 23.5t12 45q-91 14 -141 76.5t-50 164.5q0 117 63 187t178 70q90 0 146 -41q53 -39 68 -125l-152 -31q-9 45 -21 65.5t-40 20.5q-34 0 -53 -36.5t-19 -98.5 q0 -143 115 -143q81 0 155 48l-5 -112q-82 -50 -186 -50h-1q-1 -3 -1 -9q0 -9 24.5 -17t49 -23t24.5 -40z" />
<glyph unicode="&#xe8;" horiz-adv-x="534" d="M501 277q0 -49 -18 -68q-15 -16 -50 -16h-235q17 -90 116 -90q91 0 165 51l-6 -107q-76 -56 -197 -56q-119 0 -185.5 66.5t-66.5 182.5q0 119 67.5 186.5t174.5 67.5q105 0 170 -58.5t65 -158.5zM338 287q0 41 -18 69.5t-54 28.5q-33 0 -52 -28.5t-20 -82.5h133 q11 0 11 13zM372 563l-13 -44q-76 56 -132 56q-17 0 -37 -4q-20 27 -20 52q0 20 13.5 32t40.5 12q36 0 70 -26.5t78 -77.5z" />
<glyph unicode="&#xe9;" horiz-adv-x="534" d="M501 277q0 -49 -18 -68q-15 -16 -50 -16h-235q17 -90 116 -90q91 0 165 51l-6 -107q-76 -56 -197 -56q-119 0 -185.5 66.5t-66.5 182.5q0 119 67.5 186.5t174.5 67.5q105 0 170 -58.5t65 -158.5zM338 287q0 41 -18 69.5t-54 28.5q-33 0 -52 -28.5t-20 -82.5h133 q11 0 11 13zM363 623q0 -23 -21 -52q-20 4 -35 4q-57 0 -133 -56l-13 44q45 52 78 78t69 26q27 0 41 -12t14 -32z" />
<glyph unicode="&#xea;" horiz-adv-x="534" d="M501 277q0 -49 -18 -68q-15 -16 -50 -16h-235q17 -90 116 -90q91 0 165 51l-6 -107q-76 -56 -197 -56q-119 0 -185.5 66.5t-66.5 182.5q0 119 67.5 186.5t174.5 67.5q105 0 170 -58.5t65 -158.5zM338 287q0 41 -18 69.5t-54 28.5q-33 0 -52 -28.5t-20 -82.5h133 q11 0 11 13zM321 649l86 -114h-90l-50 66l-51 -66h-90l89 115q15 21 39 21h27q23 0 40 -22z" />
<glyph unicode="&#xeb;" horiz-adv-x="534" d="M501 277q0 -49 -18 -68q-15 -16 -50 -16h-235q17 -90 116 -90q91 0 165 51l-6 -107q-76 -56 -197 -56q-119 0 -185.5 66.5t-66.5 182.5q0 119 67.5 186.5t174.5 67.5q105 0 170 -58.5t65 -158.5zM338 287q0 41 -18 69.5t-54 28.5q-33 0 -52 -28.5t-20 -82.5h133 q11 0 11 13zM425 612q0 -27 -19 -45.5t-46 -18.5t-45.5 18.5t-18.5 45.5t18.5 46t45.5 19t46 -19t19 -46zM237 612q0 -27 -18.5 -45.5t-45.5 -18.5t-46 18.5t-19 45.5t19 46t46 19t45.5 -19t18.5 -46z" />
<glyph unicode="&#xec;" horiz-adv-x="337" d="M312 114l-5 -92q-44 -30 -108 -30q-75 0 -102 43q-17 27 -17 81v252h-59v117h227v-357q0 -27 23 -27q24 0 41 13zM241 563l-13 -44q-76 56 -132 56q-17 0 -37 -4q-20 27 -20 52q0 20 13.5 32t40.5 12q36 0 70 -26.5t78 -77.5z" />
<glyph unicode="&#xed;" horiz-adv-x="337" d="M312 114l-5 -92q-44 -30 -108 -30q-75 0 -102 43q-17 27 -17 81v252h-59v117h227v-357q0 -27 23 -27q24 0 41 13zM247 623q0 -23 -21 -52q-20 4 -35 4q-57 0 -133 -56l-13 44q45 52 78 78t69 26q27 0 41 -12t14 -32z" />
<glyph unicode="&#xee;" horiz-adv-x="337" d="M312 114l-5 -92q-44 -30 -108 -30q-75 0 -102 43q-17 27 -17 81v252h-59v117h227v-357q0 -27 23 -27q24 0 41 13zM223 649l86 -114h-90l-50 66l-51 -66h-90l89 115q15 21 39 21h27q23 0 40 -22z" />
<glyph unicode="&#xef;" horiz-adv-x="337" d="M312 114l-5 -92q-44 -30 -108 -30q-75 0 -102 43q-17 27 -17 81v252h-59v117h227v-357q0 -27 23 -27q24 0 41 13zM324 612q0 -27 -19 -45.5t-46 -18.5t-45.5 18.5t-18.5 45.5t18.5 46t45.5 19t46 -19t19 -46zM136 612q0 -27 -18.5 -45.5t-45.5 -18.5t-46 18.5t-19 45.5 t19 46t46 19t45.5 -19t18.5 -46z" />
<glyph unicode="&#xf0;" d="M547 284q0 -134 -65 -215t-193 -81q-116 0 -179 66t-63 171q0 106 58 161t152 55q58 0 108 -23q-9 66 -46 99l-24 -55l-50 20l26 61q-32 10 -92 12l13 90q68 0 118 -11l28 65l50 -20l-26 -61q185 -71 185 -334zM377 256q0 7 -1.5 31.5t-1.5 30.5q-35 20 -77 20 q-40 0 -63.5 -29.5t-23.5 -84.5q0 -58 22.5 -87t58.5 -29q86 0 86 148z" />
<glyph unicode="&#xf1;" horiz-adv-x="584" d="M533 320v-320h-168v294q0 35 -9 50q-14 25 -49 25q-37 0 -54 -28q-13 -19 -13 -61v-280h-168v368h-59v117h158l30 -68q25 36 69.5 56.5t95.5 20.5q105 0 145 -68q22 -37 22 -106zM372 661h47q0 -25 -2.5 -42t-9.5 -35t-23.5 -27t-42.5 -9q-21 0 -52.5 17.5t-45.5 17.5 q-8 0 -16.5 -8.5t-11.5 -26.5h-47q0 25 2.5 42t9.5 35t23.5 27t42.5 9q21 0 52.5 -17.5t45.5 -17.5q8 0 16.5 8.5t11.5 26.5z" />
<glyph unicode="&#xf2;" horiz-adv-x="546" d="M522 242q0 -115 -65.5 -183t-183.5 -68t-183.5 68t-65.5 183t65.5 183.5t183.5 68.5t183.5 -68.5t65.5 -183.5zM352 242q0 72 -17.5 106t-61.5 34t-61.5 -34t-17.5 -106q0 -71 17.5 -105t61.5 -34t61.5 34t17.5 105zM374 563l-13 -44q-76 56 -132 56q-17 0 -37 -4 q-20 27 -20 52q0 20 13.5 32t40.5 12q36 0 70 -26.5t78 -77.5z" />
<glyph unicode="&#xf3;" horiz-adv-x="546" d="M522 242q0 -115 -65.5 -183t-183.5 -68t-183.5 68t-65.5 183t65.5 183.5t183.5 68.5t183.5 -68.5t65.5 -183.5zM352 242q0 72 -17.5 106t-61.5 34t-61.5 -34t-17.5 -106q0 -71 17.5 -105t61.5 -34t61.5 34t17.5 105zM374 623q0 -23 -21 -52q-20 4 -35 4q-57 0 -133 -56 l-13 44q45 52 78 78t69 26q27 0 41 -12t14 -32z" />
<glyph unicode="&#xf4;" horiz-adv-x="546" d="M522 242q0 -115 -65.5 -183t-183.5 -68t-183.5 68t-65.5 183t65.5 183.5t183.5 68.5t183.5 -68.5t65.5 -183.5zM352 242q0 72 -17.5 106t-61.5 34t-61.5 -34t-17.5 -106q0 -71 17.5 -105t61.5 -34t61.5 34t17.5 105zM327 649l86 -114h-90l-50 66l-51 -66h-90l89 115 q15 21 39 21h27q23 0 40 -22z" />
<glyph unicode="&#xf5;" horiz-adv-x="546" d="M522 242q0 -115 -65.5 -183t-183.5 -68t-183.5 68t-65.5 183t65.5 183.5t183.5 68.5t183.5 -68.5t65.5 -183.5zM352 242q0 72 -17.5 106t-61.5 34t-61.5 -34t-17.5 -106q0 -71 17.5 -105t61.5 -34t61.5 34t17.5 105zM351 661h47q0 -25 -2.5 -42t-9.5 -35t-23.5 -27 t-42.5 -9q-21 0 -52.5 17.5t-45.5 17.5q-8 0 -16.5 -8.5t-11.5 -26.5h-47q0 25 2.5 42t9.5 35t23.5 27t42.5 9q21 0 52.5 -17.5t45.5 -17.5q8 0 16.5 8.5t11.5 26.5z" />
<glyph unicode="&#xf6;" horiz-adv-x="546" d="M522 242q0 -115 -65.5 -183t-183.5 -68t-183.5 68t-65.5 183t65.5 183.5t183.5 68.5t183.5 -68.5t65.5 -183.5zM352 242q0 72 -17.5 106t-61.5 34t-61.5 -34t-17.5 -106q0 -71 17.5 -105t61.5 -34t61.5 34t17.5 105zM431 612q0 -27 -19 -45.5t-46 -18.5t-45.5 18.5 t-18.5 45.5t18.5 46t45.5 19t46 -19t19 -46zM243 612q0 -27 -18.5 -45.5t-45.5 -18.5t-46 18.5t-19 45.5t19 46t46 19t45.5 -19t18.5 -46z" />
<glyph unicode="&#xf7;" horiz-adv-x="540" d="M351 475q0 -31 -22.5 -53t-53.5 -22t-53.5 22t-22.5 53t22.5 53t53.5 22t53.5 -22t22.5 -53zM467 378v-114h-393v114h393zM351 166q0 -31 -22.5 -53.5t-53.5 -22.5t-53.5 22.5t-22.5 53.5t22.5 53t53.5 22t53.5 -22t22.5 -53z" />
<glyph unicode="&#xf8;" horiz-adv-x="546" d="M522 242q0 -115 -65.5 -183t-183.5 -68q-37 0 -74 8l-31 -68h-75l42 93q-111 63 -111 218q0 115 65.5 183.5t183.5 68.5q37 0 72 -8l29 63h75l-40 -87q113 -63 113 -220zM200 167l97 212q-11 3 -24 3q-44 0 -61.5 -34t-17.5 -106q0 -51 6 -75zM352 242q0 49 -7 78 l-97 -214q10 -3 25 -3q44 0 61.5 34t17.5 105z" />
<glyph unicode="&#xf9;" d="M577 114l-6 -90q-49 -32 -109 -32q-32 0 -58.5 14t-38.5 40q-25 -24 -65.5 -39.5t-80.5 -15.5q-105 0 -145 68q-22 37 -22 106v320h168v-294q0 -35 9 -50q14 -25 49 -25q36 0 54 28q13 19 13 61v280h168v-357q0 -27 23 -27q24 0 41 13zM386 563l-13 -44q-76 56 -132 56 q-17 0 -37 -4q-20 27 -20 52q0 20 13.5 32t40.5 12q36 0 70 -26.5t78 -77.5z" />
<glyph unicode="&#xfa;" d="M577 114l-6 -90q-49 -32 -109 -32q-32 0 -58.5 14t-38.5 40q-25 -24 -65.5 -39.5t-80.5 -15.5q-105 0 -145 68q-22 37 -22 106v320h168v-294q0 -35 9 -50q14 -25 49 -25q36 0 54 28q13 19 13 61v280h168v-357q0 -27 23 -27q24 0 41 13zM384 623q0 -23 -21 -52 q-20 4 -35 4q-57 0 -133 -56l-13 44q45 52 78 78t69 26q27 0 41 -12t14 -32z" />
<glyph unicode="&#xfb;" d="M577 114l-6 -90q-49 -32 -109 -32q-32 0 -58.5 14t-38.5 40q-25 -24 -65.5 -39.5t-80.5 -15.5q-105 0 -145 68q-22 37 -22 106v320h168v-294q0 -35 9 -50q14 -25 49 -25q36 0 54 28q13 19 13 61v280h168v-357q0 -27 23 -27q24 0 41 13zM338 649l86 -114h-90l-50 66 l-51 -66h-90l89 115q15 21 39 21h27q23 0 40 -22z" />
<glyph unicode="&#xfc;" d="M577 114l-6 -90q-49 -32 -109 -32q-32 0 -58.5 14t-38.5 40q-25 -24 -65.5 -39.5t-80.5 -15.5q-105 0 -145 68q-22 37 -22 106v320h168v-294q0 -35 9 -50q14 -25 49 -25q36 0 54 28q13 19 13 61v280h168v-357q0 -27 23 -27q24 0 41 13zM442 612q0 -27 -19 -45.5 t-46 -18.5t-45.5 18.5t-18.5 45.5t18.5 46t45.5 19t46 -19t19 -46zM254 612q0 -27 -18.5 -45.5t-45.5 -18.5t-46 18.5t-19 45.5t19 46t46 19t45.5 -19t18.5 -46z" />
<glyph unicode="&#xfd;" horiz-adv-x="568" d="M512 485v-459q0 -119 -47 -173q-56 -65 -183 -65q-115 0 -210 50l12 119q84 -51 165 -51q51 0 73 23t22 74v36q-50 -48 -125 -48q-106 0 -146 68q-22 37 -22 106v320h168v-294q0 -35 9 -50q14 -25 49 -25q37 0 54 28q13 19 13 61v280h168zM387 623q0 -23 -21 -52 q-20 4 -35 4q-57 0 -133 -56l-13 44q45 52 78 78t69 26q27 0 41 -12t14 -32z" />
<glyph unicode="&#xfe;" horiz-adv-x="571" d="M546 243q0 -123 -49.5 -187.5t-144.5 -64.5q-71 0 -121 41v-231h-168v882h168v-230q50 41 121 41q94 0 144 -63.5t50 -187.5zM376 242q0 129 -77 129q-38 0 -55 -29q-13 -21 -13 -67v-65q0 -46 13 -67q17 -29 55 -29q77 0 77 128z" />
<glyph unicode="&#xff;" horiz-adv-x="568" d="M512 485v-459q0 -119 -47 -173q-56 -65 -183 -65q-115 0 -210 50l12 119q84 -51 165 -51q51 0 73 23t22 74v36q-50 -48 -125 -48q-106 0 -146 68q-22 37 -22 106v320h168v-294q0 -35 9 -50q14 -25 49 -25q37 0 54 28q13 19 13 61v280h168zM442 612q0 -27 -19 -45.5 t-46 -18.5t-45.5 18.5t-18.5 45.5t18.5 46t45.5 19t46 -19t19 -46zM254 612q0 -27 -18.5 -45.5t-45.5 -18.5t-46 18.5t-19 45.5t19 46t46 19t45.5 -19t18.5 -46z" />
<glyph unicode="&#x152;" horiz-adv-x="939" d="M605 123h292l-8 -123h-377q-31 0 -85 -6t-86 -6q-142 0 -224.5 90.5t-82.5 237.5t83 238t224 91q33 0 86.5 -6t89.5 -6h357v-123h-269v-127h215v-120h-215v-140zM430 182v267q0 62 -89 62q-56 0 -89 -48.5t-33 -146.5t33 -146t89 -48q89 0 89 60z" />
<glyph unicode="&#x153;" horiz-adv-x="863" d="M830 277q0 -49 -18 -68q-15 -16 -50 -16h-236q17 -90 117 -90q91 0 165 51l-6 -107q-77 -56 -191 -56q-62 0 -108 18t-66 49q-49 -67 -171 -67q-116 0 -179 67.5t-63 183.5t63 184t179 68q123 0 171 -70q26 34 71.5 52t96.5 18q99 0 162 -59t63 -158zM667 287 q0 42 -16 70t-52 28t-56 -29t-21 -82h134q11 0 11 13zM352 242q0 72 -17.5 106t-61.5 34t-61.5 -34t-17.5 -106q0 -71 17.5 -105t61.5 -34t61.5 34t17.5 105z" />
<glyph unicode="&#x178;" horiz-adv-x="638" d="M462 633h172l-229 -416v-217h-175v218l-229 415h197l109 -209q23 -43 26 -77h1q4 37 24 75zM480 759q0 -27 -19 -45.5t-46 -18.5t-45.5 18.5t-18.5 45.5t18.5 46t45.5 19t46 -19t19 -46zM292 759q0 -27 -18.5 -45.5t-45.5 -18.5t-46 18.5t-19 45.5t19 46t46 19t45.5 -19 t18.5 -46z" />
<glyph unicode="&#x2c6;" horiz-adv-x="337" d="M223 649l86 -114h-90l-50 66l-51 -66h-90l89 115q15 21 39 21h27q23 0 40 -22z" />
<glyph unicode="&#x2dc;" horiz-adv-x="337" d="M247 661h47q0 -25 -2.5 -42t-9.5 -35t-23.5 -27t-42.5 -9q-21 0 -52.5 17.5t-45.5 17.5q-8 0 -16.5 -8.5t-11.5 -26.5h-47q0 25 2.5 42t9.5 35t23.5 27t42.5 9q21 0 52.5 -17.5t45.5 -17.5q8 0 16.5 8.5t11.5 26.5z" />
<glyph unicode="&#x2000;" horiz-adv-x="429" />
<glyph unicode="&#x2001;" horiz-adv-x="859" />
<glyph unicode="&#x2002;" horiz-adv-x="429" />
<glyph unicode="&#x2003;" horiz-adv-x="859" />
<glyph unicode="&#x2004;" horiz-adv-x="286" />
<glyph unicode="&#x2005;" horiz-adv-x="214" />
<glyph unicode="&#x2006;" horiz-adv-x="143" />
<glyph unicode="&#x2007;" horiz-adv-x="143" />
<glyph unicode="&#x2008;" horiz-adv-x="107" />
<glyph unicode="&#x2009;" horiz-adv-x="171" />
<glyph unicode="&#x200a;" horiz-adv-x="47" />
<glyph unicode="&#x2010;" horiz-adv-x="420" d="M354 306v-123h-287v123h287z" />
<glyph unicode="&#x2011;" horiz-adv-x="420" d="M354 306v-123h-287v123h287z" />
<glyph unicode="&#x2012;" horiz-adv-x="420" d="M354 306v-123h-287v123h287z" />
<glyph unicode="&#x2013;" horiz-adv-x="500" d="M500 299v-92h-500v92h500z" />
<glyph unicode="&#x2014;" horiz-adv-x="1000" d="M1000 299v-92h-1000v92h1000z" />
<glyph unicode="&#x2018;" horiz-adv-x="264" d="M183 645l41 -49q-63 -41 -75 -89q27 -7 44 -26t17 -47q0 -32 -22 -53.5t-56 -21.5q-39 0 -62.5 24.5t-23.5 66.5q0 59 38 113.5t99 81.5z" />
<glyph unicode="&#x2019;" horiz-adv-x="264" d="M218 554q0 -59 -38 -113.5t-99 -81.5l-41 49q63 41 75 89q-27 7 -44 26t-17 47q0 32 22 53.5t56 21.5q39 0 62.5 -24.5t23.5 -66.5z" />
<glyph unicode="&#x201a;" horiz-adv-x="264" d="M218 30q0 -59 -38 -113.5t-99 -81.5l-41 49q63 41 75 89q-27 7 -44 26t-17 47q0 32 22 53.5t56 21.5q39 0 62.5 -24.5t23.5 -66.5z" />
<glyph unicode="&#x201c;" horiz-adv-x="457" d="M376 645l41 -49q-63 -41 -75 -89q27 -7 44 -26t17 -47q0 -32 -22 -53.5t-56 -21.5q-39 0 -62.5 24.5t-23.5 66.5q0 59 38 113.5t99 81.5zM183 645l41 -49q-63 -41 -75 -89q27 -7 44 -26t17 -47q0 -32 -22 -53.5t-56 -21.5q-39 0 -62.5 24.5t-23.5 66.5q0 59 38 113.5 t99 81.5z" />
<glyph unicode="&#x201d;" horiz-adv-x="457" d="M411 554q0 -59 -38 -113.5t-99 -81.5l-41 49q63 41 75 89q-27 7 -44 26t-17 47q0 32 22 53.5t56 21.5q39 0 62.5 -24.5t23.5 -66.5zM218 554q0 -59 -38 -113.5t-99 -81.5l-41 49q63 41 75 89q-27 7 -44 26t-17 47q0 32 22 53.5t56 21.5q39 0 62.5 -24.5t23.5 -66.5z" />
<glyph unicode="&#x201e;" horiz-adv-x="457" d="M411 30q0 -59 -38 -113.5t-99 -81.5l-41 49q63 41 75 89q-27 7 -44 26t-17 47q0 32 22 53.5t56 21.5q39 0 62.5 -24.5t23.5 -66.5zM218 30q0 -59 -38 -113.5t-99 -81.5l-41 49q63 41 75 89q-27 7 -44 26t-17 47q0 32 22 53.5t56 21.5q39 0 62.5 -24.5t23.5 -66.5z" />
<glyph unicode="&#x2022;" horiz-adv-x="393" d="M327 312q0 -54 -38.5 -92.5t-92.5 -38.5t-92 38.5t-38 92.5t38 92t92 38t92.5 -38t38.5 -92z" />
<glyph unicode="&#x2026;" horiz-adv-x="736" d="M686 70q0 -33 -23 -56t-56 -23t-56 23t-23 56t23 56t56 23t56 -23t23 -56zM447 70q0 -33 -23 -56t-56 -23t-56 23t-23 56t23 56t56 23t56 -23t23 -56zM208 70q0 -33 -23 -56t-56 -23t-56 23t-23 56t23 56t56 23t56 -23t23 -56z" />
<glyph unicode="&#x202f;" horiz-adv-x="171" />
<glyph unicode="&#x2039;" horiz-adv-x="353" d="M186 242l85 -108l-31 -90l-163 166q-15 15 -15 32t15 32l163 166l31 -90z" />
<glyph unicode="&#x203a;" horiz-adv-x="353" d="M291 242q0 -17 -15 -32l-163 -166l-31 90l85 108l-85 108l31 90l163 -166q15 -15 15 -32z" />
<glyph unicode="&#x205f;" horiz-adv-x="214" />
<glyph unicode="&#x20ac;" d="M559 452l-159 -33q-17 93 -69 93q-59 0 -80 -100h106v-85h-114q0 -16 2 -44h112v-85h-91q35 -76 109 -76q82 0 175 63l-9 -135q-31 -26 -87.5 -44t-113.5 -18q-103 0 -165.5 56t-85.5 154h-77v85h66q-1 13 -1 44h-65v85h74q19 110 82.5 171.5t167.5 61.5q95 0 153 -52.5 t70 -140.5z" />
<glyph unicode="&#x2122;" horiz-adv-x="753" d="M697 633v-316h-78v160l-72 -160h-43l-74 160v-160h-79v316h92l87 -184l82 184h85zM313 633v-66h-96v-250h-93v250h-96v66h285z" />
<glyph unicode="&#x25fc;" horiz-adv-x="485" d="M0 485h485v-485h-485v485z" />
</font>
</defs>
</svg>
