<?xml version="1.0" standalone="no"?>
<!DOCTYPE svg PUBLIC "-//W3C//DTD SVG 1.1//EN" "http://www.w3.org/Graphics/SVG/1.1/DTD/svg11.dtd" >
<svg xmlns="http://www.w3.org/2000/svg" xmlns:xlink="http://www.w3.org/1999/xlink" version="1.1">
<metadata></metadata>
<defs>
<font id="fs_lolamedium" horiz-adv-x="526" >
<font-face units-per-em="1000" ascent="750" descent="-250" />
<missing-glyph horiz-adv-x="220" />
<glyph unicode="&#xfb01;" horiz-adv-x="582" d="M491 621q0 -25 -17.5 -42t-41.5 -17t-41 17t-17 42t17 41.5t41 16.5t41.5 -17t17.5 -41zM547 75l-4 -60q-27 -20 -70 -20q-44 0 -66 25q-18 21 -18 73v320h-205v-413h-98v413h-73v72h73v56q0 80 34 115q37 40 115 40q56 0 97 -14l-13 -65q-27 9 -65 9q-42 0 -57 -23 q-13 -19 -13 -66v-52h303v-390q0 -32 24 -32q20 0 36 12z" />
<glyph unicode="&#xfb02;" horiz-adv-x="592" d="M557 75l-4 -60q-27 -20 -70 -20q-44 0 -66 25q-18 21 -18 73v591h98v-589q0 -32 24 -32q20 0 36 12zM324 681v-67q-36 12 -72 12q-40 0 -55 -23q-13 -20 -13 -64v-54h120v-72h-120v-413h-98v413h-73v72h73v56q0 80 34 115q37 40 116 40q46 0 88 -15z" />
<glyph horiz-adv-x="0" />
<glyph horiz-adv-x="333" />
<glyph unicode=" "  horiz-adv-x="220" />
<glyph unicode="&#x09;" horiz-adv-x="220" />
<glyph unicode="&#xa0;" horiz-adv-x="220" />
<glyph unicode="!" horiz-adv-x="280" d="M196 587v-8l-35 -390h-42l-35 390v8q0 26 15 40.5t41 14.5t41 -14.5t15 -40.5zM196 49q0 -23 -16.5 -39.5t-39.5 -16.5t-39.5 16.5t-16.5 39.5t16.5 39.5t39.5 16.5t39.5 -16.5t16.5 -39.5z" />
<glyph unicode="&#x22;" horiz-adv-x="346" d="M294 600q0 -8 -2 -20l-27 -153h-34l-27 153q-2 12 -2 20q0 42 46 42t46 -42zM144 600q0 -8 -2 -20l-27 -153h-34l-27 153q-2 12 -2 20q0 42 46 42t46 -42z" />
<glyph unicode="#" d="M501 268v-69h-118v-199h-70v199h-97v-199h-70v199h-120v69h120v98h-120v69h120v198h70v-198h97v198h70v-198h118v-69h-118v-98h118zM216 268h97v98h-97v-98z" />
<glyph unicode="$" d="M469 172q0 -78 -49 -125q-43 -42 -126 -53v-102h-59v99q-91 1 -172 36l4 87q82 -46 168 -47v210q-34 12 -52.5 19.5t-46 23.5t-42 33.5t-26 46.5t-11.5 64q0 78 48.5 122.5t129.5 53.5v99h59v-97q72 -3 133 -23l-4 -81q-64 25 -129 28v-203q40 -14 64 -25.5t53.5 -33.5 t43.5 -54.5t14 -77.5zM235 384v178q-80 -16 -80 -85q0 -60 80 -93zM372 161q0 34 -20 55.5t-58 38.5v-182q78 19 78 88z" />
<glyph unicode="%" horiz-adv-x="830" d="M766 179q0 -89 -38 -138t-109 -49t-109 49t-38 138t38 138t109 49t109 -49t38 -138zM484 642h77l-215 -650h-77zM358 455q0 -89 -38 -138t-109 -49t-109 49t-38 138t38 138t109 49t109 -49t38 -138zM692 179q0 130 -73 130t-73 -130t73 -130t73 130zM284 455 q0 130 -73 130t-73 -130t73 -130t73 130z" />
<glyph unicode="&#x26;" horiz-adv-x="673" d="M639 82l-5 -65q-40 -25 -94 -25q-45 0 -74.5 20.5t-35.5 56.5q-21 -35 -65.5 -56t-101.5 -21q-96 0 -152 53.5t-56 136.5q0 63 33 110.5t95 64.5q-37 13 -59.5 47t-22.5 79q0 72 51 115.5t141 43.5q83 0 143 -28l-4 -71q-58 30 -123 30q-55 0 -83.5 -25.5t-28.5 -64.5 q0 -46 32 -72.5t94 -26.5h286v-67h-97v-180q0 -39 11.5 -57t43.5 -18q36 0 72 20zM421 224v93h-109q-76 0 -114 -31q-41 -33 -41 -97q0 -55 34.5 -89.5t90.5 -34.5q82 0 117 59q22 37 22 100z" />
<glyph unicode="'" horiz-adv-x="196" d="M144 600q0 -8 -2 -20l-27 -153h-34l-27 153q-2 12 -2 20q0 42 46 42t46 -42z" />
<glyph unicode="(" horiz-adv-x="293" d="M299 -160l-17 -31q-100 41 -154 160t-54 278t54 278t154 160l17 -31q-69 -47 -97.5 -141t-28.5 -266t28.5 -266t97.5 -141z" />
<glyph unicode=")" horiz-adv-x="293" d="M219 247q0 -159 -54 -278t-154 -160l-17 31q69 47 97.5 141t28.5 266t-28.5 266t-97.5 141l17 31q100 -41 154 -160t54 -278z" />
<glyph unicode="*" horiz-adv-x="449" d="M392 385q0 -15 -11.5 -28.5t-26.5 -13.5t-32 15l-87 79l25 -115q2 -10 2 -15q0 -36 -38 -36q-37 0 -37 36q0 10 1 15l25 115l-87 -79q-17 -15 -31 -15q-15 0 -26.5 13.5t-11.5 28.5q0 25 33 35l111 37l-111 36q-33 10 -33 35q0 15 11.5 28.5t26.5 13.5q14 0 31 -15 l87 -79l-25 115q-1 5 -1 15q0 36 37 36q38 0 38 -36q0 -5 -2 -15l-25 -115l87 79q17 15 32 15t26.5 -13.5t11.5 -28.5q0 -24 -34 -35l-111 -36l111 -37q34 -11 34 -35z" />
<glyph unicode="+" horiz-adv-x="530" d="M429 356v-71h-128v-128h-71v128h-128v71h128v128h71v-128h128z" />
<glyph unicode="," horiz-adv-x="234" d="M176 35q0 -47 -30.5 -94.5t-77.5 -72.5l-28 30q61 49 66 94q-20 5 -33 20.5t-13 35.5q0 24 16 39t40 15q29 0 44.5 -18t15.5 -49z" />
<glyph unicode="-" horiz-adv-x="344" d="M290 278v-76h-236v76h236z" />
<glyph unicode="." horiz-adv-x="236" d="M174 49q0 -23 -16.5 -39.5t-39.5 -16.5t-39.5 16.5t-16.5 39.5t16.5 39.5t39.5 16.5t39.5 -16.5t16.5 -39.5z" />
<glyph unicode="/" horiz-adv-x="300" d="M211 642h87l-210 -651h-86z" />
<glyph unicode="0" d="M481 316q0 -162 -56 -243.5t-162 -81.5t-162 81.5t-56 243.5t56 244t162 82t162 -82t56 -244zM376 316q0 129 -25 189.5t-88 60.5t-88 -60.5t-25 -189.5t25 -189t88 -60t88 60t25 189z" />
<glyph unicode="1" d="M435 68v-68h-298v68h100v460l-92 -53l-36 62l164 96h63v-565h99z" />
<glyph unicode="2" d="M468 469q0 -46 -20.5 -85t-52 -65t-69 -54t-70.5 -52.5t-57.5 -60.5t-29.5 -78h298l-9 -74h-387v22q0 93 40.5 156t128.5 126q71 51 99.5 85t28.5 78q0 45 -25.5 72t-74.5 27q-83 0 -113 -91l-85 23q20 68 73.5 106t130.5 38q96 0 145 -49q49 -48 49 -124z" />
<glyph unicode="3" d="M471 187q0 -93 -60.5 -144.5t-171.5 -51.5q-96 0 -169 40l5 81q74 -47 159 -47q67 0 101 33t34 89q0 58 -40.5 83t-101.5 25v66q53 2 85 31t32 81q0 42 -25.5 68t-69.5 26q-82 0 -112 -85l-83 23q21 66 73 101.5t127 35.5q90 0 139 -45t49 -116q0 -50 -23 -86t-65 -52 q117 -33 117 -156z" />
<glyph unicode="4" d="M491 208v-78h-74v-130h-92v130h-256l-28 47l236 466l81 -40l-200 -395h167v119h92v-119h74z" />
<glyph unicode="5" d="M467 203q0 -98 -57.5 -155t-166.5 -57q-91 0 -159 36l4 79q67 -41 143 -41q63 0 99.5 34t36.5 99q0 68 -35 100q-32 29 -116 29h-119v306h321v-74h-242v-159h59q121 0 174 -45q58 -50 58 -152z" />
<glyph unicode="6" d="M484 215q0 -101 -56.5 -162.5t-154.5 -61.5q-111 0 -165 78.5t-54 212.5q0 165 70 262.5t197 97.5q59 0 109 -21l-2 -69q-48 20 -99 20q-66 0 -105 -40q-49 -49 -63 -153q54 39 130 39q92 0 142.5 -52.5t50.5 -150.5zM386 212q0 69 -26 101.5t-85 32.5q-63 0 -120 -45 v-20q0 -106 27 -163t91 -57q54 0 83.5 43t29.5 108z" />
<glyph unicode="7" d="M440 633l21 -49l-228 -584h-105l231 559h-290v74h371z" />
<glyph unicode="8" d="M484 173q0 -85 -56 -133.5t-160 -48.5q-100 0 -153 47.5t-53 130.5q0 53 30 97.5t84 66.5q-92 54 -92 152q0 71 50.5 114t135.5 43q84 0 132.5 -39.5t48.5 -109.5q0 -95 -98 -149q62 -29 96.5 -67t34.5 -104zM365 484q0 92 -96 92q-46 0 -71.5 -22t-25.5 -60 q0 -45 28 -71t82 -50q83 41 83 111zM386 167q0 22 -9 40.5t-18.5 29.5t-34 25t-36 19t-43.5 18q-41 -16 -65 -48t-24 -76q0 -54 30.5 -83.5t83.5 -29.5q56 0 86 29.5t30 75.5z" />
<glyph unicode="9" d="M472 351q0 -165 -70 -262.5t-197 -97.5q-59 0 -109 21l2 68q48 -20 99 -20q66 0 105 40q49 49 63 154q-55 -39 -130 -39q-94 0 -143.5 52t-49.5 154q0 100 56 160.5t155 60.5q111 0 165 -78.5t54 -212.5zM371 334v17q0 221 -118 221q-55 0 -84 -43t-29 -108 q0 -69 26 -101t85 -32q66 0 120 46z" />
<glyph unicode=":" horiz-adv-x="236" d="M174 335q0 -23 -16.5 -39.5t-39.5 -16.5t-39.5 16.5t-16.5 39.5t16.5 39.5t39.5 16.5t39.5 -16.5t16.5 -39.5zM174 49q0 -23 -16.5 -39.5t-39.5 -16.5t-39.5 16.5t-16.5 39.5t16.5 39.5t39.5 16.5t39.5 -16.5t16.5 -39.5z" />
<glyph unicode=";" horiz-adv-x="234" d="M172 335q0 -23 -16.5 -39.5t-39.5 -16.5t-39.5 16.5t-16.5 39.5t16.5 39.5t39.5 16.5t39.5 -16.5t16.5 -39.5zM176 35q0 -47 -30.5 -94.5t-77.5 -72.5l-28 30q61 49 66 94q-20 5 -33 20.5t-13 35.5q0 24 16 39t40 15q29 0 44.5 -18t15.5 -49z" />
<glyph unicode="&#x3c;" horiz-adv-x="530" d="M430 233v-77l-329 130v68l329 132v-77l-235 -89z" />
<glyph unicode="=" horiz-adv-x="530" d="M429 446v-71h-327v71h327zM429 265v-71h-327v71h327z" />
<glyph unicode="&#x3e;" horiz-adv-x="530" d="M430 354v-68l-329 -130v77l234 87l-234 89v77z" />
<glyph unicode="?" horiz-adv-x="480" d="M420 463q0 -73 -43 -119.5t-126 -59.5l-12 -95h-50l-10 143q73 7 108.5 37t35.5 89q0 48 -26.5 77.5t-73.5 29.5q-82 0 -106 -87l-83 17q14 69 66 108t126 39q91 0 142.5 -48.5t51.5 -130.5zM271 49q0 -23 -16.5 -39.5t-39.5 -16.5t-39.5 16.5t-16.5 39.5t16.5 39.5 t39.5 16.5t39.5 -16.5t16.5 -39.5z" />
<glyph unicode="@" horiz-adv-x="755" d="M703 351q0 -102 -45 -163t-122 -61q-70 0 -88 47q-37 -43 -98 -43q-57 0 -90.5 30.5t-33.5 87.5q0 55 35.5 86t101.5 31q38 0 72 -8v21q0 64 -73 64q-55 0 -107 -25l-1 57q55 24 117 24q82 0 116 -37q28 -30 28 -88v-146q0 -41 36 -41q34 0 54.5 42.5t20.5 114.5 q0 110 -67 175t-176 65q-121 0 -187.5 -71.5t-66.5 -192.5q0 -131 72 -203t204 -72q143 0 261 60l-3 -51q-49 -26 -123.5 -44.5t-142.5 -18.5q-158 0 -251.5 85t-93.5 243q0 150 93 236.5t236 86.5t232.5 -81t89.5 -210zM435 264v47q-33 7 -56 7q-73 0 -73 -66 q0 -29 16.5 -47.5t45.5 -18.5q67 0 67 78z" />
<glyph unicode="A" horiz-adv-x="592" d="M349 633l228 -633h-106l-48 139h-245l-44 -139h-102l184 559h-57v74h190zM201 210h198l-90 261q-9 27 -13 59h-1q-2 -31 -11 -59z" />
<glyph unicode="B" horiz-adv-x="571" d="M531 179q0 -98 -71 -144q-53 -35 -168 -35h-212v559h-58v74h256q121 0 171 -46q45 -41 45 -112q0 -103 -80 -137q55 -12 86 -52t31 -107zM392 462q0 44 -26 70q-28 27 -103 27h-79v-201h90q62 0 90 21.5t28 82.5zM422 184q0 55 -29 82q-30 27 -121 27h-88v-219h97 q71 0 102 20q39 25 39 90z" />
<glyph unicode="C" horiz-adv-x="556" d="M511 478l-104 -20q-12 51 -36.5 78.5t-71.5 27.5q-75 0 -111.5 -65.5t-36.5 -172.5q0 -122 41.5 -188t137.5 -66t170 51l-5 -84q-78 -48 -185 -48q-140 0 -204 88.5t-64 240.5t67.5 237t193.5 85q87 0 140.5 -43.5t67.5 -120.5z" />
<glyph unicode="D" horiz-adv-x="621" d="M579 318q0 -225 -141 -288q-66 -30 -176 -30h-182v559h-58v74h250q148 0 218 -56q89 -72 89 -259zM470 320q0 80 -14.5 130t-52.5 76q-46 33 -149 33h-70v-485h81q84 0 131 31q74 49 74 215z" />
<glyph unicode="E" horiz-adv-x="517" d="M180 74h296l-9 -74h-391v633h378v-74h-274v-202h221v-72h-221v-211z" />
<glyph unicode="F" horiz-adv-x="484" d="M454 633v-74h-274v-202h221v-72h-221v-285h-104v633h378z" />
<glyph unicode="G" horiz-adv-x="607" d="M538 289v-289h-58l-23 40q-62 -49 -158 -49q-130 0 -193.5 86.5t-63.5 239.5q0 159 71.5 242t195.5 83q97 0 155 -45.5t72 -121.5l-106 -18q-13 53 -42 80t-81 27q-76 0 -116 -63t-40 -177q0 -254 167 -254q65 0 118 39v114h-85v66h187z" />
<glyph unicode="H" horiz-adv-x="622" d="M546 633v-633h-104v276h-262v-276h-104v633h104v-274h262v274h104z" />
<glyph unicode="I" horiz-adv-x="361" d="M298 62v-62h-235v62h65v508h-65v63h235v-63h-66v-508h66z" />
<glyph unicode="J" horiz-adv-x="425" d="M349 633v-441q0 -94 -27 -136q-43 -65 -154 -65q-65 0 -122 24l4 79q48 -26 99 -26q62 0 83 37q13 24 13 84v370h-169v74h273z" />
<glyph unicode="K" horiz-adv-x="578" d="M557 79l-5 -66q-25 -19 -66 -19q-35 0 -59.5 16.5t-45.5 54.5l-122 210h-79v-275h-104v633h104v-276h86l147 276h105l-168 -312l131 -229q15 -26 36 -26q23 0 40 13z" />
<glyph unicode="L" horiz-adv-x="483" d="M180 74h278l-8 -74h-374v633h104v-559z" />
<glyph unicode="M" horiz-adv-x="766" d="M690 633v-633h-91v460q-4 -34 -22 -77l-160 -383h-61l-171 394q-14 31 -19 67v-461h-90v633h101l187 -427q22 -49 26 -84h1q4 34 25 84l177 427h97z" />
<glyph unicode="N" horiz-adv-x="634" d="M558 633v-633h-73l-286 401q-26 37 -33 66v-467h-90v633h71l286 -400q28 -40 35 -65v465h90z" />
<glyph unicode="O" horiz-adv-x="606" d="M564 317q0 -155 -65.5 -240t-195.5 -85t-195.5 85t-65.5 240t65.5 240t195.5 85t195.5 -85t65.5 -240zM455 317q0 128 -38 187t-114 59t-114 -59t-38 -187t38 -187t114 -59t114 59t38 187z" />
<glyph unicode="P" horiz-adv-x="556" d="M525 431q0 -123 -86 -174q-59 -35 -167 -35h-88v-222h-104v559h-58v74h236q126 0 186 -36q81 -47 81 -166zM419 427q0 76 -48 108q-37 24 -110 24h-77v-269h66q88 0 128.5 28.5t40.5 108.5z" />
<glyph unicode="Q" horiz-adv-x="606" d="M564 317q0 -147 -59.5 -231.5t-176.5 -92.5q-9 -18 -9 -40q0 -25 16 -39t43 -14q49 0 121 47l-6 -70q-62 -50 -146 -50q-56 0 -88.5 29t-32.5 75q0 37 19 66q-101 18 -152 101t-51 219q0 155 65.5 240t195.5 85t195.5 -85t65.5 -240zM455 317q0 128 -38 187t-114 59 t-114 -59t-38 -187t38 -187t114 -59t114 59t38 187z" />
<glyph unicode="R" horiz-adv-x="599" d="M564 80l-5 -66q-28 -20 -69 -20q-37 0 -58 16t-42 52l-101 177h-104v-239h-104v559h-59v74h257q124 0 183 -43q68 -48 68 -146q0 -153 -135 -191l93 -164q13 -23 33 -23t43 14zM424 437q0 62 -31 91q-34 31 -123 31h-85v-251h102q137 0 137 129z" />
<glyph unicode="S" horiz-adv-x="522" d="M476 172q0 -78 -49 -125q-59 -56 -177 -56q-97 0 -181 36l4 87q84 -47 174 -47q62 0 97 24.5t35 69.5q0 41 -32.5 67t-78.5 41t-92 33.5t-78.5 58.5t-32.5 103q0 87 61 132.5t159 45.5q83 0 152 -23l-4 -81q-72 28 -142 28q-59 0 -93.5 -22.5t-34.5 -66.5q0 -34 23 -58 t58 -35.5t75.5 -27.5t75.5 -34.5t58 -57t23 -92.5z" />
<glyph unicode="T" horiz-adv-x="520" d="M496 633v-74h-184v-559h-104v559h-184v74h472z" />
<glyph unicode="U" horiz-adv-x="614" d="M541 633v-396q0 -113 -43 -170q-57 -76 -192 -76q-122 0 -177 58q-54 55 -54 183v401h104v-397q0 -91 28 -127q31 -40 101 -40t102 40q29 36 29 127v397h102z" />
<glyph unicode="V" horiz-adv-x="545" d="M426 633h103l-206 -633h-109l-198 633h109l134 -450q13 -41 13 -70h1q0 25 14 70z" />
<glyph unicode="W" horiz-adv-x="827" d="M714 633h97l-183 -633h-100l-111 383l-116 -383h-96l-189 633h103l130 -444q11 -38 11 -65h1q2 35 11 62l104 338l-32 109h98l127 -441q12 -39 12 -68h1q2 32 12 68z" />
<glyph unicode="X" horiz-adv-x="572" d="M539 80l-4 -66q-24 -20 -67 -20q-34 0 -55.5 16t-41.5 51l-105 185l-133 -246h-108l190 329l-181 304h118l135 -235l125 235h106l-181 -320l126 -221q16 -26 38 -26q21 0 38 14z" />
<glyph unicode="Y" horiz-adv-x="535" d="M427 633h100l-209 -414v-219h-104v222l-209 411h113l133 -265q20 -43 23 -64h1q3 25 22 62z" />
<glyph unicode="Z" horiz-adv-x="510" d="M174 74h302l-9 -74h-416v56l291 503h-274v74h397v-56z" />
<glyph unicode="[" horiz-adv-x="288" d="M272 -114v-71h-190v869h190v-71h-96v-727h96z" />
<glyph unicode="\" horiz-adv-x="300" d="M88 642l210 -651h-87l-209 651h86z" />
<glyph unicode="]" horiz-adv-x="288" d="M206 684v-869h-190v71h96v727h-96v71h190z" />
<glyph unicode="^" horiz-adv-x="530" d="M312 623l128 -218h-77l-96 168l-98 -168h-78l130 219q11 18 27 18h36q17 0 28 -19z" />
<glyph unicode="_" horiz-adv-x="500" d="M500 -47v-58h-500v58h500z" />
<glyph unicode="`" horiz-adv-x="277" d="M233 562l-12 -28q-65 55 -123 55q-20 0 -38 -6q-15 19 -15 41q0 38 46 38q65 0 142 -100z" />
<glyph unicode="a" horiz-adv-x="519" d="M497 75l-4 -60q-27 -20 -69 -20q-64 0 -77 48q-18 -24 -53 -38t-74 -14q-78 0 -125.5 42.5t-47.5 119.5q0 81 51.5 124t141.5 43q51 0 99 -16v14q0 52 -21 77q-26 31 -91 31q-68 0 -134 -36v71q66 33 148 33q108 0 158 -52q38 -41 38 -119v-228q0 -32 24 -32q20 0 36 12z M339 167v72q-37 13 -86 13q-55 0 -81.5 -25.5t-26.5 -69.5q0 -47 25 -73t67 -26q50 0 78 30q24 27 24 79z" />
<glyph unicode="b" horiz-adv-x="536" d="M499 250q0 -259 -244 -259q-92 0 -176 29v592h-57v72h155v-239q46 49 124 49q84 0 134 -50q64 -66 64 -194zM400 247q0 173 -114 173q-53 0 -82 -32q-27 -30 -27 -95v-224q34 -12 74 -12q82 0 115.5 47.5t33.5 142.5z" />
<glyph unicode="c" horiz-adv-x="467" d="M435 350l-91 -20q-11 47 -33 70.5t-60 23.5q-59 0 -87.5 -48t-28.5 -127q0 -187 140 -187q75 0 142 46l-4 -75q-62 -42 -154 -42q-107 0 -165 65t-58 186q0 118 57.5 185t156.5 67q72 0 121 -36.5t64 -107.5z" />
<glyph unicode="d" horiz-adv-x="546" d="M520 75l-4 -60q-27 -20 -70 -20q-44 0 -66 25q-8 9 -12 22q-45 -51 -127 -51q-97 0 -151 61.5t-54 171.5q0 134 75 206q66 64 180 64q37 0 71 -8v126h-57v72h155v-589q0 -32 24 -32q20 0 36 12zM362 195v224q-32 8 -64 8q-78 0 -120.5 -51t-42.5 -149q0 -75 29.5 -120 t87.5 -45q55 0 84 34q26 31 26 99z" />
<glyph unicode="e" horiz-adv-x="498" d="M455 268q0 -31 -14 -45q-13 -13 -47 -13h-258q5 -73 43.5 -110.5t101.5 -37.5q88 0 154 47l-4 -75q-61 -43 -166 -43q-111 0 -170 67t-59 182q0 118 58 186t158 68q94 0 148.5 -61.5t54.5 -164.5zM361 285q0 65 -28.5 102.5t-82.5 37.5q-103 0 -114 -150h216q9 0 9 10z " />
<glyph unicode="f" horiz-adv-x="328" d="M326 681v-67q-36 12 -72 12q-40 0 -55 -23q-13 -20 -13 -64v-54h120v-72h-120v-413h-98v413h-75v72h75v56q0 80 34 115q37 40 116 40q46 0 88 -15z" />
<glyph unicode="g" horiz-adv-x="536" d="M464 465v-455q0 -63 -9.5 -98t-34.5 -64q-53 -60 -175 -60q-91 0 -162 37l4 77q72 -43 153 -43q66 0 98 33q28 31 28 114v41q-44 -49 -125 -49q-96 0 -148.5 59t-52.5 168q0 129 78 204q68 65 187 65q82 0 159 -29zM366 191v225q-29 11 -63 11q-77 0 -120.5 -50.5 t-43.5 -144.5q0 -79 30 -121.5t88 -42.5q51 0 81 32q28 31 28 91z" />
<glyph unicode="h" horiz-adv-x="549" d="M478 312v-312h-98v297q0 67 -22 92q-24 29 -77 29q-57 0 -83 -33q-26 -31 -26 -105v-280h-98v684h98v-235q47 45 125 45q99 0 145 -54q36 -42 36 -128z" />
<glyph unicode="i" horiz-adv-x="277" d="M186 621q0 -25 -17.5 -42t-41.5 -17t-41 17t-17 42t17 41.5t41 16.5t41.5 -17t17.5 -41zM242 75l-4 -60q-27 -20 -70 -20q-44 0 -66 25q-18 21 -18 73v320h-57v72h155v-390q0 -32 24 -32q20 0 36 12z" />
<glyph unicode="j" horiz-adv-x="285" d="M215 621q0 -25 -17.5 -42t-41.5 -17t-41 17t-17 42t17 41.5t41 16.5t41.5 -17t17.5 -41zM211 485v-500q0 -90 -23 -130q-34 -60 -130 -60q-46 0 -80 14l3 71q32 -14 66 -14q39 0 52.5 22.5t13.5 84.5v440h-59v72h157z" />
<glyph unicode="k" horiz-adv-x="509" d="M498 72l-3 -60q-23 -17 -60 -17q-63 0 -98 61l-101 177h-61v-233h-98v612h-57v72h155v-378h64l115 179h100l-136 -212l103 -178q18 -33 42 -33q20 0 35 10z" />
<glyph unicode="l" horiz-adv-x="272" d="M237 75l-4 -60q-27 -20 -70 -20q-44 0 -66 25q-18 21 -18 73v519h-57v72h155v-589q0 -32 24 -32q20 0 36 12z" />
<glyph unicode="m" horiz-adv-x="849" d="M778 312v-312h-98v297q0 67 -22 92q-26 29 -74 29q-52 0 -80 -33q-26 -31 -26 -105v-198v-82h-98v297q0 67 -22 92q-26 29 -74 29q-52 0 -80 -33q-26 -31 -26 -105v-280h-98v413h-57v72h116l18 -57q44 66 143 66q112 0 154 -72q45 72 147 72q95 0 141 -54q36 -42 36 -128 z" />
<glyph unicode="n" horiz-adv-x="555" d="M484 312v-312h-98v297q0 67 -22 92q-24 29 -77 29q-57 0 -83 -33q-26 -31 -26 -105v-280h-98v413h-57v72h116l18 -57q21 31 60 48.5t86 17.5q99 0 145 -54q36 -42 36 -128z" />
<glyph unicode="o" horiz-adv-x="514" d="M478 242q0 -121 -58 -186t-163 -65t-163 65t-58 186t58 186.5t163 65.5t163 -65.5t58 -186.5zM379 242q0 182 -122 182t-122 -182q0 -181 122 -181t122 181z" />
<glyph unicode="p" horiz-adv-x="538" d="M502 249q0 -121 -57.5 -189.5t-180.5 -68.5q-48 0 -86 8v-198h-98v612h-57v72h119l19 -59q48 68 141 68q104 0 152 -68t48 -177zM403 247q0 174 -117 174q-54 0 -83 -37q-25 -32 -25 -100v-216q38 -11 79 -11q78 0 112 47.5t34 142.5z" />
<glyph unicode="q" horiz-adv-x="532" d="M488 -189l-93 -19q-30 48 -30 127v123q-44 -51 -129 -51q-93 0 -146.5 62.5t-53.5 168.5q0 126 67.5 199t188.5 73q91 0 171 -31v-514q0 -87 25 -138zM365 185v229q-28 12 -72 12q-76 0 -117 -51t-41 -142q0 -80 30 -125.5t90 -45.5q51 0 82 33q28 31 28 90z" />
<glyph unicode="r" horiz-adv-x="342" d="M318 491v-82q-11 3 -34 3q-52 0 -79 -35q-27 -34 -27 -108v-269h-98v413h-57v72h120l18 -67q18 36 53 56t77 20q18 0 27 -3z" />
<glyph unicode="s" horiz-adv-x="432" d="M395 136q0 -65 -49 -105t-136 -40q-88 0 -160 32l7 78q67 -40 149 -40q44 0 71.5 16.5t27.5 47.5q0 32 -24.5 48t-99.5 41q-65 21 -97.5 51t-32.5 86q0 66 51.5 104.5t134.5 38.5q70 0 125 -20v-76q-57 26 -122 26q-44 0 -70.5 -17.5t-26.5 -45.5q0 -27 23 -42t87 -37 q75 -25 108.5 -55.5t33.5 -90.5z" />
<glyph unicode="t" horiz-adv-x="354" d="M326 86l-2 -70q-41 -25 -97 -25q-73 0 -106 41q-27 34 -27 108v273h-74v72h74v124l97 29v-153h115v-72h-114v-267q0 -44 13.5 -63.5t47.5 -19.5q43 0 73 23z" />
<glyph unicode="u" horiz-adv-x="558" d="M531 75l-4 -60q-27 -20 -69 -20q-29 0 -50.5 14t-27.5 39q-19 -27 -55 -42t-77 -15q-99 0 -145 54q-36 42 -36 128v312h98v-297q0 -67 22 -92q24 -29 77 -29q57 0 83 33q26 31 26 105v280h98v-389q0 -33 25 -33q19 0 35 12z" />
<glyph unicode="v" horiz-adv-x="454" d="M355 485h92l-187 -485h-88l-165 485h102l94 -300q16 -53 21 -87q5 40 22 88z" />
<glyph unicode="w" horiz-adv-x="672" d="M577 485h88l-158 -485h-79l-89 273l-88 -273h-78l-166 485h99l92 -288q17 -50 21 -86q4 36 21 88l62 187l-32 99h92l90 -287q15 -46 18 -88q4 36 20 88z" />
<glyph unicode="x" horiz-adv-x="452" d="M447 73l-3 -63q-23 -15 -56 -15q-31 0 -52.5 14.5t-43.5 49.5l-74 121l-119 -180h-94l170 248l-147 237h104l100 -164l107 164h90l-154 -232l103 -168q13 -22 35 -22q20 0 34 10z" />
<glyph unicode="y" horiz-adv-x="544" d="M471 485v-475q0 -63 -9.5 -98t-34.5 -64q-53 -60 -175 -60q-91 0 -162 37l4 77q72 -43 153 -43q67 0 98 33q28 31 28 112v36q-43 -49 -125 -49q-99 0 -145 54q-36 42 -36 128v312h98v-297q0 -67 22 -92q24 -29 77 -29q57 0 83 33q26 31 26 105v280h98z" />
<glyph unicode="z" horiz-adv-x="429" d="M153 72h244l-6 -72h-349v59l232 354h-223v72h334v-59z" />
<glyph unicode="{" horiz-adv-x="305" d="M277 -153v-51h-41q-65 0 -96 26t-31 86q0 28 2.5 101.5t2.5 105.5q0 49 -15.5 72t-53.5 26q-12 1 -13 1v52l12 1q38 3 54 25.5t16 72.5q0 32 -2.5 105.5t-2.5 101.5q0 60 31 86t96 26h41v-51h-24q-32 0 -44 -13.5t-12 -44.5q0 -36 10.5 -108.5t10.5 -109.5 q0 -99 -86 -117q86 -18 86 -117q0 -37 -10.5 -109.5t-10.5 -108.5q0 -31 12 -44.5t44 -13.5h24z" />
<glyph unicode="|" horiz-adv-x="226" d="M150 750v-1000h-74v1000h74z" />
<glyph unicode="}" horiz-adv-x="305" d="M273 266v-52l-13 -1q-38 -3 -53.5 -26t-15.5 -72q0 -32 2.5 -105.5t2.5 -101.5q0 -60 -31 -86t-96 -26h-41v51h24q32 0 44 13.5t12 44.5q0 36 -10.5 108.5t-10.5 109.5q0 99 86 117q-86 18 -86 117q0 37 10.5 109.5t10.5 108.5q0 31 -12 44.5t-44 13.5h-24v51h41 q65 0 96 -26t31 -86q0 -28 -2.5 -101.5t-2.5 -105.5q0 -50 16 -72.5t54 -25.5q11 -1 12 -1z" />
<glyph unicode="~" horiz-adv-x="530" d="M452 327l38 -31q-27 -63 -61.5 -94.5t-81.5 -31.5q-39 0 -91 36t-82 36q-26 0 -48 -16.5t-48 -52.5l-38 30q28 65 62 95.5t81 30.5q40 0 93.5 -36t79.5 -36q45 0 96 70z" />
<glyph unicode="&#xa1;" horiz-adv-x="280" d="M84 -100v8l35 390h42l35 -390v-8q0 -26 -15 -40.5t-41 -14.5t-41 14.5t-15 40.5zM84 438q0 23 16.5 39.5t39.5 16.5t39.5 -16.5t16.5 -39.5t-16.5 -39.5t-39.5 -16.5t-39.5 16.5t-16.5 39.5z" />
<glyph unicode="&#xa2;" d="M463 350l-91 -20q-18 76 -65 90v-358q72 1 138 46l-4 -75q-53 -36 -134 -41v-100h-62v102q-88 12 -134.5 75.5t-46.5 172.5q0 107 48 173t133 77v101h62v-101q128 -15 156 -142zM245 72v347q-82 -27 -82 -170q0 -144 82 -177z" />
<glyph unicode="&#xa3;" d="M195 74h294l-8 -74h-403v57q82 52 82 125q0 43 -26 106h-96v56h73q-28 69 -28 125q0 78 55.5 125.5t139.5 47.5q174 0 208 -162l-95 -15q-21 96 -108 96q-47 0 -71.5 -26t-24.5 -63q0 -55 32 -128h178v-56h-154q19 -50 19 -93q0 -41 -16 -68t-51 -53z" />
<glyph unicode="&#xa4;" d="M421 317q0 -55 -20 -97l79 -108h-83l-39 54q-38 -30 -95 -30t-95 30l-39 -54h-83l79 108q-20 42 -20 97t20 97l-79 108h83l39 -54q37 30 95 30q57 0 95 -30l39 54h83l-79 -108q20 -42 20 -97zM345 317q0 114 -82 114t-82 -114t82 -114t82 114z" />
<glyph unicode="&#xa5;" d="M425 632h100l-188 -371h114v-59h-135v-45h135v-59h-135v-98h-104v98h-135v59h135v45h-135v59h114l-190 372h115l131 -265q21 -42 24 -69h1q2 23 23 66z" />
<glyph unicode="&#xa6;" horiz-adv-x="226" d="M150 750v-380h-74v380h74zM150 130v-380h-74v380h74z" />
<glyph unicode="&#xa7;" d="M433 -72q0 -70 -49.5 -112.5t-132.5 -42.5q-71 0 -128 20l6 70q53 -22 119 -22q44 0 69.5 21.5t25.5 56.5q0 29 -25.5 50.5t-62.5 38.5t-74 37.5t-62.5 56t-25.5 84.5q0 55 28 95t81 60q-52 26 -80.5 59t-28.5 87q0 70 49.5 112.5t132.5 42.5q71 0 128 -20l-6 -70 q-53 22 -119 22q-44 0 -69.5 -21.5t-25.5 -56.5q0 -29 25.5 -50.5t62.5 -38.5t74 -37.5t62.5 -56t25.5 -84.5q0 -55 -28 -95t-81 -60q52 -26 80.5 -59t28.5 -87zM343 220q0 51 -68 86q-92 -30 -92 -111q0 -51 68 -86q92 30 92 111z" />
<glyph unicode="&#xa8;" horiz-adv-x="277" d="M267 612q0 -22 -15.5 -37t-38.5 -15t-37.5 15t-14.5 37t15 37.5t37 15.5q23 0 38.5 -15.5t15.5 -37.5zM115 612q0 -22 -14.5 -37t-37.5 -15q-22 0 -37.5 15t-15.5 37t15 37.5t38 15.5q22 0 37 -15.5t15 -37.5z" />
<glyph unicode="&#xa9;" horiz-adv-x="750" d="M704 317q0 -144 -90 -234.5t-239 -90.5t-239 90.5t-90 234.5t90 234.5t239 90.5t239 -90.5t90 -234.5zM641 317q0 127 -72.5 200t-193.5 73t-193.5 -73t-72.5 -200t72.5 -200t193.5 -73t193.5 73t72.5 200zM497 400l-64 -14q-15 55 -55 55q-73 0 -73 -119q0 -128 87 -128 q50 0 99 36l-3 -57q-41 -32 -104 -32q-80 0 -116 49.5t-36 128.5q0 81 38 128t110 47q96 0 117 -94z" />
<glyph unicode="&#xaa;" horiz-adv-x="350" d="M316 391l-2 -36q-15 -12 -42 -12q-39 0 -46 28q-24 -31 -76 -31q-47 0 -75.5 25.5t-28.5 71.5q0 49 31 75t85 26q26 0 59 -10v8q0 34 -12 47q-15 18 -56 18t-82 -21v42q40 20 91 20q66 0 95 -31q23 -24 23 -72v-136q0 -20 14 -20q12 0 22 8zM221 446v44q-18 7 -51 7 q-65 0 -65 -57q0 -28 15 -44t40 -16q30 0 47 18q14 15 14 48z" />
<glyph unicode="&#xab;" horiz-adv-x="491" d="M319 242l90 -118l-20 -58l-144 154q-11 11 -11 22t11 22l144 154l20 -58zM163 242l91 -118l-21 -58l-144 154q-11 11 -11 22t11 22l144 154l21 -58z" />
<glyph unicode="&#xac;" horiz-adv-x="530" d="M429 446v-244h-71v173h-256v71h327z" />
<glyph unicode="&#xad;" horiz-adv-x="344" d="M290 278v-76h-236v76h236z" />
<glyph unicode="&#xae;" horiz-adv-x="750" d="M704 317q0 -144 -90 -234.5t-239 -90.5t-239 90.5t-90 234.5t90 234.5t239 90.5t239 -90.5t90 -234.5zM641 317q0 127 -72.5 200t-193.5 73t-193.5 -73t-72.5 -200t72.5 -200t193.5 -73t193.5 73t72.5 200zM529 203l-4 -50q-19 -12 -40 -12q-24 0 -37.5 10t-28.5 35 l-50 83h-44v-125h-68v293h-31v51h146q138 0 138 -106q0 -78 -71 -103l41 -71q10 -16 20 -16q15 0 29 11zM439 379q0 32 -18.5 45t-56.5 13h-39v-119h48q66 0 66 61z" />
<glyph unicode="&#xaf;" horiz-adv-x="277" d="M250 656v-58h-222v58h222z" />
<glyph unicode="&#xb0;" horiz-adv-x="462" d="M390 478q0 -75 -44 -119.5t-115 -44.5t-115 44.5t-44 119.5t44 119.5t115 44.5t115 -44.5t44 -119.5zM324 478q0 49 -23 80t-70 31t-70 -31t-23 -80t23 -80t70 -31t70 31t23 80z" />
<glyph unicode="&#xb1;" horiz-adv-x="530" d="M429 356v-71h-128v-128h-71v128h-128v71h128v128h71v-128h128zM429 71v-71h-327v71h327z" />
<glyph unicode="&#xb2;" horiz-adv-x="374" d="M143 300h183l-8 -58h-251v20q0 48 19 84.5t45.5 58.5t53.5 40t46 39t19 46q0 24 -14 38.5t-41 14.5q-45 0 -65 -57l-65 18q14 48 49 73t85 25q56 0 91 -28.5t35 -82.5q0 -33 -17 -60t-41.5 -45.5t-50.5 -36t-47 -40.5t-26 -49z" />
<glyph unicode="&#xb3;" horiz-adv-x="374" d="M327 365q0 -59 -39.5 -91.5t-109.5 -32.5q-59 0 -110 27l4 64q56 -33 103 -33q75 0 75 66q0 57 -88 57v52q72 3 72 60q0 23 -13 36.5t-37 13.5q-44 0 -63 -52l-64 17q30 93 130 93q59 0 90.5 -28.5t31.5 -74.5q0 -56 -43 -81q61 -24 61 -93z" />
<glyph unicode="&#xb4;" horiz-adv-x="277" d="M233 624q0 -22 -15 -41q-18 6 -37 6q-59 0 -124 -55l-12 28q77 100 142 100q46 0 46 -38z" />
<glyph unicode="&#xb5;" horiz-adv-x="565" d="M538 75l-4 -60q-27 -20 -69 -20q-29 0 -50.5 14t-27.5 39q-19 -27 -55 -42t-77 -15q-44 0 -83 13v-223h-98v704h98v-297q0 -67 22 -92q24 -29 77 -29q57 0 83 33q26 31 26 105v280h98v-389q0 -33 25 -33q19 0 35 12z" />
<glyph unicode="&#xb6;" horiz-adv-x="472" d="M444 633v-59h-68v-801h-66v801h-70v-801h-65v571q-61 1 -102 42.5t-41 101.5q0 67 43 106t115 39h254z" />
<glyph unicode="&#xb7;" horiz-adv-x="236" d="M174 333q0 -23 -16.5 -39.5t-39.5 -16.5t-39.5 16.5t-16.5 39.5t16.5 39.5t39.5 16.5t39.5 -16.5t16.5 -39.5z" />
<glyph unicode="&#xb8;" horiz-adv-x="277" d="M211 -100q0 -34 -30 -54t-89 -20l-10 33q76 3 76 30q0 16 -46 31.5t-46 35.5q0 15 19 49l21 36l31 -15l-14 -25q-7 -12 -7 -22q0 -9 15 -16t32.5 -12t32.5 -18t15 -33z" />
<glyph unicode="&#xb9;" horiz-adv-x="374" d="M295 302v-55h-193v55h62v258l-52 -29l-30 49l109 62h48v-340h56z" />
<glyph unicode="&#xba;" horiz-adv-x="350" d="M308 491q0 -72 -35 -111.5t-98 -39.5t-97.5 39t-34.5 112t34.5 112t97.5 39t98 -39.5t35 -111.5zM249 491q0 109 -74 109q-73 0 -73 -109t73 -109q74 0 74 109z" />
<glyph unicode="&#xbb;" horiz-adv-x="491" d="M413 242q0 -11 -11 -22l-144 -154l-20 58l90 118l-90 118l20 58l144 -154q11 -11 11 -22zM258 242q0 -10 -12 -22l-143 -154l-21 58l91 118l-91 118l21 58l143 -154q12 -12 12 -22z" />
<glyph unicode="&#xbc;" horiz-adv-x="840" d="M744 138v-59h-46v-79h-70v79h-162l-21 33l150 286l62 -30l-121 -230h92v66h70v-66h46zM472 642h73l-210 -651h-73zM292 302v-55h-193v55h62v258l-52 -29l-30 49l109 62h48v-340h56z" />
<glyph unicode="&#xbd;" horiz-adv-x="840" d="M560 58h183l-8 -58h-251v20q0 48 19 84.5t46 58.5t53.5 40t45.5 39t19 46q0 24 -14 38.5t-41 14.5q-45 0 -65 -57l-65 18q14 48 49 73t85 25q56 0 91 -28.5t35 -82.5q0 -33 -17 -60t-41.5 -45.5t-50.5 -36t-47 -40.5t-26 -49zM472 642h73l-210 -651h-73zM292 302v-55 h-193v55h62v258l-52 -29l-30 49l109 62h48v-340h56z" />
<glyph unicode="&#xbe;" horiz-adv-x="840" d="M780 138v-59h-46v-79h-70v79h-162l-21 33l150 286l62 -30l-121 -230h92v66h70v-66h46zM508 642h73l-210 -651h-73zM353 365q0 -59 -39.5 -91.5t-109.5 -32.5q-59 0 -110 27l4 64q56 -33 103 -33q75 0 75 66q0 57 -88 57v52q72 3 72 60q0 23 -13 36.5t-37 13.5 q-44 0 -63 -52l-64 17q30 93 130 93q59 0 90.5 -28.5t31.5 -74.5q0 -56 -43 -81q61 -24 61 -93z" />
<glyph unicode="&#xbf;" horiz-adv-x="480" d="M60 24q0 73 43 119.5t126 59.5l12 95h50l10 -143q-73 -7 -108.5 -37t-35.5 -89q0 -48 26.5 -77.5t73.5 -29.5q82 0 106 87l83 -17q-14 -69 -66 -108t-126 -39q-91 0 -142.5 48.5t-51.5 130.5zM209 438q0 23 16.5 39.5t39.5 16.5t39.5 -16.5t16.5 -39.5t-16.5 -39.5 t-39.5 -16.5t-39.5 16.5t-16.5 39.5z" />
<glyph unicode="&#xc0;" horiz-adv-x="592" d="M349 633l228 -633h-106l-48 139h-245l-44 -139h-102l184 559h-57v74h190zM201 210h198l-90 261q-9 27 -13 59h-1q-2 -31 -11 -59zM373 692l-12 -28q-65 55 -123 55q-20 0 -38 -6q-15 19 -15 41q0 38 46 38q65 0 142 -100z" />
<glyph unicode="&#xc1;" horiz-adv-x="592" d="M349 633l228 -633h-106l-48 139h-245l-44 -139h-102l184 559h-57v74h190zM201 210h198l-90 261q-9 27 -13 59h-1q-2 -31 -11 -59zM367 754q0 -22 -15 -41q-18 6 -37 6q-59 0 -124 -55l-12 28q77 100 142 100q46 0 46 -38z" />
<glyph unicode="&#xc2;" horiz-adv-x="592" d="M349 633l228 -633h-106l-48 139h-245l-44 -139h-102l184 559h-57v74h190zM201 210h198l-90 261q-9 27 -13 59h-1q-2 -31 -11 -59zM328 778l79 -102h-67l-56 73l-57 -73h-66l79 102q15 19 32 19h24q18 0 32 -19z" />
<glyph unicode="&#xc3;" horiz-adv-x="592" d="M349 633l228 -633h-106l-48 139h-245l-44 -139h-102l184 559h-57v74h190zM201 210h198l-90 261q-9 27 -13 59h-1q-2 -31 -11 -59zM365 783h34q-5 -95 -72 -95q-23 0 -53.5 18.5t-44.5 18.5q-23 0 -33 -37h-34q5 95 72 95q22 0 52.5 -18.5t45.5 -18.5q23 0 33 37z" />
<glyph unicode="&#xc4;" horiz-adv-x="592" d="M349 633l228 -633h-106l-48 139h-245l-44 -139h-102l184 559h-57v74h190zM201 210h198l-90 261q-9 27 -13 59h-1q-2 -31 -11 -59zM411 740q0 -22 -15.5 -37t-38.5 -15t-37.5 15t-14.5 37t15 37.5t37 15.5q23 0 38.5 -15.5t15.5 -37.5zM259 740q0 -22 -14.5 -37t-37.5 -15 q-22 0 -37.5 15t-15.5 37t15 37.5t38 15.5q22 0 37 -15.5t15 -37.5z" />
<glyph unicode="&#xc5;" horiz-adv-x="592" d="M349 633l228 -633h-106l-48 139h-245l-44 -139h-102l184 559h-57v74h190zM201 210h198l-90 261q-9 27 -13 59h-1q-2 -31 -11 -59zM366 751q0 -36 -24.5 -59t-59.5 -23t-59.5 23t-24.5 59t24.5 59t59.5 23t59.5 -23t24.5 -59zM322 751q0 19 -11 31t-29 12t-29 -12t-11 -31 t11 -31t29 -12t29 12t11 31z" />
<glyph unicode="&#xc6;" horiz-adv-x="865" d="M528 74h296l-9 -74h-391v139h-234l-81 -139h-107l331 559h-58v74h527v-74h-274v-202h221v-72h-221v-211zM231 210h193v341q-15 -38 -41 -81z" />
<glyph unicode="&#xc7;" horiz-adv-x="556" d="M392 -100q0 -34 -30 -54t-89 -20l-10 33q76 3 76 30q0 16 -46 31.5t-46 35.5q0 14 13 39q-218 29 -218 325q0 152 67.5 237t193.5 85q87 0 140.5 -43.5t67.5 -120.5l-104 -20q-12 51 -36.5 78.5t-71.5 27.5q-75 0 -111.5 -65.5t-36.5 -172.5q0 -122 41.5 -188t137.5 -66 t170 51l-5 -84q-78 -48 -185 -48q-2 0 -5.5 0.5t-5.5 0.5q-2 -10 -2 -13q0 -9 15 -16t32.5 -12t32.5 -18t15 -33z" />
<glyph unicode="&#xc8;" horiz-adv-x="517" d="M180 74h296l-9 -74h-391v633h378v-74h-274v-202h221v-72h-221v-211zM362 692l-12 -28q-65 55 -123 55q-20 0 -38 -6q-15 19 -15 41q0 38 46 38q65 0 142 -100z" />
<glyph unicode="&#xc9;" horiz-adv-x="517" d="M180 74h296l-9 -74h-391v633h378v-74h-274v-202h221v-72h-221v-211zM366 754q0 -22 -15 -41q-18 6 -37 6q-59 0 -124 -55l-12 28q77 100 142 100q46 0 46 -38z" />
<glyph unicode="&#xca;" horiz-adv-x="517" d="M180 74h296l-9 -74h-391v633h378v-74h-274v-202h221v-72h-221v-211zM315 778l79 -102h-67l-56 73l-57 -73h-66l79 102q15 19 32 19h24q18 0 32 -19z" />
<glyph unicode="&#xcb;" horiz-adv-x="517" d="M180 74h296l-9 -74h-391v633h378v-74h-274v-202h221v-72h-221v-211zM396 740q0 -22 -15.5 -37t-38.5 -15q-22 0 -37 15t-15 37t15 37.5t37 15.5q23 0 38.5 -15.5t15.5 -37.5zM244 740q0 -22 -15 -37t-37 -15t-37.5 15t-15.5 37t15.5 37.5t37.5 15.5t37 -15.5t15 -37.5z " />
<glyph unicode="&#xcc;" horiz-adv-x="361" d="M298 62v-62h-235v62h65v508h-65v63h235v-63h-66v-508h66zM274 692l-12 -28q-65 55 -123 55q-20 0 -38 -6q-15 19 -15 41q0 38 46 38q65 0 142 -100z" />
<glyph unicode="&#xcd;" horiz-adv-x="361" d="M298 62v-62h-235v62h65v508h-65v63h235v-63h-66v-508h66zM273 754q0 -22 -15 -41q-18 6 -37 6q-59 0 -124 -55l-12 28q77 100 142 100q46 0 46 -38z" />
<glyph unicode="&#xce;" horiz-adv-x="361" d="M298 62v-62h-235v62h65v508h-65v63h235v-63h-66v-508h66zM225 778l79 -102h-67l-56 73l-57 -73h-66l79 102q15 19 32 19h24q18 0 32 -19z" />
<glyph unicode="&#xcf;" horiz-adv-x="361" d="M298 62v-62h-235v62h65v508h-65v63h235v-63h-66v-508h66zM309 740q0 -22 -15.5 -37t-38.5 -15t-37.5 15t-14.5 37t15 37.5t37 15.5q23 0 38.5 -15.5t15.5 -37.5zM157 740q0 -22 -14.5 -37t-37.5 -15q-22 0 -37.5 15t-15.5 37t15 37.5t38 15.5q22 0 37 -15.5t15 -37.5z " />
<glyph unicode="&#xd0;" horiz-adv-x="621" d="M580 318q0 -225 -141 -288q-66 -30 -176 -30h-183v281h-92v71h92v207h-58v74h251q148 0 218 -56q89 -72 89 -259zM470 320q0 80 -14.5 130t-52.5 76q-46 33 -149 33h-70v-207h116v-71h-116v-207h81q84 0 131 31q74 49 74 215z" />
<glyph unicode="&#xd1;" horiz-adv-x="634" d="M558 633v-633h-73l-286 401q-26 37 -33 66v-467h-90v633h71l286 -400q28 -40 35 -65v465h90zM400 783h34q-5 -95 -72 -95q-24 0 -54 18.5t-44 18.5q-23 0 -33 -37h-34q5 95 72 95q22 0 52.5 -18.5t45.5 -18.5q23 0 33 37z" />
<glyph unicode="&#xd2;" horiz-adv-x="606" d="M564 317q0 -155 -65.5 -240t-195.5 -85t-195.5 85t-65.5 240t65.5 240t195.5 85t195.5 -85t65.5 -240zM455 317q0 128 -38 187t-114 59t-114 -59t-38 -187t38 -187t114 -59t114 59t38 187zM397 692l-12 -28q-65 55 -123 55q-20 0 -38 -6q-15 19 -15 41q0 38 46 38 q65 0 142 -100z" />
<glyph unicode="&#xd3;" horiz-adv-x="606" d="M564 317q0 -155 -65.5 -240t-195.5 -85t-195.5 85t-65.5 240t65.5 240t195.5 85t195.5 -85t65.5 -240zM455 317q0 128 -38 187t-114 59t-114 -59t-38 -187t38 -187t114 -59t114 59t38 187zM393 754q0 -22 -15 -41q-18 6 -37 6q-59 0 -124 -55l-12 28q77 100 142 100 q46 0 46 -38z" />
<glyph unicode="&#xd4;" horiz-adv-x="606" d="M564 317q0 -155 -65.5 -240t-195.5 -85t-195.5 85t-65.5 240t65.5 240t195.5 85t195.5 -85t65.5 -240zM455 317q0 128 -38 187t-114 59t-114 -59t-38 -187t38 -187t114 -59t114 59t38 187zM347 778l79 -102h-67l-56 73l-57 -73h-66l79 102q15 19 32 19h24q18 0 32 -19z " />
<glyph unicode="&#xd5;" horiz-adv-x="606" d="M564 317q0 -155 -65.5 -240t-195.5 -85t-195.5 85t-65.5 240t65.5 240t195.5 85t195.5 -85t65.5 -240zM455 317q0 128 -38 187t-114 59t-114 -59t-38 -187t38 -187t114 -59t114 59t38 187zM388 783h34q-5 -95 -72 -95q-24 0 -54 18.5t-44 18.5q-23 0 -33 -37h-34 q5 95 72 95q22 0 52.5 -18.5t45.5 -18.5q23 0 33 37z" />
<glyph unicode="&#xd6;" horiz-adv-x="606" d="M564 317q0 -155 -65.5 -240t-195.5 -85t-195.5 85t-65.5 240t65.5 240t195.5 85t195.5 -85t65.5 -240zM455 317q0 128 -38 187t-114 59t-114 -59t-38 -187t38 -187t114 -59t114 59t38 187zM432 740q0 -22 -15.5 -37t-38.5 -15q-22 0 -37 15t-15 37t15 37.5t37 15.5 q23 0 38.5 -15.5t15.5 -37.5zM280 740q0 -22 -15 -37t-37 -15t-37.5 15t-15.5 37t15.5 37.5t37.5 15.5t37 -15.5t15 -37.5z" />
<glyph unicode="&#xd7;" horiz-adv-x="530" d="M316 320l90 -90l-50 -50l-91 90l-90 -90l-50 50l90 90l-90 91l50 50l90 -90l91 90l50 -50z" />
<glyph unicode="&#xd8;" horiz-adv-x="606" d="M564 317q0 -155 -65.5 -240t-195.5 -85q-57 0 -103 17l-36 -78h-68l50 108q-104 79 -104 278q0 155 65.5 240t195.5 85q64 0 112 -21l38 81h67l-52 -113q96 -80 96 -272zM455 317q0 115 -32 176l-187 -407q28 -15 67 -15q76 0 114 59t38 187zM189 131l190 412 q-30 20 -76 20q-76 0 -114 -59t-38 -187q0 -125 38 -186z" />
<glyph unicode="&#xd9;" horiz-adv-x="614" d="M541 633v-396q0 -113 -43 -170q-57 -76 -192 -76q-122 0 -177 58q-54 55 -54 183v401h104v-397q0 -91 28 -127q31 -40 101 -40t102 40q29 36 29 127v397h102zM400 692l-12 -28q-65 55 -123 55q-20 0 -38 -6q-15 19 -15 41q0 38 46 38q65 0 142 -100z" />
<glyph unicode="&#xda;" horiz-adv-x="614" d="M541 633v-396q0 -113 -43 -170q-57 -76 -192 -76q-122 0 -177 58q-54 55 -54 183v401h104v-397q0 -91 28 -127q31 -40 101 -40t102 40q29 36 29 127v397h102zM403 754q0 -22 -15 -41q-18 6 -37 6q-59 0 -124 -55l-12 28q77 100 142 100q46 0 46 -38z" />
<glyph unicode="&#xdb;" horiz-adv-x="614" d="M541 633v-396q0 -113 -43 -170q-57 -76 -192 -76q-122 0 -177 58q-54 55 -54 183v401h104v-397q0 -91 28 -127q31 -40 101 -40t102 40q29 36 29 127v397h102zM352 778l79 -102h-67l-56 73l-57 -73h-66l79 102q15 19 32 19h24q18 0 32 -19z" />
<glyph unicode="&#xdc;" horiz-adv-x="614" d="M541 633v-396q0 -113 -43 -170q-57 -76 -192 -76q-122 0 -177 58q-54 55 -54 183v401h104v-397q0 -91 28 -127q31 -40 101 -40t102 40q29 36 29 127v397h102zM437 740q0 -22 -15.5 -37t-38.5 -15t-37.5 15t-14.5 37t15 37.5t37 15.5q23 0 38.5 -15.5t15.5 -37.5zM285 740 q0 -22 -14.5 -37t-37.5 -15q-22 0 -37.5 15t-15.5 37t15 37.5t38 15.5q22 0 37 -15.5t15 -37.5z" />
<glyph unicode="&#xdd;" horiz-adv-x="535" d="M427 633h100l-209 -414v-219h-104v222l-209 411h113l133 -265q20 -43 23 -64h1q3 25 22 62zM366 754q0 -22 -15 -41q-18 6 -37 6q-59 0 -124 -55l-12 28q77 100 142 100q46 0 46 -38z" />
<glyph unicode="&#xde;" horiz-adv-x="550" d="M519 324q0 -123 -86 -174q-59 -35 -167 -35h-86v-115h-104v633h104v-107h72q126 0 186 -36q81 -47 81 -166zM413 320q0 76 -48 108q-37 24 -110 24h-75v-269h64q88 0 128.5 28.5t40.5 108.5z" />
<glyph unicode="&#xdf;" horiz-adv-x="604" d="M567 136q0 -67 -48.5 -106t-134.5 -39q-87 0 -155 30v79q74 -40 149 -40q48 0 72.5 18.5t24.5 47.5q0 31 -25.5 50.5t-61.5 30.5t-72.5 24.5t-62 44t-25.5 77.5q0 65 47 100t114 35q5 0 15 -0.5t14 -0.5q2 14 2 31q0 50 -28.5 79.5t-83.5 29.5q-67 0 -97 -36 q-27 -31 -27 -98v-493h-98v413h-73v72h73v11q0 92 48 141q57 59 175 59q93 0 148 -48.5t55 -138.5q0 -49 -11 -91q-47 9 -85 9q-96 0 -96 -64q0 -26 25.5 -43.5t62 -29t72.5 -27t61.5 -47.5t25.5 -80z" />
<glyph unicode="&#xe0;" horiz-adv-x="519" d="M497 75l-4 -60q-27 -20 -69 -20q-64 0 -77 48q-18 -24 -53 -38t-74 -14q-78 0 -125.5 42.5t-47.5 119.5q0 81 51.5 124t141.5 43q51 0 99 -16v14q0 52 -21 77q-26 31 -91 31q-68 0 -134 -36v71q66 33 148 33q108 0 158 -52q38 -41 38 -119v-228q0 -32 24 -32q20 0 36 12z M339 167v72q-37 13 -86 13q-55 0 -81.5 -25.5t-26.5 -69.5q0 -47 25 -73t67 -26q50 0 78 30q24 27 24 79zM349 562l-12 -28q-65 55 -123 55q-20 0 -38 -6q-15 19 -15 41q0 38 46 38q65 0 142 -100z" />
<glyph unicode="&#xe1;" horiz-adv-x="519" d="M497 75l-4 -60q-27 -20 -69 -20q-64 0 -77 48q-18 -24 -53 -38t-74 -14q-78 0 -125.5 42.5t-47.5 119.5q0 81 51.5 124t141.5 43q51 0 99 -16v14q0 52 -21 77q-26 31 -91 31q-68 0 -134 -36v71q66 33 148 33q108 0 158 -52q38 -41 38 -119v-228q0 -32 24 -32q20 0 36 12z M339 167v72q-37 13 -86 13q-55 0 -81.5 -25.5t-26.5 -69.5q0 -47 25 -73t67 -26q50 0 78 30q24 27 24 79zM344 624q0 -22 -15 -41q-18 6 -37 6q-59 0 -124 -55l-12 28q77 100 142 100q46 0 46 -38z" />
<glyph unicode="&#xe2;" horiz-adv-x="519" d="M497 75l-4 -60q-27 -20 -69 -20q-64 0 -77 48q-18 -24 -53 -38t-74 -14q-78 0 -125.5 42.5t-47.5 119.5q0 81 51.5 124t141.5 43q51 0 99 -16v14q0 52 -21 77q-26 31 -91 31q-68 0 -134 -36v71q66 33 148 33q108 0 158 -52q38 -41 38 -119v-228q0 -32 24 -32q20 0 36 12z M339 167v72q-37 13 -86 13q-55 0 -81.5 -25.5t-26.5 -69.5q0 -47 25 -73t67 -26q50 0 78 30q24 27 24 79zM300 645l79 -102h-67l-56 73l-57 -73h-66l79 102q15 19 32 19h24q18 0 32 -19z" />
<glyph unicode="&#xe3;" horiz-adv-x="519" d="M497 75l-4 -60q-27 -20 -69 -20q-64 0 -77 48q-18 -24 -53 -38t-74 -14q-78 0 -125.5 42.5t-47.5 119.5q0 81 51.5 124t141.5 43q51 0 99 -16v14q0 52 -21 77q-26 31 -91 31q-68 0 -134 -36v71q66 33 148 33q108 0 158 -52q38 -41 38 -119v-228q0 -32 24 -32q20 0 36 12z M339 167v72q-37 13 -86 13q-55 0 -81.5 -25.5t-26.5 -69.5q0 -47 25 -73t67 -26q50 0 78 30q24 27 24 79zM339 652h34q-5 -95 -72 -95q-23 0 -53 18.5t-45 18.5q-23 0 -33 -37h-34q5 95 72 95q22 0 52.5 -18.5t45.5 -18.5q23 0 33 37z" />
<glyph unicode="&#xe4;" horiz-adv-x="519" d="M497 75l-4 -60q-27 -20 -69 -20q-64 0 -77 48q-18 -24 -53 -38t-74 -14q-78 0 -125.5 42.5t-47.5 119.5q0 81 51.5 124t141.5 43q51 0 99 -16v14q0 52 -21 77q-26 31 -91 31q-68 0 -134 -36v71q66 33 148 33q108 0 158 -52q38 -41 38 -119v-228q0 -32 24 -32q20 0 36 12z M339 167v72q-37 13 -86 13q-55 0 -81.5 -25.5t-26.5 -69.5q0 -47 25 -73t67 -26q50 0 78 30q24 27 24 79zM381 602q0 -22 -15.5 -37t-38.5 -15t-37.5 15t-14.5 37t15 37.5t37 15.5q23 0 38.5 -15.5t15.5 -37.5zM229 602q0 -22 -14.5 -37t-37.5 -15q-22 0 -37.5 15t-15.5 37 t15 37.5t38 15.5q22 0 37 -15.5t15 -37.5z" />
<glyph unicode="&#xe5;" horiz-adv-x="519" d="M497 75l-4 -60q-27 -20 -69 -20q-64 0 -77 48q-18 -24 -53 -38t-74 -14q-78 0 -125.5 42.5t-47.5 119.5q0 81 51.5 124t141.5 43q51 0 99 -16v14q0 52 -21 77q-26 31 -91 31q-68 0 -134 -36v71q66 33 148 33q108 0 158 -52q38 -41 38 -119v-228q0 -32 24 -32q20 0 36 12z M339 167v72q-37 13 -86 13q-55 0 -81.5 -25.5t-26.5 -69.5q0 -47 25 -73t67 -26q50 0 78 30q24 27 24 79zM340 623q0 -36 -24.5 -59t-59.5 -23t-59.5 23t-24.5 59t24.5 59t59.5 23t59.5 -23t24.5 -59zM296 623q0 19 -11 31t-29 12t-29 -12t-11 -31t11 -31t29 -12t29 12 t11 31z" />
<glyph unicode="&#xe6;" horiz-adv-x="800" d="M757 268q0 -31 -14 -45q-13 -13 -47 -13h-258q5 -73 43.5 -110.5t101.5 -37.5q88 0 154 47l-4 -75q-61 -43 -166 -43q-120 0 -181 82q-19 -33 -52 -52q-51 -30 -114 -30q-78 0 -125.5 42.5t-47.5 119.5q0 81 51.5 124t141.5 43q51 0 99 -16v14q0 52 -21 77q-26 31 -92 31 q-72 0 -138 -36v71q66 33 152 33q110 0 159 -52q1 -1 3 -3.5t3 -3.5q57 59 149 59q94 0 148.5 -61.5t54.5 -164.5zM663 285q0 65 -28.5 102.5t-82.5 37.5q-103 0 -114 -150h216q9 0 9 10zM339 167v73q-37 13 -86 13q-55 0 -81.5 -26t-26.5 -70q0 -47 25 -73t67 -26 q50 0 78 30q24 27 24 79z" />
<glyph unicode="&#xe7;" horiz-adv-x="467" d="M337 -100q0 -34 -30 -54t-89 -20l-10 33q76 3 76 30q0 16 -46 31.5t-46 35.5q0 15 13 40q-82 15 -125.5 78t-43.5 168q0 118 57.5 185t156.5 67q72 0 121 -36.5t64 -107.5l-91 -20q-11 47 -33 70.5t-60 23.5q-59 0 -87.5 -48t-28.5 -127q0 -187 140 -187q75 0 142 46 l-4 -75q-62 -42 -154 -42h-15q-2 -8 -2 -12q0 -9 15 -16t32.5 -12t32.5 -18t15 -33z" />
<glyph unicode="&#xe8;" horiz-adv-x="498" d="M455 268q0 -31 -14 -45q-13 -13 -47 -13h-258q5 -73 43.5 -110.5t101.5 -37.5q88 0 154 47l-4 -75q-61 -43 -166 -43q-111 0 -170 67t-59 182q0 118 58 186t158 68q94 0 148.5 -61.5t54.5 -164.5zM361 285q0 65 -28.5 102.5t-82.5 37.5q-103 0 -114 -150h216q9 0 9 10z M353 562l-12 -28q-65 55 -123 55q-20 0 -38 -6q-15 19 -15 41q0 38 46 38q65 0 142 -100z" />
<glyph unicode="&#xe9;" horiz-adv-x="498" d="M455 268q0 -31 -14 -45q-13 -13 -47 -13h-258q5 -73 43.5 -110.5t101.5 -37.5q88 0 154 47l-4 -75q-61 -43 -166 -43q-111 0 -170 67t-59 182q0 118 58 186t158 68q94 0 148.5 -61.5t54.5 -164.5zM361 285q0 65 -28.5 102.5t-82.5 37.5q-103 0 -114 -150h216q9 0 9 10z M338 624q0 -22 -15 -41q-18 6 -37 6q-59 0 -124 -55l-12 28q77 100 142 100q46 0 46 -38z" />
<glyph unicode="&#xea;" horiz-adv-x="498" d="M455 268q0 -31 -14 -45q-13 -13 -47 -13h-258q5 -73 43.5 -110.5t101.5 -37.5q88 0 154 47l-4 -75q-61 -43 -166 -43q-111 0 -170 67t-59 182q0 118 58 186t158 68q94 0 148.5 -61.5t54.5 -164.5zM361 285q0 65 -28.5 102.5t-82.5 37.5q-103 0 -114 -150h216q9 0 9 10z M295 645l79 -102h-67l-56 73l-57 -73h-66l79 102q15 19 32 19h24q18 0 32 -19z" />
<glyph unicode="&#xeb;" horiz-adv-x="498" d="M455 268q0 -31 -14 -45q-13 -13 -47 -13h-258q5 -73 43.5 -110.5t101.5 -37.5q88 0 154 47l-4 -75q-61 -43 -166 -43q-111 0 -170 67t-59 182q0 118 58 186t158 68q94 0 148.5 -61.5t54.5 -164.5zM361 285q0 65 -28.5 102.5t-82.5 37.5q-103 0 -114 -150h216q9 0 9 10z M378 602q0 -22 -15.5 -37t-38.5 -15q-22 0 -37 15t-15 37t15 37.5t37 15.5q23 0 38.5 -15.5t15.5 -37.5zM226 602q0 -22 -15 -37t-37 -15t-37.5 15t-15.5 37t15.5 37.5t37.5 15.5t37 -15.5t15 -37.5z" />
<glyph unicode="&#xec;" horiz-adv-x="277" d="M242 75l-4 -60q-27 -20 -70 -20q-44 0 -66 25q-18 21 -18 73v320h-57v72h155v-390q0 -32 24 -32q20 0 36 12zM216 562l-12 -28q-65 55 -123 55q-20 0 -38 -6q-15 19 -15 41q0 38 46 38q65 0 142 -100z" />
<glyph unicode="&#xed;" horiz-adv-x="277" d="M242 75l-4 -60q-27 -20 -70 -20q-44 0 -66 25q-18 21 -18 73v320h-57v72h155v-390q0 -32 24 -32q20 0 36 12zM205 624q0 -22 -15 -41q-18 6 -37 6q-59 0 -124 -55l-12 28q77 100 142 100q46 0 46 -38z" />
<glyph unicode="&#xee;" horiz-adv-x="277" d="M232 75l-4 -60q-27 -20 -70 -20q-44 0 -66 25q-18 21 -18 73v320h-57v72h155v-390q0 -32 24 -32q20 0 36 12zM161 645l79 -102h-67l-56 73l-57 -73h-66l79 102q15 19 32 19h24q18 0 32 -19z" />
<glyph unicode="&#xef;" horiz-adv-x="277" d="M242 75l-4 -60q-27 -20 -70 -20q-44 0 -66 25q-18 21 -18 73v320h-57v72h155v-390q0 -32 24 -32q20 0 36 12zM248 602q0 -22 -15.5 -37t-38.5 -15q-22 0 -37 15t-15 37t15 37.5t37 15.5q23 0 38.5 -15.5t15.5 -37.5zM96 602q0 -22 -15 -37t-37 -15t-37.5 15t-15.5 37 t15.5 37.5t37.5 15.5t37 -15.5t15 -37.5z" />
<glyph unicode="&#xf0;" horiz-adv-x="530" d="M490 284q0 -133 -55.5 -213t-171.5 -80q-100 0 -156.5 62t-56.5 159t54.5 152t148.5 55q75 0 129 -31q-12 104 -65 152l-22 -51l-51 20l26 61q-33 13 -89 15l10 57q58 0 105 -13l26 61l52 -20l-27 -62q143 -78 143 -324zM389 266q0 21 -2 55q-50 32 -108 32 q-64 0 -97 -37.5t-33 -104.5q0 -66 31.5 -107t84.5 -41q66 0 95 51.5t29 151.5z" />
<glyph unicode="&#xf1;" horiz-adv-x="555" d="M484 312v-312h-98v297q0 67 -22 92q-24 29 -77 29q-57 0 -83 -33q-26 -31 -26 -105v-280h-98v413h-57v72h116l18 -57q21 31 60 48.5t86 17.5q99 0 145 -54q36 -42 36 -128zM371 652h34q-5 -95 -72 -95q-23 0 -53 18.5t-45 18.5q-23 0 -33 -37h-34q5 95 72 95 q22 0 52.5 -18.5t45.5 -18.5q23 0 33 37z" />
<glyph unicode="&#xf2;" horiz-adv-x="514" d="M478 242q0 -121 -58 -186t-163 -65t-163 65t-58 186t58 186.5t163 65.5t163 -65.5t58 -186.5zM379 242q0 182 -122 182t-122 -182q0 -181 122 -181t122 181zM361 562l-12 -28q-65 55 -123 55q-20 0 -38 -6q-15 19 -15 41q0 38 46 38q65 0 142 -100z" />
<glyph unicode="&#xf3;" horiz-adv-x="514" d="M478 242q0 -121 -58 -186t-163 -65t-163 65t-58 186t58 186.5t163 65.5t163 -65.5t58 -186.5zM379 242q0 182 -122 182t-122 -182q0 -181 122 -181t122 181zM340 624q0 -22 -15 -41q-18 6 -37 6q-59 0 -124 -55l-12 28q77 100 142 100q46 0 46 -38z" />
<glyph unicode="&#xf4;" horiz-adv-x="514" d="M478 242q0 -121 -58 -186t-163 -65t-163 65t-58 186t58 186.5t163 65.5t163 -65.5t58 -186.5zM379 242q0 182 -122 182t-122 -182q0 -181 122 -181t122 181zM302 645l79 -102h-67l-56 73l-57 -73h-66l79 102q15 19 32 19h24q18 0 32 -19z" />
<glyph unicode="&#xf5;" horiz-adv-x="514" d="M478 242q0 -121 -58 -186t-163 -65t-163 65t-58 186t58 186.5t163 65.5t163 -65.5t58 -186.5zM379 242q0 182 -122 182t-122 -182q0 -181 122 -181t122 181zM342 652h34q-5 -95 -72 -95q-24 0 -54 18.5t-44 18.5q-23 0 -33 -37h-34q5 95 72 95q22 0 52.5 -18.5 t45.5 -18.5q23 0 33 37z" />
<glyph unicode="&#xf6;" horiz-adv-x="514" d="M478 242q0 -121 -58 -186t-163 -65t-163 65t-58 186t58 186.5t163 65.5t163 -65.5t58 -186.5zM379 242q0 182 -122 182t-122 -182q0 -181 122 -181t122 181zM386 602q0 -22 -15.5 -37t-38.5 -15q-22 0 -37 15t-15 37t15 37.5t37 15.5q23 0 38.5 -15.5t15.5 -37.5z M234 602q0 -22 -15 -37t-37 -15t-37.5 15t-15.5 37t15.5 37.5t37.5 15.5t37 -15.5t15 -37.5z" />
<glyph unicode="&#xf7;" horiz-adv-x="530" d="M318 453q0 -21 -15 -36.5t-36 -15.5t-36.5 15.5t-15.5 36.5t15.5 36t36.5 15t36 -15t15 -36zM429 356v-71h-327v71h327zM318 189q0 -21 -15 -36.5t-36 -15.5t-36.5 15.5t-15.5 36.5t15.5 36t36.5 15t36 -15t15 -36z" />
<glyph unicode="&#xf8;" horiz-adv-x="514" d="M478 242q0 -121 -58 -186t-163 -65q-44 0 -80 12l-33 -72h-59l43 95q-92 61 -92 216q0 121 58 186.5t163 65.5q46 0 79 -11l30 66h59l-41 -89q94 -63 94 -218zM379 242q0 94 -31 138l-141 -310q21 -9 50 -9q122 0 122 181zM165 106l140 309q-21 9 -48 9q-122 0 -122 -182 q0 -91 30 -136z" />
<glyph unicode="&#xf9;" horiz-adv-x="558" d="M531 75l-4 -60q-27 -20 -69 -20q-29 0 -50.5 14t-27.5 39q-19 -27 -55 -42t-77 -15q-99 0 -145 54q-36 42 -36 128v312h98v-297q0 -67 22 -92q24 -29 77 -29q57 0 83 33q26 31 26 105v280h98v-389q0 -33 25 -33q19 0 35 12zM358 562l-12 -28q-65 55 -123 55q-20 0 -38 -6 q-15 19 -15 41q0 38 46 38q65 0 142 -100z" />
<glyph unicode="&#xfa;" horiz-adv-x="558" d="M531 75l-4 -60q-27 -20 -69 -20q-29 0 -50.5 14t-27.5 39q-19 -27 -55 -42t-77 -15q-99 0 -145 54q-36 42 -36 128v312h98v-297q0 -67 22 -92q24 -29 77 -29q57 0 83 33q26 31 26 105v280h98v-389q0 -33 25 -33q19 0 35 12zM367 624q0 -22 -15 -41q-18 6 -37 6 q-59 0 -124 -55l-12 28q77 100 142 100q46 0 46 -38z" />
<glyph unicode="&#xfb;" horiz-adv-x="558" d="M531 75l-4 -60q-27 -20 -69 -20q-29 0 -50.5 14t-27.5 39q-19 -27 -55 -42t-77 -15q-99 0 -145 54q-36 42 -36 128v312h98v-297q0 -67 22 -92q24 -29 77 -29q57 0 83 33q26 31 26 105v280h98v-389q0 -33 25 -33q19 0 35 12zM312 645l79 -102h-67l-56 73l-57 -73h-66 l79 102q15 19 32 19h24q18 0 32 -19z" />
<glyph unicode="&#xfc;" horiz-adv-x="558" d="M531 75l-4 -60q-27 -20 -69 -20q-29 0 -50.5 14t-27.5 39q-19 -27 -55 -42t-77 -15q-99 0 -145 54q-36 42 -36 128v312h98v-297q0 -67 22 -92q24 -29 77 -29q57 0 83 33q26 31 26 105v280h98v-389q0 -33 25 -33q19 0 35 12zM397 602q0 -22 -15.5 -37t-38.5 -15t-37.5 15 t-14.5 37t15 37.5t37 15.5q23 0 38.5 -15.5t15.5 -37.5zM245 602q0 -22 -14.5 -37t-37.5 -15q-22 0 -37.5 15t-15.5 37t15 37.5t38 15.5q22 0 37 -15.5t15 -37.5z" />
<glyph unicode="&#xfd;" horiz-adv-x="544" d="M471 485v-475q0 -63 -9.5 -98t-34.5 -64q-53 -60 -175 -60q-91 0 -162 37l4 77q72 -43 153 -43q67 0 98 33q28 31 28 112v36q-43 -49 -125 -49q-99 0 -145 54q-36 42 -36 128v312h98v-297q0 -67 22 -92q24 -29 77 -29q57 0 83 33q26 31 26 105v280h98zM368 624 q0 -22 -15 -41q-18 6 -37 6q-59 0 -124 -55l-12 28q77 100 142 100q46 0 46 -38z" />
<glyph unicode="&#xfe;" horiz-adv-x="532" d="M496 243q0 -72 -18.5 -126.5t-65 -90t-116.5 -35.5q-77 0 -124 50v-240h-98v455v157v270h98v-239q47 50 124 50q53 0 93 -20t62.5 -55t33.5 -79t11 -97zM397 243q0 178 -117 178q-54 0 -83 -37q-25 -32 -25 -100v-28v-55q0 -68 25 -100q29 -37 83 -37q117 0 117 179z" />
<glyph unicode="&#xff;" horiz-adv-x="544" d="M471 485v-475q0 -63 -9.5 -98t-34.5 -64q-53 -60 -175 -60q-91 0 -162 37l4 77q72 -43 153 -43q67 0 98 33q28 31 28 112v36q-43 -49 -125 -49q-99 0 -145 54q-36 42 -36 128v312h98v-297q0 -67 22 -92q24 -29 77 -29q57 0 83 33q26 31 26 105v280h98zM398 602 q0 -22 -15.5 -37t-38.5 -15q-22 0 -37 15t-15 37t15 37.5t37 15.5q23 0 38.5 -15.5t15.5 -37.5zM246 602q0 -22 -15 -37t-37 -15t-37.5 15t-15.5 37t15.5 37.5t37.5 15.5t37 -15.5t15 -37.5z" />
<glyph unicode="&#x152;" horiz-adv-x="871" d="M534 74h296l-9 -74h-346q-37 0 -91 -4t-81 -4q-130 0 -195.5 85t-65.5 240t65.5 240t195.5 85q31 0 82 -4.5t84 -4.5h339v-74h-274v-202h221v-72h-221v-211zM430 149v339q0 32 -18 49q-27 26 -109 26q-76 0 -114 -59t-38 -187t38 -187t114 -59q85 0 111 26q16 15 16 52z " />
<glyph unicode="&#x153;" horiz-adv-x="842" d="M799 268q0 -31 -14 -45q-13 -13 -47 -13h-259q5 -73 44 -110.5t102 -37.5q88 0 154 47l-4 -75q-61 -43 -166 -43q-119 0 -179 78q-58 -78 -173 -78q-105 0 -163 65t-58 186t58 186.5t163 65.5q115 0 173 -78q59 78 166 78q94 0 148.5 -61.5t54.5 -164.5zM705 285 q0 65 -28.5 102.5t-82.5 37.5q-104 0 -115 -150h217q9 0 9 10zM379 242q0 182 -122 182t-122 -182q0 -181 122 -181t122 181z" />
<glyph unicode="&#x178;" horiz-adv-x="535" d="M427 633h100l-209 -414v-219h-104v222l-209 411h113l133 -265q20 -43 23 -64h1q3 25 22 62zM400 740q0 -22 -15.5 -37t-38.5 -15q-22 0 -37 15t-15 37t15 37.5t37 15.5q23 0 38.5 -15.5t15.5 -37.5zM248 740q0 -22 -15 -37t-37 -15t-37.5 15t-15.5 37t15.5 37.5 t37.5 15.5t37 -15.5t15 -37.5z" />
<glyph unicode="&#x2c6;" horiz-adv-x="277" d="M183 645l79 -102h-67l-56 73l-57 -73h-66l79 102q15 19 32 19h24q18 0 32 -19z" />
<glyph unicode="&#x2dc;" horiz-adv-x="277" d="M223 652h34q-5 -95 -72 -95q-23 0 -53 18.5t-45 18.5q-23 0 -33 -37h-34q5 95 72 95q22 0 52.5 -18.5t45.5 -18.5q23 0 33 37z" />
<glyph unicode="&#x2000;" horiz-adv-x="416" />
<glyph unicode="&#x2001;" horiz-adv-x="833" />
<glyph unicode="&#x2002;" horiz-adv-x="416" />
<glyph unicode="&#x2003;" horiz-adv-x="833" />
<glyph unicode="&#x2004;" horiz-adv-x="277" />
<glyph unicode="&#x2005;" horiz-adv-x="208" />
<glyph unicode="&#x2006;" horiz-adv-x="138" />
<glyph unicode="&#x2007;" horiz-adv-x="138" />
<glyph unicode="&#x2008;" horiz-adv-x="104" />
<glyph unicode="&#x2009;" horiz-adv-x="166" />
<glyph unicode="&#x200a;" horiz-adv-x="46" />
<glyph unicode="&#x2010;" horiz-adv-x="344" d="M290 278v-76h-236v76h236z" />
<glyph unicode="&#x2011;" horiz-adv-x="344" d="M290 278v-76h-236v76h236z" />
<glyph unicode="&#x2012;" horiz-adv-x="344" d="M290 278v-76h-236v76h236z" />
<glyph unicode="&#x2013;" horiz-adv-x="500" d="M500 299v-60h-500v60h500z" />
<glyph unicode="&#x2014;" horiz-adv-x="1000" d="M1000 299v-60h-1000v60h1000z" />
<glyph unicode="&#x2018;" horiz-adv-x="213" d="M154 642l28 -30q-61 -49 -66 -94q20 -5 33 -20.5t13 -35.5q0 -24 -16 -39t-40 -15q-29 0 -44.5 18t-15.5 49q0 47 30.5 94.5t77.5 72.5z" />
<glyph unicode="&#x2019;" horiz-adv-x="213" d="M167 575q0 -47 -30.5 -94.5t-77.5 -72.5l-28 30q61 49 66 94q-20 5 -33 20.5t-13 35.5q0 24 16 39t40 15q29 0 44.5 -18t15.5 -49z" />
<glyph unicode="&#x201a;" horiz-adv-x="213" d="M167 12q0 -47 -30.5 -94.5t-77.5 -72.5l-28 30q61 49 66 94q-20 5 -33 20.5t-13 35.5q0 24 16 39t40 15q29 0 44.5 -18t15.5 -49z" />
<glyph unicode="&#x201c;" horiz-adv-x="360" d="M301 642l28 -30q-61 -49 -66 -94q20 -5 33 -20.5t13 -35.5q0 -24 -16 -39t-40 -15q-29 0 -44.5 18t-15.5 49q0 47 30.5 94.5t77.5 72.5zM154 642l28 -30q-61 -49 -66 -94q20 -5 33 -20.5t13 -35.5q0 -24 -16 -39t-40 -15q-29 0 -44.5 18t-15.5 49q0 47 30.5 94.5 t77.5 72.5z" />
<glyph unicode="&#x201d;" horiz-adv-x="360" d="M314 575q0 -47 -30.5 -94.5t-77.5 -72.5l-28 30q61 49 66 94q-20 5 -33 20.5t-13 35.5q0 24 16 39t40 15q29 0 44.5 -18t15.5 -49zM167 575q0 -47 -30.5 -94.5t-77.5 -72.5l-28 30q61 49 66 94q-20 5 -33 20.5t-13 35.5q0 24 16 39t40 15q29 0 44.5 -18t15.5 -49z" />
<glyph unicode="&#x201e;" horiz-adv-x="360" d="M314 12q0 -47 -30.5 -94.5t-77.5 -72.5l-28 30q61 49 66 94q-20 5 -33 20.5t-13 35.5q0 24 16 39t40 15q29 0 44.5 -18t15.5 -49zM167 12q0 -47 -30.5 -94.5t-77.5 -72.5l-28 30q61 49 66 94q-20 5 -33 20.5t-13 35.5q0 24 16 39t40 15q29 0 44.5 -18t15.5 -49z" />
<glyph unicode="&#x2022;" horiz-adv-x="330" d="M277 315q0 -46 -32.5 -79t-78.5 -33t-79 32.5t-33 79.5q0 46 33 78.5t79 32.5t78.5 -32t32.5 -79z" />
<glyph unicode="&#x2026;" horiz-adv-x="606" d="M544 51q0 -23 -17 -40t-40 -17t-39 17t-16 40t16 39t39 16t40 -16t17 -39zM359 51q0 -23 -17 -40t-40 -17t-39.5 17t-16.5 40t16.5 39t39.5 16t40 -16t17 -39zM174 51q0 -23 -16.5 -40t-39.5 -17t-39.5 17t-16.5 40t16.5 39t39.5 16t39.5 -16t16.5 -39z" />
<glyph unicode="&#x202f;" horiz-adv-x="166" />
<glyph unicode="&#x2039;" horiz-adv-x="335" d="M163 242l90 -118l-20 -58l-144 154q-11 11 -11 22t11 22l144 154l20 -58z" />
<glyph unicode="&#x203a;" horiz-adv-x="335" d="M257 242q0 -11 -11 -22l-144 -154l-20 58l90 118l-90 118l20 58l144 -154q11 -11 11 -22z" />
<glyph unicode="&#x205f;" horiz-adv-x="208" />
<glyph unicode="&#x20ac;" d="M507 478l-93 -20q-11 51 -33 78.5t-64 27.5q-56 0 -89.5 -45t-42.5 -122h163v-59h-167q0 -40 1 -60h166v-59h-158q29 -147 152 -147q39 0 81 14t72 37l-5 -84q-70 -48 -166 -48q-199 0 -234 228h-71v59h64q-2 40 -1 60h-63v59h68q14 117 74.5 181t158.5 64 q78 0 126.5 -43.5t60.5 -120.5z" />
<glyph unicode="&#x2122;" horiz-adv-x="731" d="M657 633v-331h-59v198l-86 -198h-39l-91 204v-204h-57v331h61l109 -241l103 241h59zM297 633v-48h-99v-283h-64v283h-98v48h261z" />
<glyph unicode="&#x25fc;" horiz-adv-x="485" d="M0 485h485v-485h-485v485z" />
</font>
</defs>
</svg>
