<?xml version="1.0" standalone="no"?>
<!DOCTYPE svg PUBLIC "-//W3C//DTD SVG 1.1//EN" "http://www.w3.org/Graphics/SVG/1.1/DTD/svg11.dtd" >
<svg xmlns="http://www.w3.org/2000/svg" xmlns:xlink="http://www.w3.org/1999/xlink" version="1.1">
<metadata></metadata>
<defs>
<font id="fs_lolaitalic" horiz-adv-x="510" >
<font-face units-per-em="1000" ascent="750" descent="-250" />
<missing-glyph horiz-adv-x="221" />
<glyph unicode="&#xfb01;" horiz-adv-x="561" d="M552 631q0 -23 -19.5 -41t-42.5 -18q-17 0 -28 11t-11 28q0 23 18.5 41t41.5 18q17 0 29 -11t12 -28zM219 485h297l-82 -386q-5 -23 -5 -31q0 -20 23 -20t45 13l-10 -52q-30 -18 -66 -18q-29 0 -49.5 15.5t-20.5 47.5q0 22 7 52l69 322h-220l-90 -428h-77l90 428h-71 l12 57h71l11 49q16 75 47 111q42 51 126 51q46 0 77 -14l-11 -51q-26 10 -60 10q-41 0 -65 -24q-22 -22 -37 -85z" />
<glyph unicode="&#xfb02;" horiz-adv-x="558" d="M479 684h77l-124 -585q-4 -24 -4 -31q0 -20 23 -20t45 13l-11 -52q-31 -18 -65 -18q-33 0 -52 16.5t-19 47.5q0 19 6 45zM403 682l-10 -51q-26 10 -61 10q-41 0 -65 -24q-22 -22 -37 -85l-11 -47h121l-12 -57h-121l-90 -428h-77l90 428h-71l12 57h71l11 49q16 75 47 111 q42 51 126 51q46 0 77 -14z" />
<glyph horiz-adv-x="0" />
<glyph horiz-adv-x="333" />
<glyph unicode=" "  horiz-adv-x="221" />
<glyph unicode="&#x09;" horiz-adv-x="221" />
<glyph unicode="&#xa0;" horiz-adv-x="221" />
<glyph unicode="!" horiz-adv-x="304" d="M277 609q0 -14 -5 -29l-112 -394h-37l55 399q8 57 59 57q40 0 40 -33zM162 54q0 -23 -19 -41t-42 -18q-17 0 -28.5 11t-11.5 28q0 23 18.5 41t41.5 18q17 0 29 -11t12 -28z" />
<glyph unicode="&#x22;" horiz-adv-x="292" d="M318 616q0 -13 -8 -33l-55 -147h-30l8 145q2 30 10 43q13 18 41 18q34 0 34 -26zM205 616q0 -13 -8 -33l-55 -147h-30l8 145q2 30 10 43q13 18 41 18q34 0 34 -26z" />
<glyph unicode="#" d="M405 430h100l-12 -58h-101l-23 -110h101l-13 -57h-100l-43 -205h-58l43 205h-103l-44 -205h-58l44 205h-102l13 57h101l23 110h-101l12 58h101l43 203h58l-43 -203h104l43 203h58zM311 262l23 110h-103l-23 -110h103z" />
<glyph unicode="$" d="M486 617l-12 -60q-56 25 -114 26l-50 -235q33 -18 52 -30.5t40.5 -32t31 -43.5t9.5 -55q0 -86 -60 -135t-148 -59l-22 -101h-51l21 99q-92 2 -156 41l13 65q65 -47 154 -47h2l51 244q-45 24 -69 40t-44.5 48t-20.5 72q0 82 66 134q54 44 142 52l21 99h51l-21 -98 q65 -3 114 -24zM264 373l44 206q-50 -9 -81.5 -38t-31.5 -75q0 -52 69 -93zM361 178q0 51 -68 91l-45 -213q50 11 81.5 42.5t31.5 79.5z" />
<glyph unicode="%" horiz-adv-x="809" d="M745 239q0 -93 -52 -170.5t-135 -77.5q-52 0 -82 34t-30 92q0 93 52 170.5t135 77.5q52 0 82 -34t30 -92zM564 642h62l-354 -651h-63zM391 516q0 -93 -52 -170.5t-135 -77.5q-52 0 -82 34t-30 92q0 93 52 170.5t135 77.5q52 0 82 -34t30 -92zM684 239q0 80 -58 80 q-36 0 -64 -33.5t-41.5 -79t-13.5 -88.5q0 -80 58 -80q36 0 64 33.5t41.5 79t13.5 88.5zM331 515q0 80 -59 80q-36 0 -64 -33.5t-41.5 -79t-13.5 -88.5q0 -80 58 -80q36 0 64.5 33.5t42 79t13.5 88.5z" />
<glyph unicode="&#x26;" horiz-adv-x="643" d="M344 375h275l-12 -54h-99l-40 -187q-6 -28 -6 -45q0 -43 48 -43q40 0 75 24l-11 -53q-35 -26 -90 -26q-39 0 -65.5 20t-28.5 57q-27 -35 -73.5 -56t-97.5 -21q-80 0 -130.5 42.5t-50.5 121.5q0 70 45 124.5t119 75.5q-28 11 -46.5 40t-18.5 66q0 82 65 131.5t156 49.5 q71 0 134 -28l-11 -52q-59 27 -120 27q-64 0 -106.5 -36.5t-42.5 -88.5q0 -40 28 -63q31 -26 104 -26zM413 223l21 98h-93q-110 0 -165 -41q-58 -44 -58 -120q0 -49 32 -79.5t82 -30.5q74 0 121 47q41 41 60 126z" />
<glyph unicode="'" horiz-adv-x="179" d="M205 616q0 -13 -8 -33l-55 -147h-30l8 145q2 30 10 43q13 18 41 18q34 0 34 -26z" />
<glyph unicode="(" horiz-adv-x="294" d="M360 685l11 -26q-103 -67 -160 -213q-33 -84 -59 -208.5t-26 -207.5q0 -132 70 -194l-22 -27q-119 63 -119 261q0 88 25.5 198t68.5 196q82 165 211 221z" />
<glyph unicode=")" horiz-adv-x="294" d="M239 425q0 -88 -25.5 -198.5t-68.5 -196.5q-82 -165 -211 -221l-11 27q100 65 156 201q34 83 61.5 212.5t27.5 215.5q0 131 -70 194l22 26q119 -63 119 -260z" />
<glyph unicode="*" horiz-adv-x="435" d="M441 538q0 -24 -37 -37l-121 -41l103 -41q24 -9 24 -26q0 -14 -13.5 -28t-26.5 -14t-27 14l-75 75l-4 -116q-2 -46 -41 -46q-28 0 -28 22q0 8 6 24l46 117l-109 -76q-21 -14 -32 -14t-17.5 9.5t-6.5 21.5q0 24 36 37l121 41l-103 41q-24 9 -24 26q0 14 13.5 28t26.5 14 t27 -14l76 -76l4 117q2 46 41 46q27 0 27 -22q0 -12 -5 -24l-46 -116l108 75q21 14 32 14t18 -9.5t7 -21.5z" />
<glyph unicode="+" horiz-adv-x="490" d="M292 349h123l-12 -57h-124l-26 -123h-58l25 123h-124l13 57h124l26 123h58z" />
<glyph unicode="," horiz-adv-x="239" d="M133 46q0 -46 -38 -91.5t-90 -72.5l-16 25q58 41 74 87q-33 8 -33 38q0 24 17 41t42 17q20 0 32 -12t12 -32z" />
<glyph unicode="-" horiz-adv-x="292" d="M41 270h220l-13 -62h-220z" />
<glyph unicode="." horiz-adv-x="239" d="M129 54q0 -23 -19 -41t-42 -18q-17 0 -28 11t-11 28q0 23 18.5 41t41.5 18q17 0 28.5 -11t11.5 -28z" />
<glyph unicode="/" horiz-adv-x="300" d="M307 642h71l-343 -651h-71z" />
<glyph unicode="0" d="M494 462q0 -51 -11 -111.5t-35 -124.5t-57 -116t-83 -85.5t-107 -33.5q-71 0 -111.5 48.5t-40.5 131.5q0 65 18.5 142.5t52.5 153t93 125.5t130 50t111 -48.5t40 -131.5zM414 463q0 60 -21.5 90.5t-60.5 30.5q-49 0 -90 -49t-64.5 -119t-36 -136t-12.5 -110 q0 -60 21.5 -90.5t60.5 -30.5q49 0 90 49t64.5 119t36 136t12.5 110z" />
<glyph unicode="1" d="M349 633h48l-124 -579h92l-11 -54h-271l11 54h102l105 494l-109 -55l-22 49z" />
<glyph unicode="2" d="M496 493q0 -59 -33 -105.5t-83 -80t-101.5 -66t-95.5 -79t-58 -103.5h282l-12 -59h-362l6 29q15 77 59.5 136t97 94.5t103 67.5t84 71.5t33.5 89.5q0 43 -24 69.5t-66 26.5q-89 0 -146 -101l-58 26q31 62 86 97.5t126 35.5q75 0 118.5 -40t43.5 -109z" />
<glyph unicode="3" d="M478 502q0 -59 -36 -104.5t-92 -60.5q43 -11 68 -45t25 -81q0 -95 -69 -158q-68 -62 -180 -62q-97 0 -165 40l12 60q59 -42 143 -42q81 0 131 45q47 42 47 113q0 93 -124 96l11 55q70 3 111 41.5t41 96.5q0 42 -25 65t-65 23q-86 0 -131 -88l-57 27q26 55 78 87t115 32 q72 0 117 -37.5t45 -102.5z" />
<glyph unicode="4" d="M391 194h80l-12 -59h-81l-28 -135h-69l28 135h-263l-24 42l338 466l54 -36l-300 -413h207l25 117h70z" />
<glyph unicode="5" d="M185 633h296l-12 -59h-234l-40 -190h45q112 0 161 -42q43 -37 43 -103q0 -110 -71 -179t-187 -69q-82 0 -144 36l12 57q57 -35 127 -35q84 0 134 51t50 133q0 46 -28 70q-32 25 -111 25h-106z" />
<glyph unicode="6" d="M498 630l-11 -53q-31 11 -75 11q-86 0 -149.5 -62.5t-98.5 -165.5q66 50 149 50q68 0 111 -38.5t43 -109.5q0 -112 -67 -191.5t-170 -79.5q-84 0 -127.5 56t-43.5 145q0 115 44.5 218t126.5 167.5t182 64.5q50 0 86 -12zM390 254q0 101 -96 101q-76 0 -147 -59 q-10 -52 -10 -102q0 -148 100 -148q69 0 111 66t42 142z" />
<glyph unicode="7" d="M494 633l19 -39l-352 -594h-81l345 574h-300l12 59h357z" />
<glyph unicode="8" d="M494 520q0 -62 -40 -108.5t-102 -72.5q104 -63 104 -151q0 -91 -67.5 -144t-161.5 -53q-78 0 -128 41.5t-50 110.5q0 72 47 122.5t119 74.5q-76 54 -76 124q0 77 56.5 127.5t144.5 50.5q65 0 109.5 -31.5t44.5 -90.5zM424 513q0 35 -24 57t-66 22q-56 0 -89.5 -32 t-33.5 -82q0 -37 22.5 -60.5t66.5 -49.5q53 21 88.5 57.5t35.5 87.5zM379 183q0 39 -28.5 66.5t-85.5 59.5q-141 -46 -141 -161q0 -46 31.5 -74.5t79.5 -28.5q63 0 103.5 38t40.5 100z" />
<glyph unicode="9" d="M487 441q0 -115 -45 -218t-127 -167.5t-182 -64.5q-46 0 -85 13l11 53q34 -12 74 -12q86 0 149.5 62.5t98.5 165.5q-66 -50 -149 -50q-68 0 -111 39t-43 110q0 112 67 191t170 79q85 0 128.5 -56.5t43.5 -144.5zM408 440q0 148 -100 148q-69 0 -111 -66t-42 -142 q0 -101 96 -101q77 0 147 58q10 52 10 103z" />
<glyph unicode=":" horiz-adv-x="242" d="M192 342q0 -23 -19 -40.5t-42 -17.5q-17 0 -28 11.5t-11 28.5q0 23 18 40.5t41 17.5q17 0 29 -11.5t12 -28.5zM130 54q0 -23 -19 -41t-42 -18q-17 0 -28 11t-11 28q0 23 18 41t41 18q17 0 29 -11t12 -28z" />
<glyph unicode=";" horiz-adv-x="241" d="M191 343q0 -23 -18.5 -41t-41.5 -18q-17 0 -28.5 11.5t-11.5 28.5q0 23 18.5 40.5t41.5 17.5q17 0 28.5 -11t11.5 -28zM133 46q0 -46 -38 -91.5t-90 -72.5l-16 25q58 41 74 87q-33 8 -33 38q0 24 17 41t42 17q20 0 32 -12t12 -32z" />
<glyph unicode="&#x3c;" horiz-adv-x="490" d="M104 347l333 125l-13 -62l-251 -90l214 -87l-14 -63l-281 124z" />
<glyph unicode="=" horiz-adv-x="490" d="M128 431h306l-12 -57h-306zM93 267h307l-12 -58h-306z" />
<glyph unicode="&#x3e;" horiz-adv-x="490" d="M144 472l281 -125l-12 -53l-333 -124l13 63l251 87l-213 90z" />
<glyph unicode="?" horiz-adv-x="427" d="M437 496q0 -85 -58 -136.5t-155 -66.5l-31 -108h-39l22 148q80 9 131 47t51 111q0 43 -26 67t-70 24q-73 0 -134 -69l-46 37q32 41 81.5 66.5t106.5 25.5q74 0 120.5 -39t46.5 -107zM195 54q0 -23 -19 -41t-42 -18q-17 0 -28 11t-11 28q0 23 18.5 41.5t41.5 18.5 q17 0 28.5 -11.5t11.5 -28.5z" />
<glyph unicode="@" horiz-adv-x="735" d="M707 403q0 -116 -52 -192t-142 -76q-29 0 -50.5 14t-23.5 37q-17 -24 -47.5 -39t-63.5 -15q-55 0 -85.5 33t-30.5 90q0 96 67.5 170.5t160.5 74.5q37 0 73 -17l40 11l-58 -271q-2 -12 -2 -16q0 -30 33 -30q50 0 82.5 65.5t32.5 158.5q0 94 -56.5 142.5t-143.5 48.5 q-142 0 -234.5 -101t-92.5 -240q0 -102 65.5 -157.5t172.5 -55.5q143 0 263 60l-11 -49q-53 -26 -126 -42t-138 -16q-129 0 -211 66.5t-82 192.5q0 104 50 193.5t142 144t206 54.5t188 -65t74 -174zM458 322l25 126q-22 8 -42 8q-71 0 -119.5 -63.5t-48.5 -134.5 q0 -82 68 -82q43 0 72 34q30 35 45 112z" />
<glyph unicode="A" horiz-adv-x="561" d="M401 633l96 -633h-84l-20 146h-261l-78 -146h-82l315 575h-61l12 58h163zM162 203h223l-38 286q-3 18 -3 42q0 22 1 30q-8 -33 -29 -74z" />
<glyph unicode="B" horiz-adv-x="552" d="M525 500q0 -56 -34.5 -101t-87.5 -63q46 -12 72 -46.5t26 -82.5q0 -86 -56 -139q-71 -68 -217 -68h-196l122 575h-60l12 58h235q98 0 142 -35q42 -33 42 -98zM446 493q0 41 -25 61q-26 21 -90 21h-94l-47 -220h88q78 0 123 36.5t45 101.5zM416 209q0 43 -30 67 q-31 26 -101 26h-106l-52 -244h88q106 0 154 43q47 42 47 108z" />
<glyph unicode="C" horiz-adv-x="553" d="M563 476v-9l-79 -1v6q0 109 -102 109q-60 0 -109.5 -38.5t-78.5 -97.5t-45 -121.5t-16 -117.5q0 -72 34.5 -112t105.5 -40q104 0 190 57l-15 -70q-87 -50 -186 -50q-103 0 -158.5 54.5t-55.5 156.5q0 58 14 119t43 118.5t68.5 102.5t95 72.5t118.5 27.5q81 0 128.5 -42.5 t47.5 -123.5z" />
<glyph unicode="D" horiz-adv-x="603" d="M587 419q0 -101 -41 -205.5t-115 -155.5q-84 -58 -232 -58h-168l122 575h-59l12 58h182q146 0 214 -41q85 -50 85 -173zM502 418q0 84 -47 120q-48 37 -165 37h-54l-110 -517h72q121 0 187 52q56 44 86.5 136t30.5 172z" />
<glyph unicode="E" horiz-adv-x="500" d="M162 633h363l-12 -58h-280l-48 -224h227l-12 -58h-227l-50 -235h302l-12 -58h-385z" />
<glyph unicode="F" horiz-adv-x="478" d="M162 633h363l-12 -58h-280l-48 -224h227l-12 -58h-227l-62 -293h-83z" />
<glyph unicode="G" horiz-adv-x="584" d="M565 476v-11l-80 -1q0 117 -103 117q-76 0 -136 -63q-53 -56 -83 -144.5t-30 -167.5q0 -76 32.5 -114.5t105.5 -38.5q32 0 70.5 12.5t62.5 31.5l27 130h-86l10 51h166l-58 -278h-53l-4 38q-65 -47 -156 -47q-96 0 -149 55.5t-53 152.5q0 99 38.5 200t107.5 165 q85 78 196 78q77 0 126 -44t49 -122z" />
<glyph unicode="H" horiz-adv-x="607" d="M529 633h83l-134 -633h-83l60 284h-284l-60 -284h-83l134 633h83l-60 -284h284z" />
<glyph unicode="I" horiz-adv-x="335" d="M143 633h216l-11 -49h-66l-114 -535h66l-10 -49h-215l10 49h66l114 535h-66z" />
<glyph unicode="J" horiz-adv-x="397" d="M152 633h250l-95 -450q-20 -95 -60 -138q-49 -54 -142 -54q-71 0 -114 24l12 57q41 -22 91 -22q57 0 85.5 31.5t44.5 103.5l83 390h-167z" />
<glyph unicode="K" horiz-adv-x="544" d="M490 633h82l-240 -315l88 -231q14 -40 47 -40q23 0 45 13l-11 -52q-24 -17 -61 -17q-40 0 -61 18t-37 58l-83 218h-88l-60 -285h-83l134 633h83l-60 -284h91z" />
<glyph unicode="L" horiz-adv-x="468" d="M123 58h289l-12 -58h-372l134 633h83z" />
<glyph unicode="M" horiz-adv-x="751" d="M678 633h78l-134 -633h-73l103 487q-14 -29 -48 -85l-250 -402h-51l-87 400q-9 43 -11 94l-105 -494h-72l134 633h79l103 -470q10 -43 8 -68q11 29 34 67z" />
<glyph unicode="N" horiz-adv-x="622" d="M556 633h71l-134 -633h-55l-207 436q-19 41 -25 68l-107 -504h-71l134 633h55l206 -432q19 -40 26 -71z" />
<glyph unicode="O" horiz-adv-x="593" d="M577 435q0 -73 -22.5 -149t-63 -143t-106.5 -109.5t-144 -42.5q-93 0 -143 56.5t-50 150.5q0 73 22.5 149t63 143t106.5 109.5t144 42.5q93 0 143 -56.5t50 -150.5zM492 432q0 68 -29.5 108t-85.5 40q-58 0 -106.5 -39.5t-77.5 -99t-44.5 -122.5t-15.5 -118 q0 -68 29.5 -108t85.5 -40q58 0 106.5 39.5t77.5 99t44.5 122.5t15.5 118z" />
<glyph unicode="P" horiz-adv-x="548" d="M559 474q0 -106 -76 -174q-78 -70 -219 -70h-100l-49 -230h-83l122 575h-60l12 58h232q122 0 174 -44q47 -38 47 -115zM474 469q0 60 -35.5 83t-104.5 23h-97l-62 -289h86q103 0 156 47q57 50 57 136z" />
<glyph unicode="Q" horiz-adv-x="593" d="M577 435q0 -72 -22 -147.5t-61.5 -142t-104.5 -110t-143 -44.5q-26 -23 -26 -54q0 -46 57 -46q71 0 154 67l-13 -61q-65 -62 -161 -62q-50 0 -80.5 25.5t-30.5 64.5q0 46 35 74q-65 17 -99 69.5t-34 129.5q0 73 22.5 149t63 143t106.5 109.5t144 42.5q93 0 143 -56.5 t50 -150.5zM492 432q0 68 -29.5 108t-85.5 40q-58 0 -106.5 -39.5t-77.5 -99t-44.5 -122.5t-15.5 -118q0 -68 29.5 -108t85.5 -40q58 0 106.5 39.5t77.5 99t44.5 122.5t15.5 118z" />
<glyph unicode="R" horiz-adv-x="579" d="M556 481q0 -97 -64 -159q-44 -44 -122 -62l66 -174q15 -38 46 -38q25 0 47 12l-12 -52q-22 -17 -62 -17q-38 0 -60.5 17.5t-37.5 58.5l-69 181h-121l-53 -248h-82l122 575h-60l12 58h229q118 0 170 -38q51 -37 51 -114zM471 477q0 54 -35 76t-102 22h-97l-58 -271h90 q92 0 143 39q59 45 59 134z" />
<glyph unicode="S" horiz-adv-x="489" d="M478 617l-12 -60q-59 26 -123 26q-65 0 -110.5 -30.5t-45.5 -86.5q0 -34 23 -57.5t66 -46.5q86 -46 112 -70q47 -43 47 -105q0 -96 -74.5 -146t-176.5 -50q-100 0 -165 41l13 65q65 -47 154 -47q69 0 118 33.5t49 94.5q0 33 -21.5 55.5t-62.5 44.5q-5 3 -24.5 13 t-25 13.5t-22.5 13t-22.5 14t-18.5 14.5t-18 17t-13 18.5t-11.5 21.5t-6 23.5t-2.5 27.5q0 82 66 134q69 54 175 54q72 0 132 -25z" />
<glyph unicode="T" horiz-adv-x="477" d="M94 633h454l-12 -58h-186l-122 -575h-83l122 575h-186z" />
<glyph unicode="U" horiz-adv-x="599" d="M524 633h82l-83 -387q-26 -124 -78 -181q-67 -74 -190 -74q-87 0 -138 41q-54 44 -54 124q0 33 15 103l79 374h82l-85 -400q-9 -45 -9 -72q0 -52 33 -82q32 -27 86 -27q135 0 173 176z" />
<glyph unicode="V" horiz-adv-x="512" d="M501 633h83l-341 -633h-86l-62 633h85l43 -475q4 -43 -2 -75h1q7 31 30 75z" />
<glyph unicode="W" horiz-adv-x="788" d="M785 633h76l-314 -633h-79l-33 423l-216 -423h-76l-50 633h80l34 -473q2 -45 -3 -76h1q11 43 26 72l194 382l-8 95h78l35 -470q3 -49 -3 -79h1q7 31 30 79z" />
<glyph unicode="X" horiz-adv-x="514" d="M474 633h82l-240 -314l81 -233q13 -39 44 -39q24 0 46 13l-12 -52q-24 -17 -63 -17q-38 0 -60.5 21t-38.5 65l-63 181l-196 -258h-84l256 327l-108 306h89l85 -244z" />
<glyph unicode="Y" horiz-adv-x="495" d="M495 633h78l-290 -411l-47 -222h-83l48 225l-117 408h88l79 -282q11 -40 9 -67h1q9 25 36 64z" />
<glyph unicode="Z" horiz-adv-x="483" d="M141 633h380q-6 -38 -50 -96l-367 -479h163q106 0 163 27l-14 -65q-48 -20 -159 -20h-261q5 39 46 92l371 483h-284z" />
<glyph unicode="[" horiz-adv-x="249" d="M168 684h161l-12 -58h-86l-160 -753h86l-12 -58h-161z" />
<glyph unicode="\" horiz-adv-x="280" d="M149 642l72 -651h-69l-72 651h69z" />
<glyph unicode="]" horiz-adv-x="249" d="M104 684h161l-184 -869h-161l12 58h86l160 753h-86z" />
<glyph unicode="^" horiz-adv-x="490" d="M356 625l79 -204h-67l-61 165l-134 -165h-67l169 205q13 16 28 16h30q16 0 23 -17z" />
<glyph unicode="_" horiz-adv-x="500" d="M-51 -49h494l-10 -49h-494z" />
<glyph unicode="`" horiz-adv-x="264" d="M287 562l-16 -23q-53 56 -109 56q-18 0 -39 -7q-7 11 -7 28q0 20 14 32.5t36 12.5q36 0 68 -29.5t53 -69.5z" />
<glyph unicode="a" horiz-adv-x="531" d="M447 472l47 13l-83 -382q-5 -23 -5 -31q0 -20 23 -20q25 0 47 13l-11 -52q-31 -18 -66 -18q-32 0 -50 17t-18 44q-20 -28 -59 -46.5t-82 -18.5q-73 0 -115 46t-42 124q0 130 93 231.5t224 101.5q55 0 97 -22zM364 239l41 188q-23 13 -56 13q-95 0 -166 -85.5t-71 -190.5 q0 -56 24.5 -86t69.5 -30q61 0 101 48q35 40 57 143z" />
<glyph unicode="b" horiz-adv-x="524" d="M492 329q0 -137 -81.5 -237.5t-212.5 -100.5q-94 0 -165 41l127 595h-66l12 57h143l-55 -258q25 30 64 49t80 19q69 0 109 -42q45 -47 45 -123zM413 323q0 53 -24 82.5t-69 29.5q-58 0 -100 -47q-44 -48 -67 -155l-36 -169q29 -19 82 -19q96 0 155 83t59 195z" />
<glyph unicode="c" horiz-adv-x="465" d="M453 357v-6l-74 -1v5q0 83 -74 83q-59 0 -105 -46.5t-67.5 -107t-21.5 -116.5q0 -120 119 -120q79 0 157 51l-13 -63q-68 -45 -157 -45q-86 0 -135.5 44.5t-49.5 129.5q0 80 33.5 154.5t99 124.5t147.5 50q65 0 103 -35.5t38 -101.5z" />
<glyph unicode="d" horiz-adv-x="537" d="M399 684h142l-123 -581q-5 -23 -5 -31q0 -20 23 -20q24 0 46 13l-11 -52q-28 -18 -67 -18q-29 0 -48.5 16t-19.5 45q-21 -27 -60.5 -46t-83.5 -19q-74 0 -117 46.5t-43 123.5q0 130 93 231.5t224 101.5q40 0 73 -11l31 144h-66zM370 239l40 189q-22 12 -60 12 q-96 0 -167.5 -85.5t-71.5 -190.5q0 -57 26.5 -86.5t72.5 -29.5q62 0 103 48q35 40 57 143z" />
<glyph unicode="e" horiz-adv-x="479" d="M460 374q0 -76 -66 -129t-175 -53q-61 0 -105 15q-3 -16 -3 -37q0 -59 30 -90.5t88 -31.5q40 0 86 15t76 36l-13 -63q-71 -45 -167 -45q-83 0 -131 46t-48 128q0 69 29 136.5t79 115.5q80 77 180 77q60 0 100 -31t40 -89zM386 372q0 66 -71 66q-46 0 -90 -31 q-73 -53 -100 -149q37 -13 91 -13q76 0 123 35t47 92z" />
<glyph unicode="f" horiz-adv-x="316" d="M404 682l-10 -51q-26 10 -60 10q-41 0 -65 -24q-26 -26 -38 -85l-10 -47h121l-12 -57h-121l-92 -428h-77l92 428h-72l12 57h72l11 49q16 75 47 111q42 51 125 51q45 0 77 -14z" />
<glyph unicode="g" horiz-adv-x="530" d="M460 472l49 13l-97 -453q-25 -112 -70 -165q-31 -36 -81 -57.5t-109 -21.5q-77 0 -125.5 34t-48.5 90q0 46 34 75.5t90 40.5q-27 19 -42.5 54.5t-15.5 76.5q0 132 92.5 233.5t223.5 101.5q58 0 100 -22zM379 239l41 189q-20 12 -56 12q-106 0 -173.5 -85.5t-67.5 -190.5 q0 -53 25 -81.5t69 -28.5q65 0 108 51q33 40 54 134zM330 8l11 50q-42 -51 -149 -63q-77 -9 -110.5 -26t-33.5 -56q0 -33 28 -54t76 -21q75 0 120 47q41 42 58 123z" />
<glyph unicode="h" horiz-adv-x="548" d="M500 61l-10 -52q-30 -18 -66 -18q-29 0 -49.5 15.5t-20.5 47.5q0 17 7 52l39 178q10 47 10 73q0 37 -23 57q-22 19 -63 19q-69 0 -113 -58q-34 -44 -59 -158l-47 -217h-77l147 684h77l-55 -256q23 29 62 47.5t83 18.5q64 0 105.5 -33t41.5 -94q0 -32 -14 -94l-38 -174 q-5 -23 -5 -31q0 -20 23 -20t45 13z" />
<glyph unicode="i" horiz-adv-x="264" d="M255 631q0 -23 -19.5 -41t-42.5 -18q-17 0 -28 11t-11 28q0 23 18.5 41t41.5 18q17 0 29 -11t12 -28zM76 485h143l-82 -386q-5 -23 -5 -31q0 -20 23 -20t45 13l-10 -52q-30 -18 -66 -18q-29 0 -49.5 15.5t-20.5 47.5q0 22 7 52l69 322h-66z" />
<glyph unicode="j" horiz-adv-x="244" d="M257 631q0 -23 -19.5 -41t-42.5 -18q-17 0 -28 11t-11 28q0 23 18.5 41t41.5 18q17 0 29 -11t12 -28zM78 485h143l-94 -439q-21 -99 -54 -153q-39 -65 -111 -101l-42 31q56 38 83 86.5t45 130.5l84 388h-66z" />
<glyph unicode="k" horiz-adv-x="537" d="M504 374q0 -68 -48.5 -117t-126.5 -64l55 -116q15 -32 39 -32q20 0 43 14l-11 -51q-23 -17 -58 -17q-31 0 -48 16t-35 53l-59 126q-60 0 -105 12l-42 -198h-77l134 627h-66l12 57h143l-61 -283q30 40 77 66.5t97 26.5q60 0 98.5 -31.5t38.5 -88.5zM432 369q0 33 -21 51 t-55 18q-66 0 -121 -58t-74 -132q39 -11 85 -11q86 0 136 37t50 95z" />
<glyph unicode="l" horiz-adv-x="255" d="M110 684h143l-124 -585q-4 -24 -4 -31q0 -20 23 -20t45 13l-11 -52q-31 -18 -65 -18q-33 0 -52 16.5t-19 47.5q0 19 6 45l112 527h-66z" />
<glyph unicode="m" horiz-adv-x="854" d="M806 61l-10 -52q-30 -18 -66 -18q-29 0 -49.5 15.5t-20.5 47.5q0 17 7 52l39 178q10 47 10 73q0 76 -82 76q-67 0 -111 -58q-34 -45 -56 -146l-49 -229h-77l61 284q10 47 10 73q0 76 -83 76q-66 0 -110 -58q-35 -45 -59 -158l-47 -217h-77l92 428h-66l12 57h120l-3 -70 q24 34 66 56.5t90 22.5q52 0 88.5 -22t48.5 -65q29 41 73.5 64t94.5 23q63 0 103 -33t40 -94q0 -32 -14 -94l-38 -174q-5 -23 -5 -31q0 -20 23 -20t45 13z" />
<glyph unicode="n" horiz-adv-x="556" d="M508 61l-10 -52q-30 -18 -66 -18q-29 0 -49.5 15.5t-20.5 47.5q0 17 7 52l39 178q10 47 10 73q0 37 -23 57q-22 19 -63 19q-69 0 -113 -58q-34 -44 -59 -158l-47 -217h-77l92 428h-66l12 57h120l-3 -70q24 34 67 56.5t92 22.5q64 0 105.5 -33t41.5 -94q0 -32 -14 -94 l-38 -174q-5 -23 -5 -31q0 -20 23 -20t45 13z" />
<glyph unicode="o" horiz-adv-x="512" d="M480 326q0 -73 -28.5 -145.5t-78.5 -120.5q-71 -69 -171 -69q-77 0 -123.5 44.5t-46.5 124.5q0 73 28.5 145t78.5 120q71 69 171 69q77 0 123.5 -44.5t46.5 -123.5zM401 322q0 54 -26.5 85t-75.5 31q-59 0 -105 -49q-39 -41 -61 -103t-22 -123q0 -54 26.5 -85t75.5 -31 q58 0 105 50q39 41 61 102.5t22 122.5z" />
<glyph unicode="p" horiz-adv-x="524" d="M492 329q0 -87 -34.5 -163t-104.5 -125.5t-161 -49.5q-41 0 -75 12l-42 -202h-77l125 587q-53 -26 -85 -51l14 66q38 26 84 47l23 105l80 13l-19 -89q40 15 93 15q81 0 130 -42.5t49 -122.5zM413 323q0 115 -113 115q-46 0 -93 -18l-78 -365q22 -10 62 -10q96 0 159 83 t63 195z" />
<glyph unicode="q" horiz-adv-x="524" d="M451 472l51 13l-114 -531q-8 -40 -8 -63q0 -41 34 -70l-68 -29q-44 35 -44 92q0 22 9 69l22 104q-19 -27 -58.5 -46.5t-83.5 -19.5q-70 0 -111 39q-48 45 -48 130q0 131 94.5 232.5t221.5 101.5q62 0 103 -22zM376 258l37 169q-28 13 -63 13q-67 0 -123 -43.5t-86 -107 t-30 -126.5q0 -54 26 -84.5t72 -30.5q66 0 109 58q34 46 58 152z" />
<glyph unicode="r" horiz-adv-x="341" d="M356 491l-15 -67q-15 3 -28 3q-50 0 -83 -35q-25 -26 -40.5 -70.5t-31.5 -116.5l-45 -205h-77l92 428h-66l12 57h120l-4 -73q48 82 134 82q23 0 32 -3z" />
<glyph unicode="s" horiz-adv-x="415" d="M395 470l-11 -54q-51 24 -113 24q-54 0 -86.5 -22.5t-32.5 -56.5q0 -26 21 -44.5t64 -39.5q66 -33 94 -61.5t28 -74.5q0 -73 -58.5 -111.5t-145.5 -38.5t-147 38l13 58q59 -41 138 -41q57 0 91 23t34 63q0 28 -21 46t-77 46q-51 25 -79.5 53.5t-28.5 74.5q0 62 53 101 q53 41 144 41q70 0 120 -24z" />
<glyph unicode="t" horiz-adv-x="345" d="M217 485h116l-12 -57h-116l-61 -286q-5 -23 -5 -40q0 -53 58 -53q48 0 89 27l-12 -58q-43 -27 -101 -27q-51 0 -81.5 26t-30.5 73q0 25 8 63l59 275h-72l12 57h72l27 127l83 26z" />
<glyph unicode="u" horiz-adv-x="541" d="M429 485h77l-82 -382q-5 -23 -5 -31q0 -20 23 -20q24 0 46 13l-10 -52q-30 -18 -66 -18q-68 0 -71 62q-57 -66 -149 -66q-64 0 -105.5 33t-41.5 94q0 32 14 94l59 273h77l-61 -284q-10 -47 -10 -73q0 -37 23 -57q22 -19 63 -19q69 0 113 58q34 44 59 158z" />
<glyph unicode="v" horiz-adv-x="439" d="M399 485h72l-280 -485h-67l-72 485h80l39 -318q7 -56 6 -88q10 29 45 90z" />
<glyph unicode="w" horiz-adv-x="654" d="M619 485h67l-255 -485h-61l-33 289l-159 -289h-60l-62 485h77l35 -311q6 -48 6 -90q14 38 43 92l110 204l-12 105h73l31 -311q5 -43 3 -90q21 61 38 92z" />
<glyph unicode="x" horiz-adv-x="453" d="M394 485h72l-203 -239l68 -165q16 -37 43 -37q23 0 45 13l-11 -49q-25 -17 -59 -17q-60 0 -87 65l-56 134l-161 -190h-74l212 244l-100 241h82l76 -185z" />
<glyph unicode="y" horiz-adv-x="529" d="M431 485h77l-97 -452q-23 -111 -71 -166q-31 -36 -81 -57.5t-109 -21.5q-77 0 -125.5 34t-48.5 90q0 86 115 112q-44 36 -44 94q0 32 14 94l59 273h77l-61 -284q-10 -47 -10 -73q0 -37 23 -57q22 -19 63 -19q69 0 113 58q34 44 59 158zM328 8l11 49q-43 -52 -149 -64 q-77 -8 -110.5 -24.5t-33.5 -55.5q0 -34 29 -54.5t75 -20.5q74 0 120 48q40 42 58 122z" />
<glyph unicode="z" horiz-adv-x="430" d="M116 485h320q-6 -43 -40 -83l-294 -345h146q73 0 112 17l-12 -59q-33 -15 -111 -15h-234q5 44 48 94l286 334h-233z" />
<glyph unicode="{" horiz-adv-x="292" d="M326 684h30l-8 -40h-21q-33 0 -48 -14.5t-22 -47.5q-9 -38 -15 -115.5t-14 -114.5q-20 -92 -102 -112q59 -17 59 -74q0 -39 -34 -140t-39 -127q-3 -12 -3 -25q0 -38 46 -38h21l-8 -40h-31q-98 0 -98 77q0 13 4 37q7 39 27 114.5t27 113.5q4 20 4 30q0 26 -15 37t-45 17 l8 37q43 4 62.5 22t29.5 62q9 38 22 114t21 114q13 59 47.5 86t94.5 27z" />
<glyph unicode="|" horiz-adv-x="214" d="M184 750h61l-212 -1000h-61z" />
<glyph unicode="}" horiz-adv-x="292" d="M253 607q0 -13 -4 -37q-8 -39 -27.5 -114.5t-26.5 -113.5q-4 -20 -4 -30q0 -26 15 -37t45 -17l-8 -37q-43 -4 -62.5 -22t-29.5 -62q-9 -38 -21.5 -114t-21.5 -114q-13 -59 -47.5 -86t-94.5 -27h-30l8 40h21q33 0 48 14.5t22 47.5q9 38 15 115.5t14 114.5q20 92 102 112 q-59 17 -59 74q0 39 34 140t39 127q3 12 3 25q0 38 -46 38h-21l8 40h31q98 0 98 -77z" />
<glyph unicode="~" horiz-adv-x="490" d="M440 321l26 -25q-75 -119 -158 -119q-38 0 -77.5 37t-70.5 37q-42 0 -107 -71l-26 24q75 119 158 119q32 0 57.5 -18.5t46.5 -37t44 -18.5q25 0 49 17t58 55z" />
<glyph unicode="&#xa1;" horiz-adv-x="304" d="M32 -120q0 14 5 29l112 394h37l-55 -399q-8 -57 -59 -57q-40 0 -40 33zM147 435q0 23 19 41t42 18q17 0 28.5 -11t11.5 -28q0 -23 -18.5 -41t-41.5 -18q-17 0 -29 11t-12 28z" />
<glyph unicode="&#xa2;" d="M476 357v-6l-74 -1v5q0 75 -62 82l-84 -389q80 2 154 51l-13 -63q-66 -43 -153 -45l-21 -99h-51l22 103q-65 11 -102 54t-37 116q0 116 68.5 214t176.5 113l22 101h51l-21 -100q58 -5 91 -40t33 -96zM207 54l81 378q-47 -14 -83.5 -60.5t-53.5 -100.5t-17 -103 q0 -93 73 -114z" />
<glyph unicode="&#xa3;" d="M520 486l-73 -7q-6 46 -36 75t-77 29q-61 0 -97.5 -37t-36.5 -99q0 -34 20 -110h185l-9 -46h-165q11 -46 11 -72q0 -100 -104 -161h301l-12 -58h-395l10 48q52 26 85 70.5t33 96.5q0 30 -12 76h-102l9 46h81q-16 60 -16 98q0 94 60.5 150.5t156.5 56.5q75 0 125.5 -41.5 t57.5 -114.5z" />
<glyph unicode="&#xa4;" d="M239 136q-55 0 -91 33l-54 -57h-66l91 98q-11 28 -11 61q0 89 54 156l-49 95h63l28 -55q42 31 98 31q52 0 87 -30l51 54h66l-87 -93q14 -30 14 -66q0 -96 -58 -162l46 -89h-63l-26 51q-40 -27 -93 -27zM241 186q46 0 81 45q43 56 43 132q0 37 -17.5 61t-47.5 24 q-46 0 -81 -45q-43 -56 -43 -132q0 -37 17.5 -61t47.5 -24z" />
<glyph unicode="&#xa5;" d="M502 633h78l-270 -382h127l-11 -51h-141l-10 -46h141l-11 -51h-141l-21 -103h-83l22 103h-132l11 51h132l9 46h-131l11 51h118l-109 382h88l79 -282q11 -36 9 -67h1q9 25 36 64z" />
<glyph unicode="&#xa6;" horiz-adv-x="214" d="M184 750h61l-80 -380h-61zM53 130h61l-80 -380h-61z" />
<glyph unicode="&#xa7;" d="M475 619l-11 -50q-50 20 -112 20q-59 0 -91.5 -29.5t-32.5 -71.5q0 -27 19 -47t59 -45q68 -43 89 -66q32 -36 32 -81q0 -68 -49.5 -113.5t-117.5 -59.5q33 -22 51.5 -37.5t34 -41.5t15.5 -57q0 -73 -59 -120t-140 -47q-74 0 -124 23l12 52q49 -22 112 -22q57 0 90 30 t33 71q0 27 -19 47t-59 45q-26 16 -35 22t-30 22.5t-30 29t-17 32.5t-8 42q0 68 48.5 113.5t118.5 58.5q-34 23 -52.5 38t-34 41t-15.5 57q0 75 58.5 121t141.5 46q66 0 123 -23zM351 235q0 36 -46 70q-70 -10 -106.5 -42t-36.5 -82q0 -36 47 -71q142 22 142 125z" />
<glyph unicode="&#xa8;" horiz-adv-x="264" d="M341 623q0 -24 -18.5 -41.5t-42.5 -17.5q-17 0 -28 10t-11 27q0 24 18.5 42.5t42.5 18.5q17 0 28 -11t11 -28zM178 623q0 -24 -18.5 -41.5t-42.5 -17.5q-18 0 -29 10t-11 27q0 24 19 42.5t43 18.5q17 0 28 -11t11 -28z" />
<glyph unicode="&#xa9;" horiz-adv-x="727" d="M710 398q0 -166 -116.5 -286.5t-285.5 -120.5q-116 0 -190 64.5t-74 180.5q0 166 116.5 286t285.5 120q116 0 190 -64t74 -180zM656 393q0 99 -59.5 152t-159.5 53q-146 0 -242.5 -105.5t-96.5 -251.5q0 -99 60 -152.5t160 -53.5q145 0 241.5 105.5t96.5 252.5zM516 389 l-57 -1q2 61 -46 61q-55 0 -89 -62t-34 -127q0 -72 65 -72q58 0 110 34l-11 -54q-48 -28 -105 -28t-88 30t-31 88q0 89 52 163.5t134 74.5q48 0 75 -27.5t25 -79.5z" />
<glyph unicode="&#xaa;" horiz-adv-x="355" d="M337 628l29 9l-48 -230q0 -3 -1.5 -9.5t-1.5 -8.5q0 -12 14 -12q13 0 27 8l-6 -31q-18 -11 -40 -11q-42 0 -42 36q-12 -16 -36 -27.5t-50 -11.5q-44 0 -69.5 28t-25.5 74q0 78 55.5 139t134.5 61q32 0 60 -14zM289 489l24 114q-16 7 -36 7q-57 0 -100 -51.5t-43 -114.5 q0 -69 59 -69q38 0 61 28t35 86z" />
<glyph unicode="&#xab;" horiz-adv-x="404" d="M370 412l6 -49l-117 -121l67 -121l-29 -48l-105 150q-7 12 -7 16q0 7 15 22zM229 412l6 -49l-118 -121l67 -121l-28 -48l-105 150q-7 12 -7 16q0 8 14 22z" />
<glyph unicode="&#xac;" horiz-adv-x="490" d="M123 431h307l-46 -218h-58l33 161h-248z" />
<glyph unicode="&#xad;" horiz-adv-x="292" d="M41 270h220l-13 -62h-220z" />
<glyph unicode="&#xae;" horiz-adv-x="727" d="M710 398q0 -166 -116.5 -286.5t-285.5 -120.5q-116 0 -190 64.5t-74 180.5q0 166 116.5 286t285.5 120q116 0 190 -64t74 -180zM656 393q0 99 -59.5 152t-159.5 53q-146 0 -242.5 -105.5t-96.5 -251.5q0 -99 60 -152.5t160 -53.5q145 0 241.5 105.5t96.5 252.5zM522 408 q0 -45 -27 -78.5t-70 -46.5l31 -84q6 -16 21 -16t28 8l-9 -38q-14 -12 -37 -12q-43 0 -58 42l-33 91h-58l-28 -131h-57l65 304h-30l9 42h138q62 0 89 -23q26 -21 26 -58zM462 403q0 44 -66 44h-49l-28 -130h51q44 0 67 22q25 23 25 64z" />
<glyph unicode="&#xaf;" horiz-adv-x="264" d="M109 656h215l-11 -54h-214z" />
<glyph unicode="&#xb0;" horiz-adv-x="414" d="M412 521q0 -78 -55 -138t-136 -60q-56 0 -90 32.5t-34 88.5q0 78 55 138t136 60q56 0 90 -32.5t34 -88.5zM354 516q0 37 -19 59t-56 22q-55 0 -89.5 -45.5t-34.5 -102.5q0 -37 19 -59t56 -22q55 0 89.5 45.5t34.5 102.5z" />
<glyph unicode="&#xb1;" horiz-adv-x="490" d="M293 349h124l-12 -57h-123l-27 -123h-58l26 123h-124l12 57h124l26 123h59zM49 58h307l-12 -58h-307z" />
<glyph unicode="&#xb2;" horiz-adv-x="360" d="M367 547q0 -36 -19 -64.5t-48.5 -48.5t-59.5 -39t-57 -45.5t-37 -57.5h169l-10 -47h-229l5 25q9 46 36 82t58 58t61.5 41t50.5 42t20 51q0 23 -13 37t-35 14q-50 0 -85 -62l-45 20q43 89 135 89q47 0 75 -25.5t28 -69.5z" />
<glyph unicode="&#xb3;" horiz-adv-x="360" d="M351 552q0 -33 -18 -59.5t-47 -39.5q44 -22 44 -76q0 -64 -45.5 -101t-109.5 -37q-58 0 -106 27l10 50q44 -30 90 -30q44 0 72 23t28 66q0 51 -75 52l9 45q43 1 66.5 23t23.5 54q0 23 -12.5 35t-34.5 12q-50 0 -77 -55l-44 21q37 80 123 80q45 0 74 -24t29 -66z" />
<glyph unicode="&#xb4;" horiz-adv-x="264" d="M299 632q0 -24 -21 -45q-18 8 -38 8q-61 0 -129 -55l-10 22q34 39 79 69t82 30t37 -29z" />
<glyph unicode="&#xb5;" horiz-adv-x="554" d="M442 485h77l-83 -386q-5 -23 -5 -31q0 -20 23 -20q24 0 46 13l-10 -52q-30 -18 -66 -18q-70 0 -70 66q-57 -66 -149 -66q-58 0 -96 26l-51 -237h-77l150 705h77l-67 -315q-4 -20 -4 -42q0 -37 23 -57q22 -19 63 -19q69 0 113 58q34 44 59 158z" />
<glyph unicode="&#xb6;" horiz-adv-x="455" d="M283 633h208l-10 -48h-70l-172 -812h-56l172 812h-55l-172 -812h-55l124 585q-46 1 -77.5 31.5t-31.5 77.5q0 70 52 117q54 49 143 49z" />
<glyph unicode="&#xb7;" horiz-adv-x="237" d="M175 261q-2 -22 -20.5 -38.5t-40.5 -16.5q-19 0 -29.5 12.5t-8.5 31.5q2 22 19.5 38t39.5 16q18 0 29.5 -12t10.5 -31z" />
<glyph unicode="&#xb8;" horiz-adv-x="264" d="M157 -92q0 -41 -40.5 -59.5t-91.5 -18.5l-2 27q29 1 55.5 9.5t26.5 25.5q0 14 -40 26.5t-40 30.5q0 24 26 48l41 38l22 -16l-24 -22q-15 -15 -15 -25q0 -8 13 -14t28 -10t28 -14t13 -26z" />
<glyph unicode="&#xb9;" horiz-adv-x="360" d="M267 642h37l-74 -347h55l-9 -45h-174l8 45h62l59 279l-58 -29l-19 40z" />
<glyph unicode="&#xba;" horiz-adv-x="355" d="M364 541q0 -44 -17 -87t-47 -72q-44 -42 -103 -42q-47 0 -74.5 26.5t-27.5 74.5q0 44 17 87.5t47 72.5q43 41 103 41q46 0 74 -26.5t28 -74.5zM317 539q0 33 -16 51.5t-46 18.5q-35 0 -63 -30q-50 -53 -50 -135q0 -33 16 -51.5t46 -18.5q35 0 63 30q50 53 50 135z" />
<glyph unicode="&#xbb;" horiz-adv-x="404" d="M365 245q0 -8 -14 -22l-171 -150l-6 48l118 121l-67 121l28 49l105 -151q7 -12 7 -16zM223 245q0 -8 -14 -22l-170 -150l-6 48l117 121l-67 121l29 49l105 -151q6 -10 6 -16z" />
<glyph unicode="&#xbc;" horiz-adv-x="776" d="M655 128h48l-10 -47h-49l-16 -81h-54l16 81h-160l-15 32l212 287l43 -27l-183 -245h114l15 70h53zM545 642h59l-348 -651h-59zM254 642h38l-74 -347h55l-9 -45h-175l9 45h62l59 279l-59 -29l-19 40z" />
<glyph unicode="&#xbd;" horiz-adv-x="776" d="M720 302q0 -36 -19 -64t-48.5 -48t-59.5 -39t-57 -45.5t-37 -58.5h168l-9 -47h-229l4 25q7 45 33 80.5t58 57.5t63 41.5t52 43t21 51.5q0 23 -13 37t-35 14q-51 0 -86 -62l-45 20q43 89 135 89q47 0 75.5 -26t28.5 -69zM538 642h58l-348 -651h-58zM249 642h37l-74 -347 h55l-9 -45h-174l8 45h62l59 279l-58 -29l-19 40z" />
<glyph unicode="&#xbe;" horiz-adv-x="776" d="M670 128h48l-10 -47h-48l-17 -81h-54l17 81h-160l-16 32l213 287l42 -27l-182 -245h113l15 70h54zM571 642h59l-348 -651h-59zM357 552q0 -33 -18.5 -59.5t-47.5 -39.5q45 -23 45 -76q0 -64 -45.5 -101t-110.5 -37q-57 0 -105 27l10 50q44 -30 89 -30q44 0 72.5 23 t28.5 66q0 51 -76 52l10 45q43 1 66.5 23t23.5 54q0 23 -13 35t-35 12q-49 0 -76 -55l-45 21q18 38 51 59t73 21q45 0 74 -24t29 -66z" />
<glyph unicode="&#xbf;" horiz-adv-x="433" d="M5 -7q0 85 58 136.5t155 66.5l31 108h39l-22 -148q-80 -9 -131 -47t-51 -111q0 -43 26 -67t70 -24q73 0 134 69l46 -37q-32 -41 -81.5 -66.5t-106.5 -25.5q-74 0 -120.5 39t-46.5 107zM247 435q0 23 19 41t42 18q17 0 28 -11t11 -28q0 -23 -18.5 -41.5t-41.5 -18.5 q-17 0 -28.5 11.5t-11.5 28.5z" />
<glyph unicode="&#xc0;" horiz-adv-x="561" d="M401 633l96 -633h-84l-20 146h-261l-78 -146h-82l315 575h-61l12 58h163zM162 203h223l-38 286q-3 18 -3 42q0 22 1 30q-8 -33 -29 -74zM454 700l-16 -23q-53 56 -109 56q-18 0 -39 -7q-7 11 -7 28q0 20 13.5 32.5t36.5 12.5q36 0 68 -29.5t53 -69.5z" />
<glyph unicode="&#xc1;" horiz-adv-x="561" d="M401 633l96 -633h-84l-20 146h-261l-78 -146h-82l315 575h-61l12 58h163zM162 203h223l-38 286q-3 18 -3 42q0 22 1 30q-8 -33 -29 -74zM437 770q0 -24 -21 -45q-18 8 -38 8q-61 0 -129 -55l-10 22q34 39 79 69t82 30t37 -29z" />
<glyph unicode="&#xc2;" horiz-adv-x="561" d="M401 633l96 -633h-84l-20 146h-261l-78 -146h-82l315 575h-61l12 58h163zM162 203h223l-38 286q-3 18 -3 42q0 22 1 30q-8 -33 -29 -74zM414 791l55 -98h-59l-42 75l-75 -75h-59l97 98q18 18 35 18h22q16 0 26 -18z" />
<glyph unicode="&#xc3;" horiz-adv-x="561" d="M401 633l96 -633h-84l-20 146h-261l-78 -146h-82l315 575h-61l12 58h163zM162 203h223l-38 286q-3 18 -3 42q0 22 1 30q-8 -33 -29 -74zM454 794h30q-24 -89 -88 -89q-24 0 -50 18.5t-41 18.5q-23 0 -42 -37h-30q25 89 88 89q23 0 49 -18.5t42 -18.5q24 0 42 37z" />
<glyph unicode="&#xc4;" horiz-adv-x="561" d="M401 633l96 -633h-84l-20 146h-261l-78 -146h-82l315 575h-61l12 58h163zM162 203h223l-38 286q-3 18 -3 42q0 22 1 30q-8 -33 -29 -74zM495 764q0 -24 -18.5 -41.5t-42.5 -17.5q-17 0 -28 10t-11 27q0 24 18.5 42.5t42.5 18.5q17 0 28 -11t11 -28zM332 764 q0 -24 -18.5 -41.5t-42.5 -17.5q-18 0 -29 10t-11 27q0 24 19 42.5t43 18.5q17 0 28 -11t11 -28z" />
<glyph unicode="&#xc5;" horiz-adv-x="561" d="M401 633l96 -633h-84l-20 146h-261l-78 -146h-82l315 575h-61l12 58h163zM162 203h223l-38 286q-3 18 -3 42q0 22 1 30q-8 -33 -29 -74zM448 782q0 -41 -30 -69.5t-72 -28.5q-29 0 -47.5 16.5t-18.5 45.5q0 40 30 69t71 29q29 0 48 -16.5t19 -45.5zM408 776 q0 16 -9.5 25.5t-25.5 9.5q-22 0 -37.5 -18t-15.5 -40q0 -16 9 -25.5t25 -9.5q22 0 38 18t16 40z" />
<glyph unicode="&#xc6;" horiz-adv-x="825" d="M330 633h520l-12 -58h-280l-48 -224h227l-12 -58h-227l-50 -235h302l-12 -58h-385l31 147h-236l-111 -147h-89l449 575h-79zM396 204l78 366l-281 -366h203z" />
<glyph unicode="&#xc7;" horiz-adv-x="553" d="M563 476v-9l-79 -1v6q0 109 -102 109q-60 0 -109.5 -38.5t-78.5 -97.5t-45 -121.5t-16 -117.5q0 -72 34.5 -112t105.5 -40q104 0 190 57l-15 -70q-87 -50 -186 -50q-11 0 -17 1q-9 -11 -9 -20q0 -8 13 -14t28 -10t28 -14t13 -26q0 -41 -40.5 -59.5t-91.5 -18.5l-2 27 q29 1 55.5 9.5t26.5 25.5q0 14 -40 26.5t-40 30.5q0 23 24 46q-79 13 -120.5 65.5t-41.5 141.5q0 58 14 119t43 118.5t68.5 102.5t95 72.5t118.5 27.5q81 0 128.5 -42.5t47.5 -123.5z" />
<glyph unicode="&#xc8;" horiz-adv-x="500" d="M162 633h363l-12 -58h-280l-48 -224h227l-12 -58h-227l-50 -235h302l-12 -58h-385zM447 700l-16 -23q-53 56 -109 56q-18 0 -39 -7q-7 11 -7 28q0 20 14 32.5t36 12.5q36 0 68 -29.5t53 -69.5z" />
<glyph unicode="&#xc9;" horiz-adv-x="500" d="M162 633h363l-12 -58h-280l-48 -224h227l-12 -58h-227l-50 -235h302l-12 -58h-385zM461 770q0 -24 -21 -45q-18 8 -38 8q-61 0 -129 -55l-10 22q34 39 79 69t82 30t37 -29z" />
<glyph unicode="&#xca;" horiz-adv-x="500" d="M162 633h363l-12 -58h-280l-48 -224h227l-12 -58h-227l-50 -235h302l-12 -58h-385zM415 791l55 -98h-59l-42 75l-75 -75h-59l97 98q18 18 35 18h22q16 0 26 -18z" />
<glyph unicode="&#xcb;" horiz-adv-x="500" d="M162 633h363l-12 -58h-280l-48 -224h227l-12 -58h-227l-50 -235h302l-12 -58h-385zM493 765q0 -23 -18.5 -40.5t-41.5 -17.5q-17 0 -28 10t-11 27q0 23 18.5 41t41.5 18q17 0 28 -10.5t11 -27.5zM332 765q0 -23 -18 -40.5t-42 -17.5q-17 0 -28 10t-11 27q0 23 19 41 t42 18q17 0 27.5 -10.5t10.5 -27.5z" />
<glyph unicode="&#xcc;" horiz-adv-x="335" d="M143 633h216l-11 -49h-66l-114 -535h66l-10 -49h-215l10 49h66l114 535h-66zM355 700l-16 -23q-53 56 -109 56q-18 0 -39 -7q-7 11 -7 28q0 20 14 32.5t36 12.5q36 0 68 -29.5t53 -69.5z" />
<glyph unicode="&#xcd;" horiz-adv-x="335" d="M143 633h216l-11 -49h-66l-114 -535h66l-10 -49h-215l10 49h66l114 535h-66zM363 770q0 -24 -21 -45q-18 8 -38 8q-61 0 -129 -55l-10 22q34 39 79 69t82 30t37 -29z" />
<glyph unicode="&#xce;" horiz-adv-x="335" d="M143 633h216l-11 -49h-66l-114 -535h66l-10 -49h-215l10 49h66l114 535h-66zM324 791l55 -98h-59l-42 75l-75 -75h-59l97 98q18 18 35 18h22q16 0 26 -18z" />
<glyph unicode="&#xcf;" horiz-adv-x="335" d="M143 633h216l-11 -49h-66l-114 -535h66l-10 -49h-215l10 49h66l114 535h-66zM401 764q0 -24 -18.5 -41.5t-42.5 -17.5q-17 0 -28 10t-11 27q0 24 18.5 42.5t42.5 18.5q17 0 28 -11t11 -28zM238 764q0 -24 -18.5 -41.5t-42.5 -17.5q-18 0 -29 10t-11 27q0 24 19 42.5 t43 18.5q17 0 28 -11t11 -28z" />
<glyph unicode="&#xd0;" horiz-adv-x="604" d="M588 419q0 -101 -41.5 -205.5t-115.5 -155.5q-84 -58 -232 -58h-167l62 294h-81l12 58h81l47 223h-58l12 58h181q147 0 215 -41q85 -50 85 -173zM503 418q0 83 -48 120t-164 37h-55l-47 -223h108l-12 -58h-108l-51 -236h73q120 0 186 52q56 44 87 136t31 172z" />
<glyph unicode="&#xd1;" horiz-adv-x="622" d="M556 633h71l-134 -633h-55l-207 436q-19 41 -25 68l-107 -504h-71l134 633h55l206 -432q19 -40 26 -71zM507 794h30q-24 -89 -88 -89q-24 0 -50 18.5t-41 18.5q-24 0 -42 -37h-30q25 89 88 89q23 0 49 -18.5t42 -18.5q23 0 42 37z" />
<glyph unicode="&#xd2;" horiz-adv-x="593" d="M577 435q0 -73 -22.5 -149t-63 -143t-106.5 -109.5t-144 -42.5q-93 0 -143 56.5t-50 150.5q0 73 22.5 149t63 143t106.5 109.5t144 42.5q93 0 143 -56.5t50 -150.5zM492 432q0 68 -29.5 108t-85.5 40q-58 0 -106.5 -39.5t-77.5 -99t-44.5 -122.5t-15.5 -118 q0 -68 29.5 -108t85.5 -40q58 0 106.5 39.5t77.5 99t44.5 122.5t15.5 118zM503 700l-16 -23q-53 56 -109 56q-18 0 -39 -7q-7 11 -7 28q0 20 14 32.5t36 12.5q36 0 68 -29.5t53 -69.5z" />
<glyph unicode="&#xd3;" horiz-adv-x="593" d="M577 435q0 -73 -22.5 -149t-63 -143t-106.5 -109.5t-144 -42.5q-93 0 -143 56.5t-50 150.5q0 73 22.5 149t63 143t106.5 109.5t144 42.5q93 0 143 -56.5t50 -150.5zM492 432q0 68 -29.5 108t-85.5 40q-58 0 -106.5 -39.5t-77.5 -99t-44.5 -122.5t-15.5 -118 q0 -68 29.5 -108t85.5 -40q58 0 106.5 39.5t77.5 99t44.5 122.5t15.5 118zM485 770q0 -24 -21 -45q-18 8 -38 8q-61 0 -129 -55l-10 22q34 39 79 69t82 30t37 -29z" />
<glyph unicode="&#xd4;" horiz-adv-x="593" d="M577 435q0 -73 -22.5 -149t-63 -143t-106.5 -109.5t-144 -42.5q-93 0 -143 56.5t-50 150.5q0 73 22.5 149t63 143t106.5 109.5t144 42.5q93 0 143 -56.5t50 -150.5zM492 432q0 68 -29.5 108t-85.5 40q-58 0 -106.5 -39.5t-77.5 -99t-44.5 -122.5t-15.5 -118 q0 -68 29.5 -108t85.5 -40q58 0 106.5 39.5t77.5 99t44.5 122.5t15.5 118zM459 791l55 -98h-59l-42 75l-75 -75h-59l97 98q18 18 35 18h22q16 0 26 -18z" />
<glyph unicode="&#xd5;" horiz-adv-x="593" d="M577 435q0 -73 -22.5 -149t-63 -143t-106.5 -109.5t-144 -42.5q-93 0 -143 56.5t-50 150.5q0 73 22.5 149t63 143t106.5 109.5t144 42.5q93 0 143 -56.5t50 -150.5zM492 432q0 68 -29.5 108t-85.5 40q-58 0 -106.5 -39.5t-77.5 -99t-44.5 -122.5t-15.5 -118 q0 -68 29.5 -108t85.5 -40q58 0 106.5 39.5t77.5 99t44.5 122.5t15.5 118zM504 794h30q-24 -89 -88 -89q-24 0 -50 18.5t-41 18.5q-23 0 -42 -37h-30q25 89 88 89q23 0 49 -18.5t42 -18.5q24 0 42 37z" />
<glyph unicode="&#xd6;" horiz-adv-x="593" d="M577 435q0 -73 -22.5 -149t-63 -143t-106.5 -109.5t-144 -42.5q-93 0 -143 56.5t-50 150.5q0 73 22.5 149t63 143t106.5 109.5t144 42.5q93 0 143 -56.5t50 -150.5zM492 432q0 68 -29.5 108t-85.5 40q-58 0 -106.5 -39.5t-77.5 -99t-44.5 -122.5t-15.5 -118 q0 -68 29.5 -108t85.5 -40q58 0 106.5 39.5t77.5 99t44.5 122.5t15.5 118zM544 764q0 -24 -18.5 -41.5t-42.5 -17.5q-17 0 -28 10t-11 27q0 24 18.5 42.5t42.5 18.5q17 0 28 -11t11 -28zM381 764q0 -24 -18.5 -41.5t-42.5 -17.5q-18 0 -29 10t-11 27q0 24 19 42.5t43 18.5 q17 0 28 -11t11 -28z" />
<glyph unicode="&#xd7;" horiz-adv-x="490" d="M380 449l32 -40l-107 -88l69 -87l-50 -42l-69 88l-107 -88l-31 40l106 88l-69 88l51 41l69 -88z" />
<glyph unicode="&#xd8;" horiz-adv-x="591" d="M544 702h60l-78 -115q51 -55 51 -152q0 -73 -22.5 -149t-63 -143t-106.5 -109.5t-144 -42.5q-57 0 -102 24l-57 -84h-60l78 114q-52 57 -52 153q0 73 22.5 149t63 143t106.5 109.5t144 42.5q61 0 103 -24zM148 118l298 439q-28 23 -69 23q-58 0 -106.5 -39.5t-77.5 -99 t-44.5 -122.5t-15.5 -118q0 -49 15 -83zM492 432q0 48 -15 83l-297 -440q28 -22 68 -22q58 0 106.5 39.5t77.5 99t44.5 122.5t15.5 118z" />
<glyph unicode="&#xd9;" horiz-adv-x="599" d="M524 633h82l-83 -387q-26 -124 -78 -181q-67 -74 -190 -74q-87 0 -138 41q-54 44 -54 124q0 33 15 103l79 374h82l-85 -400q-9 -45 -9 -72q0 -52 33 -82q32 -27 86 -27q135 0 173 176zM475 700l-16 -23q-53 56 -109 56q-18 0 -39 -7q-7 11 -7 28q0 20 14 32.5t36 12.5 q36 0 68 -29.5t53 -69.5z" />
<glyph unicode="&#xda;" horiz-adv-x="599" d="M524 633h82l-83 -387q-26 -124 -78 -181q-67 -74 -190 -74q-87 0 -138 41q-54 44 -54 124q0 33 15 103l79 374h82l-85 -400q-9 -45 -9 -72q0 -52 33 -82q32 -27 86 -27q135 0 173 176zM494 770q0 -24 -21 -45q-18 8 -38 8q-61 0 -129 -55l-10 22q34 39 79 69t82 30 t37 -29z" />
<glyph unicode="&#xdb;" horiz-adv-x="599" d="M524 633h82l-83 -387q-26 -124 -78 -181q-67 -74 -190 -74q-87 0 -138 41q-54 44 -54 124q0 33 15 103l79 374h82l-85 -400q-9 -45 -9 -72q0 -52 33 -82q32 -27 86 -27q135 0 173 176zM455 791l55 -98h-59l-42 75l-75 -75h-59l97 98q18 18 35 18h22q16 0 26 -18z" />
<glyph unicode="&#xdc;" horiz-adv-x="599" d="M524 633h82l-83 -387q-26 -124 -78 -181q-67 -74 -190 -74q-87 0 -138 41q-54 44 -54 124q0 33 15 103l79 374h82l-85 -400q-9 -45 -9 -72q0 -52 33 -82q32 -27 86 -27q135 0 173 176zM532 764q0 -24 -18.5 -41.5t-42.5 -17.5q-17 0 -28 10t-11 27q0 24 18.5 42.5 t42.5 18.5q17 0 28 -11t11 -28zM369 764q0 -24 -18.5 -41.5t-42.5 -17.5q-18 0 -29 10t-11 27q0 24 19 42.5t43 18.5q17 0 28 -11t11 -28z" />
<glyph unicode="&#xdd;" horiz-adv-x="495" d="M495 633h78l-290 -411l-47 -222h-83l48 225l-117 408h88l79 -282q11 -40 9 -67h1q9 25 36 64zM446 770q0 -24 -21 -45q-18 8 -38 8q-61 0 -129 -55l-10 22q34 39 79 69t82 30t37 -29z" />
<glyph unicode="&#xde;" horiz-adv-x="523" d="M534 363q0 -106 -76 -174q-78 -70 -219 -70h-102l-26 -119h-83l134 633h84l-24 -111h92q122 0 173 -43q47 -38 47 -116zM449 358q0 48 -26 74q-32 32 -115 32h-98l-61 -288h86q105 0 157 46q57 50 57 136z" />
<glyph unicode="&#xdf;" horiz-adv-x="571" d="M543 565q0 -43 -23.5 -73t-57 -45.5t-66.5 -28.5t-56.5 -32t-23.5 -46q0 -24 21 -41.5t51 -30t60.5 -26.5t51.5 -40t21 -62q0 -74 -59.5 -111.5t-144.5 -37.5q-39 0 -81 11t-68 28l13 57q60 -42 137 -42q57 0 92.5 24t35.5 64q0 26 -21 43.5t-50.5 29.5t-59.5 25.5 t-51 39.5t-21 63q0 38 23.5 65t56.5 42t66.5 29.5t57 37t23.5 54.5q0 37 -27 57.5t-69 20.5q-66 0 -103 -41q-35 -37 -54 -129l-100 -470h-77l91 428h-72l12 57h71l3 11q28 103 74 145q60 55 155 55q86 0 133 -44q36 -34 36 -87z" />
<glyph unicode="&#xe0;" horiz-adv-x="531" d="M447 472l47 13l-83 -382q-5 -23 -5 -31q0 -20 23 -20q25 0 47 13l-11 -52q-31 -18 -66 -18q-32 0 -50 17t-18 44q-20 -28 -59 -46.5t-82 -18.5q-73 0 -115 46t-42 124q0 130 93 231.5t224 101.5q55 0 97 -22zM364 239l41 188q-23 13 -56 13q-95 0 -166 -85.5t-71 -190.5 q0 -56 24.5 -86t69.5 -30q61 0 101 48q35 40 57 143zM471 562l-16 -23q-53 56 -109 56q-18 0 -39 -7q-7 11 -7 28q0 20 14 32.5t36 12.5q36 0 68 -29.5t53 -69.5z" />
<glyph unicode="&#xe1;" horiz-adv-x="531" d="M447 472l47 13l-83 -382q-5 -23 -5 -31q0 -20 23 -20q25 0 47 13l-11 -52q-31 -18 -66 -18q-32 0 -50 17t-18 44q-20 -28 -59 -46.5t-82 -18.5q-73 0 -115 46t-42 124q0 130 93 231.5t224 101.5q55 0 97 -22zM364 239l41 188q-23 13 -56 13q-95 0 -166 -85.5t-71 -190.5 q0 -56 24.5 -86t69.5 -30q61 0 101 48q35 40 57 143zM473 632q0 -24 -21 -45q-18 8 -38 8q-61 0 -129 -55l-10 22q34 39 79 69t82 30t37 -29z" />
<glyph unicode="&#xe2;" horiz-adv-x="531" d="M447 472l47 13l-83 -382q-5 -23 -5 -31q0 -20 23 -20q25 0 47 13l-11 -52q-31 -18 -66 -18q-32 0 -50 17t-18 44q-20 -28 -59 -46.5t-82 -18.5q-73 0 -115 46t-42 124q0 130 93 231.5t224 101.5q55 0 97 -22zM364 239l41 188q-23 13 -56 13q-95 0 -166 -85.5t-71 -190.5 q0 -56 24.5 -86t69.5 -30q61 0 101 48q35 40 57 143zM428 644l55 -98h-59l-42 75l-75 -75h-59l97 98q18 18 35 18h22q16 0 26 -18z" />
<glyph unicode="&#xe3;" horiz-adv-x="531" d="M447 472l47 13l-83 -382q-5 -23 -5 -31q0 -20 23 -20q25 0 47 13l-11 -52q-31 -18 -66 -18q-32 0 -50 17t-18 44q-20 -28 -59 -46.5t-82 -18.5q-73 0 -115 46t-42 124q0 130 93 231.5t224 101.5q55 0 97 -22zM364 239l41 188q-23 13 -56 13q-95 0 -166 -85.5t-71 -190.5 q0 -56 24.5 -86t69.5 -30q61 0 101 48q35 40 57 143zM465 649h30q-24 -89 -88 -89q-24 0 -50 18.5t-41 18.5q-24 0 -42 -37h-30q25 89 88 89q23 0 49 -18.5t42 -18.5q23 0 42 37z" />
<glyph unicode="&#xe4;" horiz-adv-x="531" d="M447 472l47 13l-83 -382q-5 -23 -5 -31q0 -20 23 -20q25 0 47 13l-11 -52q-31 -18 -66 -18q-32 0 -50 17t-18 44q-20 -28 -59 -46.5t-82 -18.5q-73 0 -115 46t-42 124q0 130 93 231.5t224 101.5q55 0 97 -22zM364 239l41 188q-23 13 -56 13q-95 0 -166 -85.5t-71 -190.5 q0 -56 24.5 -86t69.5 -30q61 0 101 48q35 40 57 143zM505 623q0 -24 -18.5 -41.5t-42.5 -17.5q-17 0 -28 10t-11 27q0 24 18.5 42.5t42.5 18.5q17 0 28 -11t11 -28zM342 623q0 -24 -18.5 -41.5t-42.5 -17.5q-18 0 -29 10t-11 27q0 24 19 42.5t43 18.5q17 0 28 -11t11 -28z " />
<glyph unicode="&#xe5;" horiz-adv-x="531" d="M447 472l47 13l-83 -382q-5 -23 -5 -31q0 -20 23 -20q25 0 47 13l-11 -52q-31 -18 -66 -18q-32 0 -50 17t-18 44q-20 -28 -59 -46.5t-82 -18.5q-73 0 -115 46t-42 124q0 130 93 231.5t224 101.5q55 0 97 -22zM364 239l41 188q-23 13 -56 13q-95 0 -166 -85.5t-71 -190.5 q0 -56 24.5 -86t69.5 -30q61 0 101 48q35 40 57 143zM467 641q0 -41 -30 -69.5t-72 -28.5q-29 0 -47.5 16.5t-18.5 45.5q0 40 30 69t71 29q29 0 48 -16.5t19 -45.5zM427 635q0 16 -9.5 25.5t-25.5 9.5q-22 0 -37.5 -18t-15.5 -40q0 -16 9 -25.5t25 -9.5q22 0 38 18t16 40z " />
<glyph unicode="&#xe6;" horiz-adv-x="787" d="M768 374q0 -76 -66 -129t-175 -53q-61 0 -105 15q-3 -17 -3 -37q0 -59 30 -90.5t88 -31.5q40 0 86 15t76 36l-13 -63q-71 -45 -167 -45q-61 0 -104 25.5t-62 72.5q-21 -44 -68.5 -71t-102.5 -27q-65 0 -108.5 36.5t-43.5 100.5q0 82 60 130t156 48q66 0 112 -23l10 48 q4 22 4 34q0 75 -100 75q-70 0 -145 -29l11 55q68 28 147 28q60 0 100.5 -22.5t51.5 -65.5q83 88 191 88q60 0 100 -31t40 -89zM694 372q0 66 -71 66q-66 0 -118 -55t-72 -125q37 -13 91 -13q76 0 123 35t47 92zM336 182l11 52q-38 20 -94 20q-67 0 -106.5 -32.5 t-39.5 -85.5q0 -42 25.5 -66.5t66.5 -24.5q55 0 89 36q33 33 48 101z" />
<glyph unicode="&#xe7;" horiz-adv-x="465" d="M263 -92q0 -41 -40.5 -59.5t-91.5 -18.5l-2 27q29 1 55.5 9.5t26.5 25.5q0 14 -40 26.5t-40 30.5q0 24 26 48v1q-59 13 -92 55.5t-33 111.5q0 80 33.5 154.5t99 124.5t147.5 50q65 0 103 -35.5t38 -101.5v-6l-74 -1v5q0 83 -74 83q-59 0 -105 -46.5t-67.5 -107 t-21.5 -116.5q0 -120 119 -120q79 0 157 51l-13 -63q-68 -45 -157 -45q-5 0 -13.5 0.5t-12.5 0.5q-10 -10 -10 -20q0 -8 13 -14t28 -10t28 -14t13 -26z" />
<glyph unicode="&#xe8;" horiz-adv-x="479" d="M460 374q0 -76 -66 -129t-175 -53q-61 0 -105 15q-3 -16 -3 -37q0 -59 30 -90.5t88 -31.5q40 0 86 15t76 36l-13 -63q-71 -45 -167 -45q-83 0 -131 46t-48 128q0 69 29 136.5t79 115.5q80 77 180 77q60 0 100 -31t40 -89zM386 372q0 66 -71 66q-46 0 -90 -31 q-73 -53 -100 -149q37 -13 91 -13q76 0 123 35t47 92zM434 562l-16 -23q-53 56 -109 56q-18 0 -39 -7q-7 11 -7 28q0 20 14 32.5t36 12.5q36 0 68 -29.5t53 -69.5z" />
<glyph unicode="&#xe9;" horiz-adv-x="479" d="M460 374q0 -76 -66 -129t-175 -53q-61 0 -105 15q-3 -16 -3 -37q0 -59 30 -90.5t88 -31.5q40 0 86 15t76 36l-13 -63q-71 -45 -167 -45q-83 0 -131 46t-48 128q0 69 29 136.5t79 115.5q80 77 180 77q60 0 100 -31t40 -89zM386 372q0 66 -71 66q-46 0 -90 -31 q-73 -53 -100 -149q37 -13 91 -13q76 0 123 35t47 92zM419 632q0 -24 -21 -45q-18 8 -38 8q-61 0 -129 -55l-10 22q34 39 79 69t82 30t37 -29z" />
<glyph unicode="&#xea;" horiz-adv-x="479" d="M460 374q0 -76 -66 -129t-175 -53q-61 0 -105 15q-3 -16 -3 -37q0 -59 30 -90.5t88 -31.5q40 0 86 15t76 36l-13 -63q-71 -45 -167 -45q-83 0 -131 46t-48 128q0 69 29 136.5t79 115.5q80 77 180 77q60 0 100 -31t40 -89zM386 372q0 66 -71 66q-46 0 -90 -31 q-73 -53 -100 -149q37 -13 91 -13q76 0 123 35t47 92zM384 644l55 -98h-59l-42 75l-75 -75h-59l97 98q18 18 35 18h22q16 0 26 -18z" />
<glyph unicode="&#xeb;" horiz-adv-x="479" d="M460 374q0 -76 -66 -129t-175 -53q-61 0 -105 15q-3 -16 -3 -37q0 -59 30 -90.5t88 -31.5q40 0 86 15t76 36l-13 -63q-71 -45 -167 -45q-83 0 -131 46t-48 128q0 69 29 136.5t79 115.5q80 77 180 77q60 0 100 -31t40 -89zM386 372q0 66 -71 66q-46 0 -90 -31 q-73 -53 -100 -149q37 -13 91 -13q76 0 123 35t47 92zM466 623q0 -24 -18.5 -41.5t-42.5 -17.5q-17 0 -28 10t-11 27q0 24 18.5 42.5t42.5 18.5q17 0 28 -11t11 -28zM303 623q0 -24 -18.5 -41.5t-42.5 -17.5q-18 0 -29 10t-11 27q0 24 19 42.5t43 18.5q17 0 28 -11t11 -28z " />
<glyph unicode="&#xec;" horiz-adv-x="264" d="M76 485h143l-82 -386q-5 -23 -5 -31q0 -20 23 -20t45 13l-10 -52q-30 -18 -66 -18q-29 0 -49.5 15.5t-20.5 47.5q0 22 7 52l69 322h-66zM282 562l-16 -23q-53 56 -109 56q-18 0 -39 -7q-7 11 -7 28q0 20 13.5 32.5t36.5 12.5q36 0 68 -29.5t53 -69.5z" />
<glyph unicode="&#xed;" horiz-adv-x="264" d="M76 485h143l-82 -386q-5 -23 -5 -31q0 -20 23 -20t45 13l-10 -52q-30 -18 -66 -18q-29 0 -49.5 15.5t-20.5 47.5q0 22 7 52l69 322h-66zM286 632q0 -24 -21 -45q-18 8 -38 8q-61 0 -129 -55l-10 22q34 39 79 69t82 30t37 -29z" />
<glyph unicode="&#xee;" horiz-adv-x="264" d="M76 485h143l-82 -386q-5 -23 -5 -31q0 -20 23 -20t45 13l-10 -52q-30 -18 -66 -18q-29 0 -49.5 15.5t-20.5 47.5q0 22 7 52l69 322h-66zM234 644l55 -98h-59l-42 75l-75 -75h-59l97 98q18 18 35 18h22q16 0 26 -18z" />
<glyph unicode="&#xef;" horiz-adv-x="264" d="M76 485h143l-82 -386q-5 -23 -5 -31q0 -20 23 -20t45 13l-10 -52q-30 -18 -66 -18q-29 0 -49.5 15.5t-20.5 47.5q0 22 7 52l69 322h-66zM320 623q0 -24 -18.5 -41.5t-42.5 -17.5q-17 0 -28 10t-11 27q0 24 18.5 42.5t42.5 18.5q17 0 28 -11t11 -28zM157 623 q0 -24 -18.5 -41.5t-42.5 -17.5q-18 0 -29 10t-11 27q0 24 19 42.5t43 18.5q17 0 28 -11t11 -28z" />
<glyph unicode="&#xf0;" horiz-adv-x="513" d="M491 410q0 -59 -10.5 -117t-34 -113t-57 -96.5t-82.5 -67t-108 -25.5q-75 0 -121 43.5t-46 117.5q0 106 72.5 181t178.5 75q66 0 127 -32q2 32 2 49q0 96 -50 136l-38 -59l-34 20l37 57q-18 6 -42 6q-41 0 -81 -12l-13 53q46 16 100 16q39 0 70 -9l39 60l34 -20l-36 -56 q93 -53 93 -207zM404 324q-51 31 -111 31q-82 0 -132 -58t-50 -141q0 -49 25 -78.5t73 -29.5q39 0 70.5 19t52 47t36 67t23.5 72.5t13 70.5z" />
<glyph unicode="&#xf1;" horiz-adv-x="556" d="M508 61l-10 -52q-30 -18 -66 -18q-29 0 -49.5 15.5t-20.5 47.5q0 17 7 52l39 178q10 47 10 73q0 37 -23 57q-22 19 -63 19q-69 0 -113 -58q-34 -44 -59 -158l-47 -217h-77l92 428h-66l12 57h120l-3 -70q24 34 67 56.5t92 22.5q64 0 105.5 -33t41.5 -94q0 -32 -14 -94 l-38 -174q-5 -23 -5 -31q0 -20 23 -20t45 13zM443 649h30q-24 -89 -88 -89q-24 0 -50 18.5t-41 18.5q-24 0 -42 -37h-30q25 89 88 89q23 0 49 -18.5t42 -18.5q23 0 42 37z" />
<glyph unicode="&#xf2;" horiz-adv-x="512" d="M480 326q0 -73 -28.5 -145.5t-78.5 -120.5q-71 -69 -171 -69q-77 0 -123.5 44.5t-46.5 124.5q0 73 28.5 145t78.5 120q71 69 171 69q77 0 123.5 -44.5t46.5 -123.5zM401 322q0 54 -26.5 85t-75.5 31q-59 0 -105 -49q-39 -41 -61 -103t-22 -123q0 -54 26.5 -85t75.5 -31 q58 0 105 50q39 41 61 102.5t22 122.5zM445 562l-16 -23q-53 56 -109 56q-18 0 -39 -7q-7 11 -7 28q0 20 14 32.5t36 12.5q36 0 68 -29.5t53 -69.5z" />
<glyph unicode="&#xf3;" horiz-adv-x="512" d="M480 326q0 -73 -28.5 -145.5t-78.5 -120.5q-71 -69 -171 -69q-77 0 -123.5 44.5t-46.5 124.5q0 73 28.5 145t78.5 120q71 69 171 69q77 0 123.5 -44.5t46.5 -123.5zM401 322q0 54 -26.5 85t-75.5 31q-59 0 -105 -49q-39 -41 -61 -103t-22 -123q0 -54 26.5 -85t75.5 -31 q58 0 105 50q39 41 61 102.5t22 122.5zM409 632q0 -24 -21 -45q-18 8 -38 8q-61 0 -129 -55l-10 22q34 39 79 69t82 30t37 -29z" />
<glyph unicode="&#xf4;" horiz-adv-x="512" d="M480 326q0 -73 -28.5 -145.5t-78.5 -120.5q-71 -69 -171 -69q-77 0 -123.5 44.5t-46.5 124.5q0 73 28.5 145t78.5 120q71 69 171 69q77 0 123.5 -44.5t46.5 -123.5zM401 322q0 54 -26.5 85t-75.5 31q-59 0 -105 -49q-39 -41 -61 -103t-22 -123q0 -54 26.5 -85t75.5 -31 q58 0 105 50q39 41 61 102.5t22 122.5zM399 644l55 -98h-59l-42 75l-75 -75h-59l97 98q18 18 35 18h22q16 0 26 -18z" />
<glyph unicode="&#xf5;" horiz-adv-x="512" d="M480 326q0 -73 -28.5 -145.5t-78.5 -120.5q-71 -69 -171 -69q-77 0 -123.5 44.5t-46.5 124.5q0 73 28.5 145t78.5 120q71 69 171 69q77 0 123.5 -44.5t46.5 -123.5zM401 322q0 54 -26.5 85t-75.5 31q-59 0 -105 -49q-39 -41 -61 -103t-22 -123q0 -54 26.5 -85t75.5 -31 q58 0 105 50q39 41 61 102.5t22 122.5zM429 649h30q-24 -89 -88 -89q-24 0 -50 18.5t-41 18.5q-24 0 -42 -37h-30q25 89 88 89q23 0 49 -18.5t42 -18.5q23 0 42 37z" />
<glyph unicode="&#xf6;" horiz-adv-x="512" d="M480 326q0 -73 -28.5 -145.5t-78.5 -120.5q-71 -69 -171 -69q-77 0 -123.5 44.5t-46.5 124.5q0 73 28.5 145t78.5 120q71 69 171 69q77 0 123.5 -44.5t46.5 -123.5zM401 322q0 54 -26.5 85t-75.5 31q-59 0 -105 -49q-39 -41 -61 -103t-22 -123q0 -54 26.5 -85t75.5 -31 q58 0 105 50q39 41 61 102.5t22 122.5zM481 623q0 -24 -18.5 -41.5t-42.5 -17.5q-17 0 -28 10t-11 27q0 24 18.5 42.5t42.5 18.5q17 0 28 -11t11 -28zM318 623q0 -24 -18.5 -41.5t-42.5 -17.5q-18 0 -29 10t-11 27q0 24 19 42.5t43 18.5q17 0 28 -11t11 -28z" />
<glyph unicode="&#xf7;" horiz-adv-x="490" d="M331 455q0 -21 -17 -37.5t-38 -16.5q-16 0 -26.5 10t-10.5 26q0 21 17.5 37t38.5 16q15 0 25.5 -10t10.5 -25zM111 349h306l-12 -57h-307zM278 205q0 -21 -17 -38t-38 -17q-16 0 -26.5 10t-10.5 26q0 21 17.5 37.5t38.5 16.5q15 0 25.5 -10t10.5 -25z" />
<glyph unicode="&#xf8;" horiz-adv-x="512" d="M480 326q0 -73 -28.5 -145.5t-78.5 -120.5q-71 -69 -171 -69q-44 0 -78 15l-49 -75h-48l62 95q-57 46 -57 134q0 73 28.5 145t78.5 120q71 69 171 69q42 0 74 -13l44 68h48l-57 -87q61 -45 61 -136zM401 322q0 49 -21 79l-221 -341q22 -13 54 -13q58 0 105 50 q39 41 61 102.5t22 122.5zM129 89l220 338q-22 11 -50 11q-59 0 -105 -49q-39 -41 -61 -103t-22 -123q0 -45 18 -74z" />
<glyph unicode="&#xf9;" horiz-adv-x="541" d="M429 485h77l-82 -382q-5 -23 -5 -31q0 -20 23 -20q24 0 46 13l-10 -52q-30 -18 -66 -18q-68 0 -71 62q-57 -66 -149 -66q-64 0 -105.5 33t-41.5 94q0 32 14 94l59 273h77l-61 -284q-10 -47 -10 -73q0 -37 23 -57q22 -19 63 -19q69 0 113 58q34 44 59 158zM406 562 l-16 -23q-53 56 -109 56q-18 0 -39 -7q-7 11 -7 28q0 20 13.5 32.5t36.5 12.5q36 0 68 -29.5t53 -69.5z" />
<glyph unicode="&#xfa;" horiz-adv-x="541" d="M429 485h77l-82 -382q-5 -23 -5 -31q0 -20 23 -20q24 0 46 13l-10 -52q-30 -18 -66 -18q-68 0 -71 62q-57 -66 -149 -66q-64 0 -105.5 33t-41.5 94q0 32 14 94l59 273h77l-61 -284q-10 -47 -10 -73q0 -37 23 -57q22 -19 63 -19q69 0 113 58q34 44 59 158zM422 632 q0 -24 -21 -45q-18 8 -38 8q-61 0 -129 -55l-10 22q34 39 79 69t82 30t37 -29z" />
<glyph unicode="&#xfb;" horiz-adv-x="541" d="M429 485h77l-82 -382q-5 -23 -5 -31q0 -20 23 -20q24 0 46 13l-10 -52q-30 -18 -66 -18q-68 0 -71 62q-57 -66 -149 -66q-64 0 -105.5 33t-41.5 94q0 32 14 94l59 273h77l-61 -284q-10 -47 -10 -73q0 -37 23 -57q22 -19 63 -19q69 0 113 58q34 44 59 158zM382 644l55 -98 h-59l-42 75l-75 -75h-59l97 98q18 18 35 18h22q16 0 26 -18z" />
<glyph unicode="&#xfc;" horiz-adv-x="541" d="M429 485h77l-82 -382q-5 -23 -5 -31q0 -20 23 -20q24 0 46 13l-10 -52q-30 -18 -66 -18q-68 0 -71 62q-57 -66 -149 -66q-64 0 -105.5 33t-41.5 94q0 32 14 94l59 273h77l-61 -284q-10 -47 -10 -73q0 -37 23 -57q22 -19 63 -19q69 0 113 58q34 44 59 158zM465 623 q0 -24 -18.5 -41.5t-42.5 -17.5q-17 0 -28 10t-11 27q0 24 18.5 42.5t42.5 18.5q17 0 28 -11t11 -28zM302 623q0 -24 -18.5 -41.5t-42.5 -17.5q-18 0 -29 10t-11 27q0 24 19 42.5t43 18.5q17 0 28 -11t11 -28z" />
<glyph unicode="&#xfd;" horiz-adv-x="529" d="M431 485h77l-97 -452q-23 -111 -71 -166q-31 -36 -81 -57.5t-109 -21.5q-77 0 -125.5 34t-48.5 90q0 86 115 112q-44 36 -44 94q0 32 14 94l59 273h77l-61 -284q-10 -47 -10 -73q0 -37 23 -57q22 -19 63 -19q69 0 113 58q34 44 59 158zM328 8l11 49q-43 -52 -149 -64 q-77 -8 -110.5 -24.5t-33.5 -55.5q0 -34 29 -54.5t75 -20.5q74 0 120 48q40 42 58 122zM428 632q0 -24 -21 -45q-18 8 -38 8q-61 0 -129 -55l-10 22q34 39 79 69t82 30t37 -29z" />
<glyph unicode="&#xfe;" horiz-adv-x="527" d="M495 327q0 -80 -28 -155.5t-88 -128t-138 -52.5q-40 0 -74 21t-45 52l-57 -263h-78l187 883h78l-55 -258q22 31 60.5 49.5t81.5 18.5q74 0 115 -45.5t41 -121.5zM416 324q0 50 -24.5 81.5t-74.5 31.5q-58 0 -98 -43t-55 -120l-14 -69q-7 -35 -7 -60q0 -45 26 -71t69 -26 q58 0 100.5 47.5t60 108t17.5 120.5z" />
<glyph unicode="&#xff;" horiz-adv-x="529" d="M431 485h77l-97 -452q-23 -111 -71 -166q-31 -36 -81 -57.5t-109 -21.5q-77 0 -125.5 34t-48.5 90q0 86 115 112q-44 36 -44 94q0 32 14 94l59 273h77l-61 -284q-10 -47 -10 -73q0 -37 23 -57q22 -19 63 -19q69 0 113 58q34 44 59 158zM328 8l11 49q-43 -52 -149 -64 q-77 -8 -110.5 -24.5t-33.5 -55.5q0 -34 29 -54.5t75 -20.5q74 0 120 48q40 42 58 122zM464 623q0 -24 -18.5 -41.5t-42.5 -17.5q-17 0 -28 10t-11 27q0 24 18.5 42.5t42.5 18.5q17 0 28 -11t11 -28zM301 623q0 -24 -18.5 -41.5t-42.5 -17.5q-18 0 -29 10t-11 27 q0 24 19 42.5t43 18.5q17 0 28 -11t11 -28z" />
<glyph unicode="&#x152;" horiz-adv-x="839" d="M550 633h314l-12 -58h-281l-47 -224h227l-13 -58h-227l-50 -235h303l-12 -58h-337q-33 0 -89.5 -4.5t-84.5 -4.5q-93 0 -143 56.5t-50 150.5q0 85 30 174.5t84 155.5q94 114 228 114q31 0 82.5 -4.5t77.5 -4.5zM396 136l79 373q7 36 -12 52q-22 19 -83 19q-58 0 -107 -39 t-78.5 -98.5t-45.5 -123t-16 -118.5q0 -68 29.5 -108t85.5 -40q76 0 107 18q30 17 41 65z" />
<glyph unicode="&#x153;" horiz-adv-x="830" d="M811 374q0 -76 -66 -129t-175 -53q-61 0 -105 15q-3 -17 -3 -37q0 -59 30 -90.5t88 -31.5q40 0 86 15t76 36l-13 -63q-71 -45 -167 -45q-125 0 -165 96l-24 -27q-71 -69 -171 -69q-77 0 -123.5 44.5t-46.5 124.5q0 73 28.5 145t78.5 120q71 69 171 69q58 0 100 -26 t59 -74q39 45 92 72.5t110 27.5q60 0 100 -31t40 -89zM737 372q0 66 -71 66q-46 0 -90 -31q-72 -51 -100 -149q37 -13 91 -13q76 0 123 35t47 92zM401 322q0 54 -26.5 85t-75.5 31q-59 0 -105 -49q-39 -41 -61 -103t-22 -123q0 -54 26.5 -85t75.5 -31q58 0 105 50 q39 41 61 102.5t22 122.5z" />
<glyph unicode="&#x178;" horiz-adv-x="495" d="M495 633h78l-290 -411l-47 -222h-83l48 225l-117 408h88l79 -282q11 -40 9 -67h1q9 25 36 64zM480 764q0 -24 -18.5 -41.5t-42.5 -17.5q-17 0 -28 10t-11 27q0 24 18.5 42.5t42.5 18.5q17 0 28 -11t11 -28zM317 764q0 -24 -18.5 -41.5t-42.5 -17.5q-18 0 -29 10t-11 27 q0 24 19 42.5t43 18.5q17 0 28 -11t11 -28z" />
<glyph unicode="&#x2c6;" horiz-adv-x="264" d="M253 644l55 -98h-59l-42 75l-75 -75h-59l97 98q18 18 35 18h22q16 0 26 -18z" />
<glyph unicode="&#x2dc;" horiz-adv-x="264" d="M304 649h30q-24 -89 -88 -89q-24 0 -50 18.5t-41 18.5q-23 0 -42 -37h-30q25 89 88 89q23 0 49 -18.5t42 -18.5q24 0 42 37z" />
<glyph unicode="&#x2000;" horiz-adv-x="422" />
<glyph unicode="&#x2001;" horiz-adv-x="844" />
<glyph unicode="&#x2002;" horiz-adv-x="422" />
<glyph unicode="&#x2003;" horiz-adv-x="844" />
<glyph unicode="&#x2004;" horiz-adv-x="281" />
<glyph unicode="&#x2005;" horiz-adv-x="211" />
<glyph unicode="&#x2006;" horiz-adv-x="140" />
<glyph unicode="&#x2007;" horiz-adv-x="140" />
<glyph unicode="&#x2008;" horiz-adv-x="105" />
<glyph unicode="&#x2009;" horiz-adv-x="168" />
<glyph unicode="&#x200a;" horiz-adv-x="46" />
<glyph unicode="&#x2010;" horiz-adv-x="292" d="M41 270h220l-13 -62h-220z" />
<glyph unicode="&#x2011;" horiz-adv-x="292" d="M41 270h220l-13 -62h-220z" />
<glyph unicode="&#x2012;" horiz-adv-x="292" d="M41 270h220l-13 -62h-220z" />
<glyph unicode="&#x2013;" horiz-adv-x="500" d="M5 299h500l-10 -50h-500z" />
<glyph unicode="&#x2014;" horiz-adv-x="1000" d="M5 299h1000l-10 -50h-1000z" />
<glyph unicode="&#x2018;" horiz-adv-x="174" d="M209 642l16 -25q-58 -41 -74 -87q33 -8 33 -38q0 -24 -17 -41t-42 -17q-20 0 -32 12t-12 32q0 46 38 91.5t90 72.5z" />
<glyph unicode="&#x2019;" horiz-adv-x="170" d="M208 598q0 -46 -38 -91.5t-90 -72.5l-16 25q58 41 74 87q-33 8 -33 38q0 24 17.5 41t41.5 17q20 0 32 -12t12 -32z" />
<glyph unicode="&#x201a;" horiz-adv-x="238" d="M133 26q0 -46 -38 -91.5t-90 -72.5l-16 25q58 41 74 87q-33 8 -33 38q0 24 17 41t42 17q20 0 32 -12t12 -32z" />
<glyph unicode="&#x201c;" horiz-adv-x="310" d="M344 642l16 -25q-58 -41 -74 -87q33 -8 33 -38q0 -24 -17.5 -41t-41.5 -17q-20 0 -32 12t-12 32q0 46 38 91.5t90 72.5zM209 642l16 -25q-58 -41 -74 -87q33 -8 33 -38q0 -24 -17 -41t-42 -17q-20 0 -32 12t-12 32q0 46 38 91.5t90 72.5z" />
<glyph unicode="&#x201d;" horiz-adv-x="305" d="M343 598q0 -46 -38 -91.5t-90 -72.5l-16 25q58 41 74 87q-33 8 -33 38q0 24 17 41t42 17q20 0 32 -12t12 -32zM208 598q0 -46 -38 -91.5t-90 -72.5l-16 25q58 41 74 87q-33 8 -33 38q0 24 17.5 41t41.5 17q20 0 32 -12t12 -32z" />
<glyph unicode="&#x201e;" horiz-adv-x="372" d="M267 26q0 -46 -38 -91.5t-90 -72.5l-16 25q58 41 74 87q-33 8 -33 38q0 24 17 41t42 17q20 0 32 -12t12 -32zM132 26q0 -46 -38 -91.5t-90 -72.5l-16 25q58 41 74 87q-33 8 -33 38q0 24 17.5 41t41.5 17q20 0 32 -12t12 -32z" />
<glyph unicode="&#x2022;" horiz-adv-x="314" d="M266 335q0 -42 -34.5 -75.5t-76.5 -33.5q-32 0 -52.5 20t-20.5 51q0 42 34.5 75.5t76.5 33.5q31 0 52 -20t21 -51z" />
<glyph unicode="&#x2026;" horiz-adv-x="573" d="M463 54q0 -22 -18 -40t-41 -18q-17 0 -28 11t-11 27q0 22 18 40t41 18q17 0 28 -11t11 -27zM295 54q0 -22 -18.5 -40t-41.5 -18q-17 0 -27.5 11t-10.5 27q0 22 18 40t41 18q17 0 28 -11t11 -27zM127 54q0 -22 -18.5 -40t-41.5 -18q-17 0 -27.5 11t-10.5 27q0 22 18 40 t41 18q17 0 28 -11t11 -27z" />
<glyph unicode="&#x202f;" horiz-adv-x="168" />
<glyph unicode="&#x2039;" horiz-adv-x="263" d="M229 412l6 -49l-118 -121l67 -121l-28 -48l-105 150q-8 10 -7 18q1 9 14 20z" />
<glyph unicode="&#x203a;" horiz-adv-x="262" d="M223 244q-1 -10 -14 -21l-170 -150l-6 48l117 121l-67 121l29 49l105 -151q7 -9 6 -17z" />
<glyph unicode="&#x205f;" horiz-adv-x="211" />
<glyph unicode="&#x20ac;" d="M545 476v-9l-73 -1v6q0 109 -95 109q-72 0 -124.5 -60t-80.5 -151h161l-11 -51h-164q-6 -30 -9 -46h163l-11 -51h-156v-16q0 -72 32.5 -112t97.5 -40q97 0 177 57l-14 -70q-81 -50 -173 -50q-96 0 -147.5 54.5t-51.5 156.5v20h-73l11 51h66q1 4 9 46h-65l11 51h67 q36 117 111 194.5t178 77.5q75 0 119.5 -42.5t44.5 -123.5z" />
<glyph unicode="&#x2122;" horiz-adv-x="656" d="M639 633h47l-71 -337h-46l49 234q-1 -2 -4 -7t-5 -8.5t-3 -5.5l-134 -213h-34l-49 220q-1 2 -1.5 6.5t-0.5 6.5l-49 -233h-46l71 337h48l61 -266zM82 633h251l-8 -37h-100l-63 -300h-51l63 300h-100z" />
<glyph unicode="&#x25fc;" horiz-adv-x="485" d="M0 485h485v-485h-485v485z" />
</font>
</defs>
</svg>
